<?xml version="1.0" encoding="utf-8"?>

<!DOCTYPE svg PUBLIC "-//W3C//DTD SVG 1.1//EN" "http://www.w3.org/Graphics/SVG/1.1/DTD/svg11.dtd">
<!-- Uploaded to: SVG Repo, www.svgrepo.com, Generator: SVG Repo Mixer Tools -->
<svg height="800px" width="800px" version="1.1" id="_x32_" xmlns="http://www.w3.org/2000/svg" xmlns:xlink="http://www.w3.org/1999/xlink" 
	 viewBox="0 0 512 512"  xml:space="preserve">
<style type="text/css">
	.st0{fill:#000000;}
</style>
<g>
	<path class="st0" d="M512,339.979h-0.447l-78.911-181.464c7.507,2.712,13.862,5.052,18.787,6.901l9.242-24.513
		c-26.263-9.878-90.312-32.634-160.397-53.254c0-10.817-4.432-20.665-11.522-27.755c-7.075-7.106-16.953-11.499-27.771-11.499
		c-10.817,0-20.718,4.394-27.786,11.499c-2.333,2.318-4.348,4.939-6.022,7.803C157.761,50.151,92.902,37.357,65.745,32.569
		l-4.552,25.794c5.749,1.015,13.317,2.416,22.332,4.159L0.454,253.545H0c0.06,0.197,0.129,0.394,0.189,0.591l-0.167,0.386
		l0.342,0.151c12.817,40.619,50.754,70.078,95.599,70.078c44.852,0,82.79-29.46,95.599-70.078l0.349-0.151l-0.167-0.386
		c0.061-0.197,0.129-0.394,0.19-0.591h-0.455L110.772,67.961c30.975,6.371,70.479,15.098,111.34,25.445
		c1.257,8.545,5.265,16.249,11.082,22.028c3.424,3.447,7.53,6.242,12.068,8.227v276.373c-17.734,0-31.543,0-31.543,0
		s-7.56,47.27-41.588,54.814v24.582h177.692v-24.582c-34.02-7.544-41.588-54.814-41.588-54.814s-13.809,0-31.543,0V123.661
		c4.53-1.985,8.628-4.78,12.06-8.227c0.963-0.97,1.909-1.984,2.772-3.06c41.732,12.264,81.547,25.369,112.325,35.997
		l-83.327,191.608h-0.454c0.06,0.204,0.128,0.394,0.197,0.591l-0.174,0.386l0.34,0.151c12.818,40.618,50.754,70.078,95.606,70.078
		c44.846,0,82.782-29.453,95.599-70.07l0.341-0.159l-0.167-0.386C511.871,340.373,511.947,340.183,512,339.979z M174.343,253.545
		H17.59L95.97,73.317L174.343,253.545z M275.783,102.481c-1.546,1.538-3.326,2.871-5.296,3.841
		c-2.825,1.492-6.045,2.311-9.507,2.311c-5.81,0-10.999-2.334-14.824-6.152c-1.068-1.106-2.046-2.28-2.879-3.59
		c-2.068-3.227-3.249-7.045-3.249-11.211c0-5.818,2.333-11.006,6.128-14.832c0.084-0.076,0.159-0.151,0.243-0.205
		c3.795-3.674,8.87-5.915,14.582-5.915c5.818,0,11.007,2.332,14.803,6.12c2.537,2.545,4.454,5.712,5.424,9.272
		c0.469,1.758,0.734,3.621,0.734,5.56C281.941,93.497,279.608,98.678,275.783,102.481z M337.657,339.979l78.38-180.23l78.373,180.23
		H337.657z"/>
</g>
</svg>