<svg width="96" height="121" viewBox="0 0 96 121" fill="none" xmlns="http://www.w3.org/2000/svg">
<path fill-rule="evenodd" clip-rule="evenodd" d="M36.3513 0.537301C35.0349 1.04923 34.3767 1.7805 34.523 2.58495C34.7424 3.8282 7.90261 40.1019 1.02817 62.1147C-1.09267 68.9891 2.3447 69.9398 17.995 66.9414C27.5022 65.1131 27.1365 63.2117 20.8471 80.9098C16.1666 93.9273 12.7296 104.824 11.1206 111.479C8.92668 120.255 13.5339 124.862 24.9426 112.942C29.8425 107.822 40.9586 96.3407 66.9937 66.649C89.0797 41.4914 89.0064 42.1496 71.6009 41.4914L60.8506 41.0526C65.8968 35.714 84.7646 15.3831 90.5421 10.6295C96.3195 5.80278 98.1481 3.82826 90.396 2.73127C81.4008 1.41489 50.9776 0.902981 42.0555 0.0985249C40.0078 -0.120872 37.4483 0.098507 36.3513 0.537301ZM79.7186 7.92365L75.9156 11.0684C66.6278 18.6741 48.2717 40.5406 48.2717 43.9047C48.2717 47.5613 54.4149 47.1957 70.2846 47.1957C46.8823 74.3278 28.5991 95.463 28.1603 95.463C28.0141 95.463 29.6963 90.6364 31.9634 84.6395C40.4467 61.8953 40.8855 57.6536 34.8887 58.385C24.5039 59.6282 14.3385 61.0177 12.949 61.4565C11.7057 61.8222 12.51 59.8476 17.1905 51.0717C25.5276 35.1289 28.8917 30.5215 43.5181 6.16846C71.3816 7.41171 71.089 7.41172 79.7186 7.92365Z" fill="black"/>
</svg>
