<?xml version="1.0" encoding="iso-8859-1"?>
<!-- Generator: Adobe Illustrator 19.0.0, SVG Export Plug-In . SVG Version: 6.00 Build 0)  -->
<svg version="1.1" id="Layer_1" xmlns="http://www.w3.org/2000/svg" xmlns:xlink="http://www.w3.org/1999/xlink" x="0px" y="0px"
	 viewBox="0 0 490 490" style="enable-background:new 0 0 490 490;" xml:space="preserve">
<g>
	<g>
		<g>
			<path d="M295,160c-74.439,0-135,60.561-135,135s60.561,135,135,135s135-60.561,135-135S369.439,160,295,160z M295,400
				c-57.897,0-105-47.103-105-105c0-57.897,47.103-105,105-105c57.897,0,105,47.103,105,105C400,352.897,352.897,400,295,400z"/>
			<path d="M295,235c-33.084,0-60,26.916-60,60s26.916,60,60,60s60-26.916,60-60S328.084,235,295,235z M295,325
				c-16.542,0-30-13.458-30-30s13.458-30,30-30s30,13.458,30,30S311.542,325,295,325z"/>
			<path d="M425,100h-0.076l-42.5-100H207.577l-42.5,100H65c-35.841,0-65,29.159-65,65v260c0,35.841,29.159,65,65,65h360
				c35.841,0,65-29.159,65-65V165C490,129.159,460.841,100,425,100z M227.423,30h135.153l29.75,70H197.674L227.423,30z M100,460H65
				c-19.299,0-35-15.701-35-35V190h70V460z M100,160H30.363c2.434-16.938,17.036-30,34.637-30h35V160z M460,425
				c0,19.299-15.701,35-35,35H130V130h295c19.299,0,35,15.701,35,35V425z"/>
		</g>
	</g>
</g>
<g>
</g>
<g>
</g>
<g>
</g>
<g>
</g>
<g>
</g>
<g>
</g>
<g>
</g>
<g>
</g>
<g>
</g>
<g>
</g>
<g>
</g>
<g>
</g>
<g>
</g>
<g>
</g>
<g>
</g>
</svg>
