<?xml version="1.0" encoding="UTF-8" standalone="no"?>
<!-- Uploaded to: SVG Repo, www.svgrepo.com, Generator: SVG Repo Mixer Tools -->

<svg
   fill="#000000"
   width="32"
   height="25.580051"
   viewBox="0 0 20.480001 16.371233"
   version="1.1"
   id="svg679"
   sodipodi:docname="eye-off.svg"
   inkscape:version="1.2.2 (b0a8486541, 2022-12-01)"
   xmlns:inkscape="http://www.inkscape.org/namespaces/inkscape"
   xmlns:sodipodi="http://sodipodi.sourceforge.net/DTD/sodipodi-0.dtd"
   xmlns="http://www.w3.org/2000/svg"
   xmlns:svg="http://www.w3.org/2000/svg"
   xmlns:rdf="http://www.w3.org/1999/02/22-rdf-syntax-ns#"
   xmlns:cc="http://creativecommons.org/ns#"
   xmlns:dc="http://purl.org/dc/elements/1.1/">
  <defs
     id="defs683" />
  <sodipodi:namedview
     id="namedview681"
     pagecolor="#ffffff"
     bordercolor="#000000"
     borderopacity="0.25"
     inkscape:showpageshadow="2"
     inkscape:pageopacity="0.0"
     inkscape:pagecheckerboard="0"
     inkscape:deskcolor="#d1d1d1"
     showgrid="false"
     inkscape:zoom="5.9750523"
     inkscape:cx="-49.20459"
     inkscape:cy="-11.966422"
     inkscape:window-width="1920"
     inkscape:window-height="1048"
     inkscape:window-x="0"
     inkscape:window-y="32"
     inkscape:window-maximized="1"
     inkscape:current-layer="svg679" />
  <title
     id="title667">ionicons-v5-i</title>
  <path
     d="M 17.749699,16.371232 A 0.67923596,0.67923596 0 0 1 17.267158,16.17113 L 2.2488725,1.1528484 A 0.6826492,0.6826492 0 0 1 3.2139683,0.18775264 L 18.232249,15.206035 a 0.6826492,0.6826492 0 0 1 -0.48255,1.165197 z"
     id="path669"
     style="stroke-width:0.0426655" />
  <path
     d="m 10.226055,13.640635 c -1.7701939,0 -3.4772444,-0.523933 -5.0737896,-1.557294 C 3.698649,11.144699 2.3900958,9.8003072 1.3678283,8.2007742 v -0.0034 C 2.2185799,6.9783796 3.1503966,5.9475793 4.1513306,5.1164533 a 0.08533115,0.08533115 0 0 0 0.006,-0.1254362 L 3.3074318,4.1423984 A 0.08533115,0.08533115 0 0 0 3.1918084,4.1372784 C 2.128582,5.0332561 1.1417271,6.1323208 0.24447016,7.4191149 a 1.3618851,1.3618851 0 0 0 -0.027304,1.5163343 C 1.3439644,10.698817 2.7941672,12.184006 4.4103395,13.229739 c 1.8196865,1.17885 3.7780366,1.776168 5.8157435,1.776168 a 10.202619,10.202619 0 0 0 3.234055,-0.536733 0.08533115,0.08533115 0 0 0 0.03288,-0.141223 l -0.920729,-0.920723 a 0.1706623,0.1706623 0 0 0 -0.163409,-0.04266 8.7379096,8.7379096 0 0 1 -2.182772,0.276046 z"
     id="path671"
     style="stroke-width:0.0426655" />
  <path
     d="M 20.260142,7.4370604 C 19.131212,5.6911855 17.666508,4.20813 16.024732,3.1478908 14.208462,1.9737337 12.203178,1.3529497 10.226055,1.3529497 a 9.6995917,9.6995917 0 0 0 -3.1952251,0.5473996 0.08533115,0.08533115 0 0 0 -0.032,0.1412224 l 0.9194432,0.9194432 a 0.1706623,0.1706623 0 0 0 0.165542,0.042664 8.2267762,8.2267762 0 0 1 2.1422389,-0.2854329 c 1.736063,0 3.437995,0.5303332 5.058002,1.5786262 1.480928,0.9557086 2.804841,2.2988208 3.829668,3.882567 a 0.00554652,0.00554652 0 0 1 0,0.0068 13.257048,13.257048 0 0 1 -2.735722,3.1030668 0.08533115,0.08533115 0 0 0 -0.0064,0.125864 l 0.849044,0.848619 a 0.08533115,0.08533115 0 0 0 0.115199,0.0055 14.655199,14.655199 0 0 0 2.928569,-3.3483948 1.3738315,1.3738315 0 0 0 -0.004,-1.4839086 z"
     id="path673"
     style="stroke-width:0.0426655" />
  <path
     d="m 10.240561,4.0835467 a 4.0907753,4.0907753 0 0 0 -0.9117629,0.102397 0.08533115,0.08533115 0 0 0 -0.04266,0.1442097 L 14.08985,9.1325902 a 0.08533115,0.08533115 0 0 0 0.144216,-0.04266 4.0958952,4.0958952 0 0 0 -3.9935,-5.0063789 z"
     id="path675"
     style="stroke-width:0.0426655" />
  <path
     d="m 6.3912733,7.2262927 a 0.08533115,0.08533115 0 0 0 -0.1442097,0.042664 4.0958952,4.0958952 0 0 0 4.9065414,4.9065413 0.08533115,0.08533115 0 0 0 0.04266,-0.14421 z"
     id="path677"
     style="stroke-width:0.0426655" />
  <metadata
     id="metadata796">
    <rdf:RDF>
      <cc:Work
         rdf:about="">
        <dc:title>ionicons-v5-i</dc:title>
      </cc:Work>
    </rdf:RDF>
  </metadata>
</svg>
