<?xml version="1.0" encoding="utf-8"?><!-- Uploaded to: SVG Repo, www.svgrepo.com, Generator: SVG Repo Mixer Tools -->
<svg width="800px" height="800px" viewBox="0 0 24 24" fill="none" xmlns="http://www.w3.org/2000/svg">
<path d="M23 4C23 2.34315 21.6569 1 20 1H16C15.4477 1 15 1.44772 15 2C15 2.55228 15.4477 3 16 3H20C20.5523 3 21 3.44772 21 4V8C21 8.55228 21.4477 9 22 9C22.5523 9 23 8.55228 23 8V4Z" fill="#0F0F0F"/>
<path d="M23 16C23 15.4477 22.5523 15 22 15C21.4477 15 21 15.4477 21 16V20C21 20.5523 20.5523 21 20 21H16C15.4477 21 15 21.4477 15 22C15 22.5523 15.4477 23 16 23H20C21.6569 23 23 21.6569 23 20V16Z" fill="#0F0F0F"/>
<path d="M4 21H8C8.55228 21 9 21.4477 9 22C9 22.5523 8.55228 23 8 23H4C2.34315 23 1 21.6569 1 20V16C1 15.4477 1.44772 15 2 15C2.55228 15 3 15.4477 3 16V20C3 20.5523 3.44772 21 4 21Z" fill="#0F0F0F"/>
<path d="M1 8C1 8.55228 1.44772 9 2 9C2.55228 9 3 8.55228 3 8L3 4C3 3.44772 3.44772 3 4 3H8C8.55228 3 9 2.55228 9 2C9 1.44772 8.55228 1 8 1H4C2.34315 1 1 2.34315 1 4V8Z" fill="#0F0F0F"/>
</svg>