<?xml version="1.0" encoding="utf-8"?>

<!DOCTYPE svg PUBLIC "-//W3C//DTD SVG 1.1//EN" "http://www.w3.org/Graphics/SVG/1.1/DTD/svg11.dtd">
<!-- Uploaded to: SVG Repo, www.svgrepo.com, Generator: SVG Repo Mixer Tools -->
<svg version="1.1" id="_x32_" xmlns="http://www.w3.org/2000/svg" xmlns:xlink="http://www.w3.org/1999/xlink" 
	 width="800px" height="800px" viewBox="0 0 512 512"  xml:space="preserve">
<style type="text/css">
<![CDATA[
	.st0{fill:#000000;}
]]>
</style>
<g>
	<path class="st0" d="M274.179,250.036c-1.563-1.188-3.563-2.109-6.016-2.75s-5.422-0.953-8.891-0.953h-16.297v28.969h16.375
		c3.656,0,6.75-0.422,9.219-1.234s4.453-1.906,5.953-3.281c1.5-1.359,2.563-2.953,3.234-4.781c0.656-1.813,0.984-3.75,0.984-5.813
		c0-2.125-0.359-4.063-1.094-5.781C276.913,252.739,275.772,251.27,274.179,250.036z"/>
	<path class="st0" d="M269.241,217.77c3.484-2.281,5.219-5.906,5.219-10.859c0-5.156-1.563-8.828-4.703-11
		c-3.141-2.188-8.031-3.297-14.688-3.297h-12.656v28.578h11.531C260.663,221.192,265.757,220.051,269.241,217.77z"/>
	<path class="st0" d="M485.304,184.395c-28.297-5.25-48.703-18.906-72.391-36.531c5.156-31.578,29.156-53.203,12.359-69.984
		c-13.781-13.781-63.375-3.781-76.578,25.031c-7.5-4.516-15.484-9.078-24.141-13.609C235.6,42.708,129.631,72.551,83.6,146.895
		c-9.844-3.141-19.188-7.813-25.906-13.375c-0.266-0.219-0.516-0.453-0.781-0.672c4.375-1.063,8.469-2.781,12.141-5.016
		c6.313-3.844,11.469-9.109,14.781-15.344c2.172-4.156,3.531-8.797,3.531-13.656c0-1.531-0.141-3.063-0.406-4.594
		c-0.609-3.313-1.859-6.375-3.594-9.031c-1.719-2.641-3.906-4.875-6.344-6.688c-4.891-3.609-10.844-5.516-16.969-5.531
		c-5.594,0-11.406,1.656-16.422,5.281s-9.047,9.172-11.313,16.156c-1.531,4.688-2.328,9.984-2.344,15.969
		c0,0.219,0.016,0.453,0.016,0.688c-2.375-2.109-4.766-4.781-7.063-8.203c-2.656-3.922-5.188-8.813-7.438-14.797
		c-1.563-4.141-6.172-6.234-10.313-4.672c-4.125,1.563-6.219,6.172-4.656,10.297c3.953,10.484,8.875,18.781,14.547,25.078
		c5.672,6.313,12.141,10.609,18.797,12.969c0.563,0.203,1.141,0.344,1.703,0.516c0.328,0.547,0.656,1.109,1.016,1.641
		c3.547,5.406,8.234,10.031,13.531,14c7.578,5.641,16.438,9.984,25.656,13.219c-2.75,5.703-5.172,11.641-7.219,17.781
		c-14.984,44.703-10.75,96.719,13.859,139.531l59.734,119.062c2.297,4.609,7.016,7.5,12.156,7.5H190.1
		c7.516,0,13.609-6.094,13.609-13.609V385.02h113.594v46.375c0,7.516,6.094,13.609,13.609,13.609h34.25
		c5.938,0,11.172-3.828,12.984-9.469l22.969-72.062c22.844-12.844,50.391-42.875,63.875-50.344
		c9.484-5.25,36.281-20.734,36.281-20.734l9.5-75.172C515.101,194.77,508.257,188.676,485.304,184.395z M47.209,118.051
		c-0.156,0-0.313-0.016-0.469-0.016c-0.313-1.203-0.516-2.438-0.609-3.703c-0.094-1.375-0.141-2.703-0.141-3.938
		c0-5.109,0.766-9.047,1.891-11.984c1.125-2.953,2.563-4.938,4.094-6.328c1.031-0.922,2.125-1.609,3.25-2.109
		c1.516-0.656,3.156-0.984,4.828-0.984c2.031,0,4.109,0.516,5.844,1.406c1.75,0.891,3.141,2.141,4.063,3.547
		c0.609,0.938,1.031,1.969,1.25,3.172c0.094,0.547,0.156,1.125,0.156,1.719c0,1.406-0.297,2.938-0.938,4.563
		s-1.641,3.328-2.953,4.938c-2.609,3.266-6.516,6.188-10.938,7.906C53.584,117.411,50.428,118.051,47.209,118.051z M147.069,151.02
		c-7.641,6.344-16.563,17.594-23.531,31.281c-7.016,13.719-12.188,29.891-13.375,46.281c-0.438,6.016-5.672,10.547-11.688,10.094
		c-6.031-0.438-10.547-5.672-10.125-11.688c1.469-19.875,7.563-38.641,15.719-54.625c8.203-16,18.375-29.203,28.984-38.125
		c4.641-3.859,11.531-3.25,15.406,1.391C152.319,140.27,151.709,147.161,147.069,151.02z M188.928,118.629
		c-3.797,1.859-7.234,4.078-9.688,6.094c-4.672,3.828-11.547,3.156-15.391-1.5s-3.172-11.547,1.484-15.375
		c4.078-3.359,8.797-6.297,13.906-8.813c5.406-2.688,11.969-0.469,14.641,4.953S194.334,115.958,188.928,118.629z M312.054,275.645
		c-2.234,4.609-5.469,8.609-9.75,11.953c-4.25,3.344-7.891,5.953-14.141,7.859c-4.938,1.484-11.109,2.391-16.891,2.688v17.438
		h-15.594v-17.281h-14.125v17.281h-15.594v-17.281h-12.375h-16v-15.813c0-3.078-0.234-4.938,2.953-5.578
		c0.297-0.031,0.688-0.109,1.203-0.203c0.531-0.078,6.766-0.453,8.156-0.453c2.516,0,3.688-2.391,3.688-4.766v-76.891
		c0-2.906-1.547-4.016-3.688-4.328c-1.375-0.188-7.625-0.391-8.156-0.469c-0.516-0.094-0.922-0.156-1.203-0.203
		c-3.188-0.641-2.953-2.5-2.953-5.563v-14.156h16h12.375v-17.734h15.594v17.766l14.125,0.031v-17.797h15.594v18.063
		c8.422,0.703,18.813,3.359,25.969,8.906c4,3.094,7.109,6.531,9.031,10.734c1.906,4.203,2.859,8.953,2.859,14.219
		c0,3.016-0.484,5.891-1.438,8.656c-0.953,2.75-2.438,5.313-4.438,7.719s-8.703,9.172-14.719,11.516
		c18.313,3.172,26.859,13.484,26.859,28.594C315.397,265.989,314.288,271.036,312.054,275.645z M393.351,233.52
		c-9.391,0-17-7.625-17-17.016s7.609-17.016,17-17.016c9.406,0,17.016,7.625,17.016,17.016S402.757,233.52,393.351,233.52z"/>
</g>
</svg>