<svg width="106" height="100" viewBox="0 0 106 100" fill="none" xmlns="http://www.w3.org/2000/svg">
<path fill-rule="evenodd" clip-rule="evenodd" d="M79.11 1.52264C73.8346 3.89945 70.9939 8.53715 70.5881 15.3777C70.0664 24.5371 67.9794 27.6676 65.6026 22.914C56.9649 5.87048 27.2838 1.05889 24.2693 16.2473C23.9215 17.8705 23.8634 17.8705 20.0953 17.8705C3.5156 17.7545 -6.04939 50.3922 5.83467 66.5661C6.64626 67.6676 5.48684 71.5516 2.06655 79.1459C0.153509 83.3777 0.385336 84.0734 3.74766 85.5806C6.82012 86.9719 7.80568 85.5227 13.9506 70.4502C14.8781 68.1893 14.8781 65.6386 13.9506 63.3777C12.5593 60.0154 10.8781 56.3053 9.54476 53.8125C5.13896 45.1748 8.03757 33.0009 16.2695 25.6966C23.8057 19.0299 31.5158 24.5371 24.9071 31.8995C15.8056 41.9864 24.4432 54.2183 37.8345 50.2183C49.8345 46.6821 50.2983 29.9284 38.4722 26.74C32.2114 25.0589 29.5446 16.2473 34.2982 13.0589C46.1243 5.05889 60.849 21.4647 59.2838 40.9429C58.4722 51.0879 68.6752 46.4502 68.6752 39.4937C68.6752 37.6966 69.139 36.711 70.994 34.5661C74.9361 29.9864 76.7911 25.1748 77.6607 16.885C78.4723 9.23279 88.4433 2.85597 91.2839 8.18931C93.081 11.5516 90.2402 29.5226 87.0518 34.6821C84.5011 38.856 75.4576 49.1168 72.5591 51.0879C68.791 53.6386 69.197 55.8415 73.6608 56.5951C75.8637 56.9429 76.2115 56.827 80.3274 53.4067C90.5883 44.885 93.8347 40.7111 96.2695 32.7111C98.0086 27.0299 100.559 28.3053 100.617 34.2183C100.675 46.3343 87.9794 60.4792 75.8055 65.4647C72.907 66.6821 72.7331 68.0154 75.2258 69.8705C78.936 72.5951 85.5446 69.7546 93.1388 62.1603C97.8924 57.4067 98.1244 57.2908 97.6027 59.2038C94.7621 70.2183 85.6028 79.3198 73.9506 82.7401C66.2405 85.0009 59.0521 86.6241 53.6608 87.3197C52.9071 87.5516 48.3273 87.3777 44.5012 91.4357C38.878 97.4067 47.5158 102.16 50.4724 97.4067C52.6753 93.8125 53.3708 93.4647 57.6607 93.4067C61.8926 93.4067 62.1244 93.3488 74.1244 89.9864C84.3273 87.1459 90.3563 84.1893 94.7041 79.9575C103.864 70.9719 107.69 57.9864 102.936 51.7256C101.893 50.3343 101.892 50.2763 103.574 46.6241C106.994 39.3198 106.182 29.6966 101.661 24.2473C100.037 22.2763 99.9216 21.7545 99.7477 17.0009C99.5158 5.75453 88.3274 -2.65127 79.11 1.52264ZM37.5446 30.2763C42.3562 32.7111 39.5158 45.2908 33.8926 46.6821C31.9216 47.2038 23.1678 42.6821 30.0084 33.2328C33.1388 28.885 34.0664 28.4792 37.5446 30.2763Z" fill="black"/>
</svg>
