<?xml version="1.0" encoding="iso-8859-1"?>
<!-- Generator: Adobe Illustrator 19.0.0, SVG Export Plug-In . SVG Version: 6.00 Build 0)  -->
<svg version="1.1" id="Layer_1" xmlns="http://www.w3.org/2000/svg" xmlns:xlink="http://www.w3.org/1999/xlink" x="0px" y="0px"
	 viewBox="0 0 489.075 489.075" style="enable-background:new 0 0 489.075 489.075;" xml:space="preserve">
<g>
	<path d="M482.453,220.775l-115.5-111.2v-88.5c0-11.4-9.4-20.8-20.8-20.8s-20.8,9.4-20.8,20.8v48.5l-66.6-64.1
		c-7.3-7.3-19.8-7.3-28.1,0l-223.6,215.3c-8.3,8.3-9.4,20.8-1,29.1c8.4,8.3,20.8,9.4,29.1,1l3.1-3v220.4c0,11.4,9.4,20.8,20.8,20.8
		h372.4c11.4,0,19.8-9.4,20.8-19.8v-219.3l2.1,2c15.2,10.5,26,3.1,29.1-2.1C490.753,241.575,490.753,228.075,482.453,220.775z
		 M281.653,448.575h-72.8v-111.3h72.8V448.575z M410.653,448.575h-88.4v-132.1c0-11.4-9.4-20.8-20.8-20.8h-113.4
		c-11.4,0-20.8,9.4-20.8,20.8v132.1h-87.4v-203.9h330.8V448.575L410.653,448.575z M83.853,204.175l161.4-155l159.8,155H83.853z"/>
</g>
<g>
</g>
<g>
</g>
<g>
</g>
<g>
</g>
<g>
</g>
<g>
</g>
<g>
</g>
<g>
</g>
<g>
</g>
<g>
</g>
<g>
</g>
<g>
</g>
<g>
</g>
<g>
</g>
<g>
</g>
</svg>
