<?xml version="1.0" standalone="no"?>
<!DOCTYPE svg PUBLIC "-//W3C//DTD SVG 20010904//EN"
 "http://www.w3.org/TR/2001/REC-SVG-20010904/DTD/svg10.dtd">
<svg version="1.0" xmlns="http://www.w3.org/2000/svg"
 width="790.000000pt" height="778.000000pt" viewBox="0 0 790.000000 778.000000"
 preserveAspectRatio="xMidYMid meet">

<g transform="translate(0.000000,778.000000) scale(0.100000,-0.100000)"
fill="#000000" stroke="none">
<path d="M3743 7714 c-6 -17 20 -44 43 -44 20 0 44 29 38 45 -9 21 -73 20 -81
-1z"/>
<path d="M3852 7723 c-16 -6 3 -33 23 -33 6 0 20 -9 31 -21 10 -11 33 -27 51
-34 23 -10 31 -19 27 -29 -3 -9 -1 -16 5 -16 7 0 14 7 17 15 8 21 43 19 79 -5
17 -11 41 -20 53 -20 13 0 37 -8 53 -17 33 -20 49 -11 30 18 -14 24 -14 24 15
33 13 4 30 -1 46 -14 67 -52 112 -40 106 29 l-3 36 -80 -3 c-52 -2 -95 -10
-122 -23 -56 -25 -69 -24 -95 7 -19 21 -29 24 -55 19 -28 -5 -38 -1 -68 30
-35 34 -74 44 -113 28z"/>
<path d="M4148 7722 c-22 -4 -23 -16 -2 -36 17 -18 69 -21 79 -6 15 24 -35 51
-77 42z"/>
<path d="M3546 7710 c-17 -6 -15 -9 16 -33 35 -27 72 -34 97 -18 19 12 5 31
-24 31 -13 0 -26 4 -29 9 -8 13 -39 19 -60 11z"/>
<path d="M3405 7690 c-8 -12 17 -23 41 -18 10 1 19 9 22 16 5 15 -54 17 -63 2z"/>
<path d="M4448 7664 c-42 -18 -46 -25 -23 -44 12 -10 28 -9 83 4 37 9 79 16
94 16 15 0 29 4 32 9 16 26 -133 38 -186 15z"/>
<path d="M3640 7639 c-98 -46 -115 -57 -115 -71 0 -8 12 -13 33 -13 19 0 32
-5 32 -12 0 -7 11 -15 25 -19 14 -3 33 -16 43 -28 25 -32 41 -39 57 -26 21 18
18 29 -10 40 -14 5 -25 14 -25 20 0 6 -15 19 -32 30 l-33 20 33 0 c43 0 89 24
97 51 8 23 7 24 -20 33 -12 3 -45 -6 -85 -25z"/>
<path d="M3218 7649 c-21 -12 -24 -38 -5 -40 43 -4 77 12 77 37 0 16 -46 18
-72 3z"/>
<path d="M3404 7639 c-4 -7 -7 -26 -8 -43 l-1 -31 -93 -1 c-51 -1 -95 -4 -99
-7 -3 -3 -3 -13 1 -22 5 -13 14 -15 46 -10 29 5 55 1 97 -15 54 -20 93 -21
156 -4 22 7 22 30 -1 36 -11 3 -24 24 -34 54 -15 50 -47 71 -64 43z"/>
<path d="M3080 7621 c-6 -12 -12 -45 -13 -73 -2 -51 -1 -53 26 -56 53 -6 73
35 41 83 -8 13 -14 31 -12 41 4 26 -28 29 -42 5z"/>
<path d="M4748 7609 c25 -23 41 -29 65 -27 70 7 7 55 -73 57 -25 0 -25 0 8
-30z"/>
<path d="M4576 7617 c-20 -14 -12 -47 11 -47 42 0 70 41 37 54 -22 8 -28 8
-48 -7z"/>
<path d="M3778 7609 c-28 -16 -22 -54 9 -68 40 -19 119 -26 127 -12 10 15 -73
90 -99 90 -11 0 -28 -4 -37 -10z"/>
<path d="M4693 7583 c-18 -6 -16 -40 2 -47 20 -7 45 3 45 20 0 16 -30 33 -47
27z"/>
<path d="M2855 7570 c-9 -15 6 -31 50 -54 41 -23 68 -14 73 23 3 15 -4 24 -23
31 -34 13 -92 13 -100 0z"/>
<path d="M4070 7557 c-29 -15 -39 -54 -16 -63 30 -12 66 5 66 30 0 34 -20 48
-50 33z"/>
<path d="M5005 7544 c4 -16 9 -35 11 -43 2 -7 -1 -20 -8 -28 -10 -12 -14 -11
-29 9 -14 17 -21 20 -29 12 -17 -17 -2 -54 20 -54 11 0 23 -6 27 -14 4 -7 27
-23 51 -35 23 -12 42 -25 42 -30 0 -5 3 -16 6 -24 3 -10 -2 -18 -16 -22 -12
-4 -25 -18 -30 -31 -5 -13 -14 -24 -20 -24 -22 0 -9 -41 16 -51 24 -8 31 -6
58 24 30 33 34 34 126 40 83 5 99 4 128 -13 44 -27 76 -27 69 -1 -3 12 1 22 9
25 19 7 18 45 -2 53 -14 5 -12 8 7 19 13 7 37 13 54 14 28 0 28 1 10 14 -12 8
-47 14 -89 14 -55 0 -72 5 -90 21 -17 16 -36 21 -77 21 -30 0 -61 5 -69 10
-13 9 -11 13 10 29 14 11 23 22 20 24 -3 3 -45 17 -95 32 -49 15 -96 30 -103
33 -10 3 -11 -3 -7 -24z m141 -104 c20 -51 44 -64 99 -56 34 6 50 2 76 -14 19
-11 47 -20 64 -20 29 0 29 0 10 -18 -17 -15 -34 -17 -130 -12 -106 5 -110 6
-113 28 -2 14 -17 32 -38 44 -36 21 -45 53 -22 76 21 21 38 13 54 -28z"/>
<path d="M4490 7554 c-72 -12 -74 -14 -57 -32 13 -12 36 -16 94 -16 77 -1 78
-1 78 24 0 23 -4 25 -45 26 -25 1 -56 0 -70 -2z"/>
<path d="M4884 7548 c-9 -14 23 -38 53 -38 28 0 31 25 4 40 -26 13 -48 13 -57
-2z"/>
<path d="M4754 7525 c-10 -25 23 -64 60 -71 19 -3 37 -12 40 -20 7 -17 42 -19
52 -2 4 7 0 16 -12 22 -10 6 -35 28 -54 49 -37 39 -76 49 -86 22z"/>
<path d="M2628 7501 c-57 -20 -64 -26 -48 -46 9 -11 22 -14 45 -9 18 3 42 1
54 -5 17 -9 24 -8 41 9 25 25 18 40 -16 40 -14 0 -23 4 -19 9 10 18 -10 18
-57 2z"/>
<path d="M4664 7505 c-10 -25 4 -45 31 -45 30 0 43 24 25 45 -16 19 -49 19
-56 0z"/>
<path d="M3852 7479 c-61 -45 -53 -78 13 -56 39 13 65 36 65 57 0 14 -18 30
-34 30 -1 0 -21 -14 -44 -31z"/>
<path d="M2793 7484 c-7 -18 11 -39 26 -30 17 11 13 46 -4 46 -9 0 -18 -7 -22
-16z"/>
<path d="M2960 7493 c-24 -9 -50 -35 -44 -44 9 -16 71 -9 94 9 37 30 2 54 -50
35z"/>
<path d="M3153 7490 c-44 -18 -22 -44 35 -42 36 2 82 25 82 42 0 12 -87 12
-117 0z"/>
<path d="M4207 7493 c-14 -14 -6 -33 21 -46 62 -32 122 -27 109 7 -12 30 -110
59 -130 39z"/>
<path d="M3561 7477 c-16 -16 -14 -23 12 -34 28 -13 52 -2 44 20 -7 19 -42 28
-56 14z"/>
<path d="M4551 7477 c-9 -12 -8 -18 4 -31 9 -9 20 -16 25 -16 14 0 41 32 37
44 -5 17 -52 19 -66 3z"/>
<path d="M4007 7473 c-4 -3 -7 -15 -7 -26 0 -11 -8 -29 -17 -39 -20 -23 -6
-41 28 -36 17 2 25 11 27 28 2 13 11 29 20 36 21 16 8 44 -21 44 -13 0 -27 -3
-30 -7z"/>
<path d="M4427 7443 c-8 -14 11 -51 32 -62 50 -27 79 4 41 45 -22 23 -64 33
-73 17z"/>
<path d="M3332 7430 c-24 -10 -46 -55 -38 -77 8 -20 34 -16 69 11 18 14 45 29
60 35 16 6 27 17 25 24 -5 15 -84 20 -116 7z"/>
<path d="M4653 7429 c-32 -12 -28 -36 8 -54 36 -19 83 -16 87 5 7 37 -51 67
-95 49z"/>
<path d="M2742 7419 c-41 -16 -24 -44 28 -47 51 -3 87 16 77 42 -7 18 -66 21
-105 5z"/>
<path d="M2971 7412 c-7 -14 -7 -24 3 -37 13 -18 14 -18 41 3 25 20 29 20 56
7 36 -19 58 -19 66 1 9 24 -6 31 -84 38 -64 6 -73 5 -82 -12z"/>
<path d="M2548 7406 c-16 -8 -34 -18 -40 -23 -7 -4 -33 -8 -58 -8 -41 0 -45
-2 -54 -33 -5 -20 -20 -39 -36 -47 -15 -8 -30 -25 -34 -38 -3 -13 -18 -29 -33
-36 -14 -7 -44 -32 -66 -57 -45 -51 -81 -59 -91 -20 -3 14 -15 28 -27 31 -34
11 -15 30 32 30 55 1 63 6 90 55 13 23 32 41 47 45 39 10 111 65 105 81 -4 11
-14 10 -55 -6 -28 -10 -58 -26 -67 -34 -9 -8 -29 -18 -44 -22 -16 -3 -33 -17
-40 -31 -14 -31 -75 -63 -120 -63 -19 0 -40 -7 -47 -15 -7 -8 -18 -15 -25 -15
-7 0 -18 -7 -25 -15 -10 -12 -7 -16 15 -25 l28 -11 -27 -28 c-30 -31 -21 -50
13 -31 27 14 141 13 141 -1 0 -6 -20 -32 -44 -58 -102 -107 -121 -132 -105
-142 8 -5 16 -9 19 -9 3 0 44 38 92 83 52 51 88 93 90 108 2 19 13 27 49 39
58 19 75 33 89 74 7 23 22 39 48 52 20 10 61 36 89 57 39 29 66 41 104 46 51
6 51 6 55 44 3 33 0 37 -19 37 -12 0 -34 -7 -49 -14z"/>
<path d="M3470 7397 c0 -34 77 -62 87 -32 6 19 -14 36 -50 42 -30 4 -37 2 -37
-10z"/>
<path d="M3779 7398 c-1 -7 -1 -16 0 -20 0 -5 -8 -8 -18 -8 -10 0 -21 -6 -24
-14 -8 -20 17 -38 45 -34 20 3 23 9 25 46 1 30 -3 42 -13 42 -8 0 -15 -6 -15
-12z"/>
<path d="M4835 7400 c-3 -6 1 -13 10 -16 19 -8 30 0 20 15 -8 14 -22 14 -30 1z"/>
<path d="M4228 7378 c-36 -13 -37 -45 -3 -54 33 -8 74 3 82 22 11 30 -35 48
-79 32z"/>
<path d="M3163 7344 c-11 -29 66 -69 89 -46 8 8 8 18 0 37 -9 20 -19 25 -47
25 -24 0 -38 -5 -42 -16z"/>
<path d="M4392 7348 c-18 -18 -15 -25 19 -37 37 -13 79 -5 79 15 0 29 -74 46
-98 22z"/>
<path d="M2861 7319 c-16 -45 -14 -59 7 -59 47 0 71 82 26 88 -17 2 -24 -5
-33 -29z"/>
<path d="M4811 7334 c-13 -10 -13 -14 -1 -29 10 -12 22 -15 44 -10 17 3 50 9
74 12 33 4 42 9 40 22 -3 13 -16 16 -72 16 -38 0 -76 -5 -85 -11z"/>
<path d="M2607 7323 c-4 -3 -7 -16 -7 -29 0 -15 -12 -29 -35 -43 -37 -22 -44
-38 -20 -47 26 -10 61 5 73 31 7 14 23 30 37 37 31 14 33 44 3 52 -30 8 -43 7
-51 -1z"/>
<path d="M3565 7320 c-10 -17 20 -44 40 -36 9 3 15 14 13 23 -4 21 -43 30 -53
13z"/>
<path d="M4112 7318 c6 -18 28 -21 28 -4 0 9 -7 16 -16 16 -9 0 -14 -5 -12
-12z"/>
<path d="M5600 7321 c0 -35 140 -116 155 -91 10 17 -4 29 -75 65 -76 38 -80
40 -80 26z"/>
<path d="M3023 7303 c-23 -9 -14 -33 12 -33 18 0 25 5 25 20 0 19 -12 24 -37
13z"/>
<path d="M3406 7284 c-4 -9 -1 -23 6 -31 10 -12 9 -17 -5 -24 -25 -15 -21 -39
7 -39 26 0 51 23 42 39 -4 5 -2 12 4 16 16 10 12 42 -6 49 -26 10 -42 7 -48
-10z"/>
<path d="M3867 7293 c-13 -12 -7 -31 11 -35 26 -7 42 2 42 23 0 13 -7 19 -23
19 -13 0 -27 -3 -30 -7z"/>
<path d="M4670 7286 c0 -13 20 -26 41 -26 5 0 9 9 9 20 0 15 -7 20 -25 20 -15
0 -25 -6 -25 -14z"/>
<path d="M4553 7284 c-7 -3 -13 -15 -13 -25 0 -17 6 -20 33 -17 24 2 32 8 32
23 0 20 -27 29 -52 19z"/>
<path d="M4011 7271 c-21 -13 -5 -41 23 -41 33 0 44 20 21 37 -22 15 -25 16
-44 4z"/>
<path d="M4315 7272 c-29 -6 -41 -20 -28 -33 15 -15 63 -3 63 16 0 18 -10 23
-35 17z"/>
<path d="M5451 7266 c-9 -11 -8 -18 4 -30 20 -20 39 -20 54 -2 9 11 8 18 -4
30 -20 20 -39 20 -54 2z"/>
<path d="M3603 7254 c-8 -23 12 -38 41 -30 39 10 36 46 -4 46 -19 0 -33 -6
-37 -16z"/>
<path d="M2663 7238 c-25 -27 -8 -35 72 -33 54 1 79 5 86 16 17 26 3 33 -70
34 -56 0 -76 -4 -88 -17z"/>
<path d="M4724 7235 c-8 -20 13 -45 38 -45 24 0 34 26 18 45 -16 19 -49 19
-56 0z"/>
<path d="M4394 7228 c-8 -12 30 -48 52 -48 20 0 26 17 14 40 -12 22 -54 27
-66 8z"/>
<path d="M5581 7231 c-12 -8 -12 -12 -2 -25 24 -28 56 -13 44 22 -5 14 -22 15
-42 3z"/>
<path d="M3876 7222 c-24 -23 24 -63 50 -41 10 8 11 15 4 24 -12 15 -46 25
-54 17z"/>
<path d="M5269 7213 c-16 -18 -61 -42 -79 -41 -37 2 -50 -3 -50 -22 0 -33 32
-42 70 -19 27 17 38 19 57 10 12 -6 23 -17 23 -24 0 -16 45 -59 79 -77 19 -10
25 -9 32 1 11 19 -17 66 -49 83 -37 19 -56 42 -42 51 17 11 11 42 -10 48 -10
3 -25 -2 -31 -10z"/>
<path d="M3067 7213 c-4 -3 -7 -14 -7 -24 0 -29 -36 -43 -72 -28 -26 11 -32
10 -50 -8 -27 -27 -15 -47 23 -39 16 3 40 1 54 -4 14 -5 31 -7 38 -5 11 5 57
92 57 109 0 8 -35 8 -43 -1z"/>
<path d="M3713 7213 c-7 -2 -13 -11 -13 -19 0 -22 54 -14 58 9 3 17 -17 22
-45 10z"/>
<path d="M5800 7209 c0 -16 31 -38 53 -39 24 0 21 16 -5 34 -26 19 -48 21 -48
5z"/>
<path d="M5691 7196 c-10 -12 -8 -18 14 -32 32 -21 57 -5 39 24 -15 23 -38 26
-53 8z"/>
<path d="M2780 7171 c-13 -25 1 -35 36 -27 15 4 24 14 24 26 0 27 -45 27 -60
1z"/>
<path d="M4912 7173 c2 -11 14 -19 31 -21 23 -3 28 0 25 15 -2 11 -14 19 -31
21 -23 3 -28 0 -25 -15z"/>
<path d="M2366 7165 c-21 -21 -20 -26 9 -54 34 -31 52 -22 51 26 -1 30 -6 39
-23 41 -11 2 -28 -4 -37 -13z"/>
<path d="M4727 7174 c-16 -17 -6 -44 19 -50 33 -8 53 10 38 34 -12 18 -45 28
-57 16z"/>
<path d="M5007 7174 c-12 -12 12 -42 39 -48 37 -10 52 8 29 34 -17 19 -55 27
-68 14z"/>
<path d="M4854 7155 c-8 -20 4 -35 26 -35 23 0 32 13 24 34 -8 20 -43 21 -50
1z"/>
<path d="M5514 7155 c-10 -8 -29 -15 -41 -15 -15 0 -23 -6 -23 -18 0 -14 13
-21 57 -30 65 -13 83 -5 83 38 0 40 -39 53 -76 25z"/>
<path d="M2480 7140 c-23 -15 1 -44 39 -48 42 -4 64 13 50 39 -11 21 -63 26
-89 9z"/>
<path d="M3200 7135 c-15 -19 -5 -35 24 -35 25 0 46 17 46 37 0 18 -55 17 -70
-2z"/>
<path d="M5703 7134 c-23 -10 -14 -52 14 -74 26 -20 28 -20 40 -4 7 10 13 23
13 30 0 6 9 14 20 17 30 8 24 27 -7 27 -16 0 -37 2 -48 5 -11 2 -26 2 -32 -1z"/>
<path d="M1860 7115 c-27 -33 24 -49 53 -17 10 10 17 22 17 25 0 13 -58 7 -70
-8z"/>
<path d="M4603 7123 c-34 -13 6 -63 50 -63 20 0 27 5 27 19 0 29 -47 56 -77
44z"/>
<path d="M5887 7123 c-14 -13 -6 -54 13 -73 25 -25 47 -26 55 0 13 41 -42 100
-68 73z"/>
<path d="M3631 7111 c-21 -13 -5 -41 22 -41 27 0 52 24 42 40 -8 12 -45 13
-64 1z"/>
<path d="M3995 7111 c-8 -15 35 -35 47 -23 6 6 7 15 4 21 -9 14 -43 14 -51 2z"/>
<path d="M5033 7113 c-21 -7 -15 -33 10 -42 27 -11 37 -6 37 18 0 19 -25 31
-47 24z"/>
<path d="M2690 7093 c-39 -20 -42 -39 -5 -36 32 2 79 25 80 38 0 17 -39 16
-75 -2z"/>
<path d="M3407 7104 c-19 -19 -6 -35 26 -32 39 4 45 32 7 36 -14 2 -29 0 -33
-4z"/>
<path d="M4273 7094 c-3 -8 2 -23 11 -32 15 -15 17 -15 33 0 13 14 14 20 3 32
-16 20 -39 20 -47 0z"/>
<path d="M4405 7100 c-9 -15 3 -30 24 -30 25 0 33 11 20 27 -13 15 -35 17 -44
3z"/>
<path d="M6002 7093 c2 -10 11 -19 21 -21 24 -5 21 15 -4 28 -18 10 -20 9 -17
-7z"/>
<path d="M2356 7051 c-19 -20 -14 -41 8 -41 16 0 46 32 46 48 0 19 -35 14 -54
-7z"/>
<path d="M1955 7050 c-11 -5 -46 -9 -78 -9 -32 -1 -68 -6 -80 -13 -12 -7 -40
-14 -62 -17 -35 -5 -40 -10 -43 -33 -4 -33 20 -38 57 -12 17 12 36 15 71 11
33 -4 54 -1 66 8 11 8 35 15 55 15 39 0 59 14 59 42 0 19 -13 22 -45 8z"/>
<path d="M3973 7043 c-20 -7 -15 -31 7 -38 23 -7 40 1 40 20 0 10 -25 28 -33
24 -1 0 -8 -3 -14 -6z"/>
<path d="M2198 7029 c-22 -12 -24 -49 -3 -49 8 0 24 9 35 20 32 32 8 53 -32
29z"/>
<path d="M3412 7028 c-20 -20 -14 -30 15 -26 32 4 46 38 16 38 -11 0 -24 -5
-31 -12z"/>
<path d="M5857 7024 c-12 -12 13 -42 44 -53 56 -19 68 8 17 39 -34 21 -50 24
-61 14z"/>
<path d="M6100 7022 c0 -15 24 -32 45 -32 19 1 19 1 -4 20 -24 21 -41 26 -41
12z"/>
<path d="M3460 6995 c-10 -12 -8 -16 11 -24 28 -10 44 1 36 23 -8 20 -31 21
-47 1z"/>
<path d="M6048 6994 c-48 -20 -61 -73 -22 -88 23 -9 42 4 49 32 3 14 13 31 22
37 9 7 13 17 9 23 -9 15 -12 15 -58 -4z"/>
<path d="M2614 6985 c-9 -22 9 -37 37 -33 16 2 24 10 24 23 0 26 -52 35 -61
10z"/>
<path d="M4420 6986 c0 -18 27 -29 36 -14 4 5 0 14 -7 19 -20 13 -29 11 -29
-5z"/>
<path d="M5177 6993 c-16 -15 -6 -33 18 -33 28 0 34 24 9 34 -19 7 -19 7 -27
-1z"/>
<path d="M1927 6983 c-14 -13 -7 -33 11 -33 19 0 42 18 42 32 0 10 -44 11 -53
1z"/>
<path d="M3057 6976 c-9 -22 21 -42 41 -29 10 5 17 16 17 24 0 19 -51 24 -58
5z"/>
<path d="M5575 6980 c-9 -15 3 -30 25 -30 18 0 34 23 23 34 -10 10 -41 7 -48
-4z"/>
<path d="M5705 6980 c-12 -4 -27 -15 -34 -24 -12 -14 -11 -19 4 -36 24 -26 35
-25 73 6 41 34 43 64 5 63 -16 0 -37 -4 -48 -9z"/>
<path d="M2222 6964 c-12 -8 -22 -24 -22 -34 0 -10 -9 -21 -19 -25 -25 -8 -35
-34 -16 -41 23 -9 45 3 45 24 0 12 12 24 30 32 27 11 50 36 50 54 0 12 -46 5
-68 -10z"/>
<path d="M4475 6960 c-10 -16 14 -40 40 -40 23 0 40 24 29 41 -7 12 -61 11
-69 -1z"/>
<path d="M4977 6963 c-16 -16 -5 -33 21 -33 35 0 45 9 31 27 -12 14 -41 18
-52 6z"/>
<path d="M5412 6954 c-26 -18 -29 -42 -6 -51 21 -8 79 47 62 59 -19 11 -31 10
-56 -8z"/>
<path d="M1622 6948 c-24 -12 -27 -48 -5 -55 15 -5 53 32 53 52 0 17 -16 18
-48 3z"/>
<path d="M1768 6943 c-34 -9 -32 -63 3 -63 25 0 52 40 37 57 -11 13 -12 14
-40 6z"/>
<path d="M3580 6925 c-11 -13 -10 -19 5 -35 21 -23 60 -26 68 -6 13 33 -50 69
-73 41z"/>
<path d="M4680 6925 c0 -22 42 -36 59 -20 19 18 5 35 -30 35 -19 0 -29 -5 -29
-15z"/>
<path d="M5861 6931 c-12 -7 -10 -15 7 -43 26 -42 67 -67 83 -51 17 17 -70
107 -90 94z"/>
<path d="M6177 6933 c-17 -17 -5 -44 27 -60 40 -18 66 -12 66 16 0 34 -70 67
-93 44z"/>
<path d="M2302 6914 c-30 -21 -28 -34 7 -34 26 0 41 14 41 41 0 14 -23 11 -48
-7z"/>
<path d="M5534 6918 c-9 -14 31 -48 57 -48 28 0 36 30 14 46 -23 17 -61 18
-71 2z"/>
<path d="M5295 6907 c-23 -17 -12 -37 21 -37 28 0 44 28 23 41 -19 12 -22 11
-44 -4z"/>
<path d="M1513 6877 c-40 -30 -59 -55 -49 -64 2 -2 29 -3 60 -1 l56 3 -14 27
c-8 15 -12 36 -9 48 7 26 6 26 -44 -13z"/>
<path d="M2864 6895 c-9 -22 9 -37 37 -33 16 2 24 10 24 23 0 26 -52 35 -61
10z"/>
<path d="M1802 6874 c-41 -29 -24 -64 32 -64 31 0 76 36 76 61 0 16 -7 19 -43
19 -23 0 -53 -7 -65 -16z"/>
<path d="M5160 6880 c-12 -8 -12 -10 3 -16 21 -8 35 2 21 16 -5 5 -15 6 -24 0z"/>
<path d="M1626 6858 c-9 -12 -16 -28 -16 -35 0 -7 -13 -22 -30 -35 -37 -27
-40 -58 -5 -58 14 0 29 8 35 20 18 33 46 43 85 29 30 -11 37 -10 55 6 27 24
25 33 -7 47 -16 7 -36 20 -46 30 -24 24 -53 23 -71 -4z"/>
<path d="M6114 6868 c-8 -13 30 -48 52 -48 9 0 14 -12 14 -36 0 -47 13 -70 50
-82 21 -8 34 -22 46 -51 18 -45 34 -55 59 -37 14 10 25 8 61 -10 23 -12 55
-31 70 -43 32 -25 47 -26 64 -6 19 22 -3 42 -65 61 -30 8 -59 21 -65 29 -15
18 -42 19 -57 4 -8 -8 -16 -4 -29 16 -27 42 -10 78 44 89 46 10 53 26 26 61
-12 16 -18 18 -34 7 -11 -6 -30 -12 -44 -12 -18 0 -25 -7 -29 -30 -9 -40 -30
-38 -50 5 -9 19 -21 35 -27 35 -5 0 -10 11 -10 24 0 33 -59 52 -76 24z"/>
<path d="M5045 6856 c-27 -19 -12 -48 22 -44 33 4 42 32 15 47 -14 7 -24 7
-37 -3z"/>
<path d="M5996 6861 c-10 -15 3 -35 37 -58 39 -27 87 -31 87 -7 0 41 -105 96
-124 65z"/>
<path d="M5781 6846 c-10 -11 -7 -17 11 -30 43 -30 73 -11 38 24 -24 24 -33
25 -49 6z"/>
<path d="M2566 6835 c-29 -29 11 -95 57 -95 27 0 28 31 2 62 -14 16 -25 34
-25 39 0 14 -17 11 -34 -6z"/>
<path d="M4461 6836 c-14 -17 11 -41 34 -32 20 7 19 32 -1 40 -21 8 -20 8 -33
-8z"/>
<path d="M2153 6833 c-17 -6 -17 -43 0 -43 8 0 21 8 30 18 24 26 6 40 -30 25z"/>
<path d="M1984 6795 c-8 -21 2 -45 19 -45 20 0 40 27 33 45 -7 19 -45 20 -52
0z"/>
<path d="M2371 6801 c-9 -6 -11 -18 -7 -36 5 -21 12 -26 34 -23 23 2 27 8 27
33 0 22 -5 31 -20 33 -11 1 -26 -2 -34 -7z"/>
<path d="M3045 6799 c-4 -5 0 -18 9 -27 9 -11 13 -27 9 -41 -5 -19 -2 -22 13
-19 13 2 20 13 22 33 2 17 8 35 13 41 5 6 6 14 2 17 -10 11 -61 8 -68 -4z"/>
<path d="M1400 6773 c-24 -31 -23 -71 3 -87 13 -9 26 -6 54 9 46 24 54 51 20
64 -13 5 -27 17 -30 25 -9 23 -23 20 -47 -11z"/>
<path d="M1914 6789 c-3 -6 -1 -16 5 -22 13 -13 42 0 49 21 5 15 -44 16 -54 1z"/>
<path d="M5125 6790 c-8 -13 13 -40 30 -40 15 0 24 19 18 38 -6 15 -39 16 -48
2z"/>
<path d="M5627 6793 c-15 -14 -5 -43 24 -72 30 -30 72 -41 84 -22 3 5 21 7 40
4 21 -3 35 -1 35 5 0 14 -25 22 -67 22 -28 0 -42 8 -67 35 -34 37 -38 39 -49
28z"/>
<path d="M2474 6765 c-8 -21 4 -35 30 -35 27 0 51 24 41 40 -9 15 -65 12 -71
-5z"/>
<path d="M6420 6770 c0 -5 14 -19 30 -32 35 -25 38 -44 10 -53 -11 -3 -20 -11
-20 -16 0 -15 39 -49 55 -49 9 0 22 15 30 33 14 32 13 33 -33 80 -44 44 -72
59 -72 37z"/>
<path d="M2062 6758 c-16 -16 -15 -35 3 -41 19 -8 60 26 51 41 -9 15 -39 15
-54 0z"/>
<path d="M1663 6730 c-66 -40 -24 -68 52 -36 24 10 35 22 35 35 0 28 -43 28
-87 1z"/>
<path d="M5930 6731 c0 -6 10 -17 22 -25 25 -18 44 -7 35 18 -7 17 -57 23 -57
7z"/>
<path d="M1852 6688 c-19 -19 -15 -48 8 -48 18 0 40 26 40 49 0 15 -33 14 -48
-1z"/>
<path d="M3134 6685 c-9 -22 9 -37 37 -33 16 2 24 10 24 23 0 26 -52 35 -61
10z"/>
<path d="M4647 6693 c-14 -13 -7 -32 14 -38 13 -5 25 -2 30 6 14 23 -25 52
-44 32z"/>
<path d="M6043 6690 c-14 -6 -21 -15 -17 -24 7 -18 103 -56 141 -56 24 0 25 1
11 22 -33 49 -94 75 -135 58z"/>
<path d="M1288 6657 c-47 -20 -57 -37 -39 -65 19 -30 111 26 111 68 0 24 -11
24 -72 -3z"/>
<path d="M1485 6637 c-17 -17 -45 -44 -64 -59 -57 -48 -16 -65 63 -26 48 23
69 59 59 97 -7 29 -23 26 -58 -12z"/>
<path d="M5395 6660 c-10 -16 15 -41 39 -38 32 5 28 42 -6 46 -14 2 -29 -2
-33 -8z"/>
<path d="M1714 6636 c-18 -14 -18 -15 -1 -22 22 -8 46 11 31 26 -7 7 -17 5
-30 -4z"/>
<path d="M2012 6627 c-26 -27 -28 -43 -7 -51 17 -6 75 39 75 60 0 22 -44 16
-68 -9z"/>
<path d="M6600 6613 c0 -5 7 -18 15 -31 13 -18 14 -21 1 -16 -23 9 -27 -12 -8
-37 21 -24 47 -18 38 10 -4 9 3 5 14 -9 15 -19 19 -34 14 -65 -4 -33 -1 -46
20 -74 14 -19 29 -50 32 -69 7 -38 46 -64 66 -44 9 9 5 19 -15 40 -16 16 -27
39 -27 55 0 15 -7 44 -15 64 -8 19 -15 44 -15 54 0 11 -19 40 -42 65 -42 46
-78 72 -78 57z"/>
<path d="M5576 6591 c-10 -15 4 -39 24 -44 22 -6 30 0 30 24 0 24 -42 39 -54
20z"/>
<path d="M1284 6571 c-22 -10 -50 -34 -64 -53 -24 -37 -70 -58 -123 -58 -25 0
-61 -35 -52 -50 3 -4 25 -11 49 -14 52 -8 88 10 112 55 8 16 21 29 28 29 7 0
19 7 26 15 7 8 21 15 31 15 22 0 59 34 59 54 0 23 -24 25 -66 7z"/>
<path d="M1532 6568 c-17 -17 -15 -37 3 -45 18 -6 55 23 55 44 0 16 -42 17
-58 1z"/>
<path d="M2181 6562 c-12 -22 3 -42 31 -42 19 0 38 28 31 48 -7 19 -51 14 -62
-6z"/>
<path d="M4913 6563 c-7 -3 -13 -14 -13 -24 0 -16 6 -20 27 -17 16 2 29 10 31
19 3 17 -23 29 -45 22z"/>
<path d="M6274 6556 c-7 -19 12 -46 33 -46 21 0 13 54 -10 58 -9 2 -20 -4 -23
-12z"/>
<path d="M6370 6561 c0 -11 39 -41 53 -41 5 0 7 10 5 23 -2 16 -11 23 -30 25
-16 2 -28 -1 -28 -7z"/>
<path d="M6180 6550 c-13 -8 -12 -11 5 -24 25 -19 40 -15 40 10 0 21 -23 29
-45 14z"/>
<path d="M6056 6527 c-10 -8 -29 -12 -42 -9 -19 3 -24 0 -24 -16 0 -21 34 -52
57 -52 7 0 13 9 13 20 0 11 4 20 9 20 13 0 23 32 13 42 -4 4 -16 2 -26 -5z"/>
<path d="M6513 6503 c-23 -9 -14 -50 13 -70 18 -13 29 -33 33 -58 7 -44 36
-69 51 -45 6 8 8 24 5 35 -3 11 -11 42 -19 69 -16 62 -44 85 -83 69z"/>
<path d="M1661 6482 c-6 -11 -6 -23 0 -33 8 -12 13 -10 29 10 11 12 17 27 14
32 -9 15 -33 10 -43 -9z"/>
<path d="M6386 6484 c-21 -21 -5 -44 31 -44 21 0 24 4 21 27 -4 33 -29 41 -52
17z"/>
<path d="M1875 6466 c-11 -8 -16 -19 -12 -30 9 -22 30 -20 53 5 16 17 16 22 4
29 -20 13 -23 12 -45 -4z"/>
<path d="M5422 6455 c-15 -32 -16 -75 -2 -75 6 0 15 11 21 24 6 13 20 27 31
29 29 8 19 41 -13 45 -19 2 -28 -3 -37 -23z"/>
<path d="M2607 6463 c-11 -11 -8 -21 9 -27 17 -6 44 9 44 25 0 10 -44 12 -53
2z"/>
<path d="M6182 6434 c3 -19 34 -41 43 -32 4 4 4 16 0 27 -8 25 -48 29 -43 5z"/>
<path d="M1347 6434 c-4 -4 -24 -7 -44 -6 -44 2 -83 -21 -83 -48 0 -23 29 -33
67 -24 41 10 105 53 100 67 -4 14 -30 21 -40 11z"/>
<path d="M2034 6426 c-7 -19 2 -46 15 -46 15 0 42 31 38 44 -6 18 -46 19 -53
2z"/>
<path d="M1440 6400 c-9 -16 -8 -22 6 -27 20 -8 48 8 52 31 5 24 -45 21 -58
-4z"/>
<path d="M1664 6405 c-8 -20 4 -35 26 -35 20 0 44 32 33 44 -12 12 -54 6 -59
-9z"/>
<path d="M5915 6410 c-10 -16 15 -40 41 -40 26 0 31 19 12 38 -15 15 -45 16
-53 2z"/>
<path d="M1538 6399 c-22 -12 -25 -69 -5 -69 20 0 49 36 45 56 -4 22 -18 26
-40 13z"/>
<path d="M1953 6394 c-7 -18 11 -39 26 -30 17 11 13 46 -4 46 -9 0 -18 -7 -22
-16z"/>
<path d="M6820 6372 c0 -11 4 -24 10 -27 5 -3 16 -27 23 -53 11 -38 20 -49 45
-57 17 -6 40 -19 51 -29 12 -11 23 -17 26 -15 7 8 -39 69 -52 69 -7 0 -24 21
-37 48 -13 26 -33 56 -45 66 -21 19 -21 19 -21 -2z"/>
<path d="M5846 6371 c-15 -24 27 -62 47 -42 14 14 -2 51 -23 51 -10 0 -21 -4
-24 -9z"/>
<path d="M6357 6345 c-31 -27 -28 -45 6 -45 50 0 68 12 65 39 -4 35 -35 38
-71 6z"/>
<path d="M6485 6340 c-16 -26 57 -62 79 -40 8 8 5 17 -13 31 -25 21 -56 25
-66 9z"/>
<path d="M6662 6338 c6 -18 28 -21 28 -4 0 9 -7 16 -16 16 -9 0 -14 -5 -12
-12z"/>
<path d="M5430 6325 c-10 -12 -7 -17 14 -26 21 -10 29 -10 39 0 9 10 8 15 -7
27 -25 18 -31 18 -46 -1z"/>
<path d="M968 6322 c-20 -4 -34 -43 -24 -67 16 -42 66 -22 66 25 0 31 -17 48
-42 42z"/>
<path d="M1057 6293 c-4 -3 -7 -15 -7 -25 0 -25 46 -24 59 1 6 10 7 21 4 25
-8 8 -48 8 -56 -1z"/>
<path d="M5864 6289 c-3 -6 -1 -16 5 -22 9 -9 14 -8 21 3 9 15 4 30 -10 30 -5
0 -12 -5 -16 -11z"/>
<path d="M1258 6278 c-24 -20 -30 -48 -12 -55 19 -7 70 40 60 56 -9 15 -29 14
-48 -1z"/>
<path d="M1125 6239 c-20 -38 -16 -73 8 -77 26 -5 46 26 47 71 0 30 -4 37 -20
37 -12 0 -26 -12 -35 -31z"/>
<path d="M6073 6263 c-20 -7 -15 -31 7 -43 16 -9 22 -8 27 5 7 19 -16 45 -34
38z"/>
<path d="M6650 6245 c-10 -13 -9 -19 6 -36 23 -25 67 -22 73 5 7 37 -54 61
-79 31z"/>
<path d="M1308 6215 c-9 -20 -9 -28 1 -38 10 -9 16 -7 32 12 25 30 24 51 -1
51 -12 0 -25 -10 -32 -25z"/>
<path d="M1542 6228 c-19 -19 -15 -48 7 -48 21 0 54 38 45 52 -8 12 -38 10
-52 -4z"/>
<path d="M6490 6216 c0 -17 46 -56 66 -56 21 0 17 27 -8 50 -25 23 -58 27 -58
6z"/>
<path d="M6823 6212 c-34 -18 -44 -42 -18 -42 8 0 15 8 15 17 0 13 3 14 12 5
20 -20 58 -15 58 7 0 15 -22 35 -33 30 -1 0 -17 -8 -34 -17z"/>
<path d="M6580 6210 c0 -5 7 -10 15 -10 8 0 15 5 15 10 0 6 -7 10 -15 10 -8 0
-15 -4 -15 -10z"/>
<path d="M840 6170 c-12 -17 -20 -35 -18 -41 6 -17 58 30 58 52 0 28 -15 23
-40 -11z"/>
<path d="M6362 6183 c4 -22 43 -25 43 -3 0 8 -11 16 -23 18 -19 3 -23 0 -20
-15z"/>
<path d="M914 6178 c-24 -11 -48 -54 -39 -69 13 -20 46 -8 65 24 33 53 23 69
-26 45z"/>
<path d="M1358 6179 c-22 -12 -23 -55 -2 -63 18 -7 64 35 64 59 0 17 -36 20
-62 4z"/>
<path d="M5873 6164 c-7 -18 27 -68 50 -72 23 -5 31 35 13 63 -19 28 -54 33
-63 9z"/>
<path d="M6307 6163 c-20 -19 1 -53 33 -53 16 0 19 30 4 45 -17 16 -27 19 -37
8z"/>
<path d="M1897 6143 c-16 -15 -6 -34 15 -31 29 4 38 38 10 38 -10 0 -22 -3
-25 -7z"/>
<path d="M1596 6115 c-30 -30 -19 -61 20 -56 6 1 16 -10 22 -24 13 -28 47 -34
56 -9 10 25 7 30 -18 42 -14 6 -26 21 -28 34 -4 28 -30 35 -52 13z"/>
<path d="M6804 6115 c-10 -25 38 -65 77 -65 65 0 37 65 -34 77 -29 4 -38 2
-43 -12z"/>
<path d="M6962 6105 c-19 -41 -14 -79 12 -104 13 -12 26 -35 29 -49 5 -26 21
-91 35 -141 10 -35 58 -68 80 -55 24 15 84 0 101 -25 16 -26 41 -27 41 -3 0
30 -45 96 -74 111 -25 12 -31 11 -55 -7 -37 -27 -63 -13 -60 31 3 55 0 74 -22
101 -15 19 -21 43 -22 80 -3 78 -41 114 -65 61z"/>
<path d="M1092 6088 c-17 -17 -15 -38 5 -61 17 -18 17 -20 -10 -39 -29 -21
-37 -58 -12 -58 9 0 24 13 33 30 9 16 20 30 24 30 16 0 38 34 38 59 0 32 -16
51 -45 51 -12 0 -26 -5 -33 -12z"/>
<path d="M6744 6085 c-9 -21 23 -65 46 -65 24 0 26 27 4 58 -18 25 -42 29 -50
7z"/>
<path d="M1364 6069 c-12 -14 -14 -23 -7 -30 14 -14 53 5 53 25 0 23 -27 26
-46 5z"/>
<path d="M855 6045 c-29 -28 -31 -38 -11 -54 25 -21 85 22 86 62 0 26 -46 22
-75 -8z"/>
<path d="M6507 6064 c-11 -11 13 -34 35 -34 13 0 18 6 16 18 -3 17 -38 29 -51
16z"/>
<path d="M6635 6010 c-5 -21 -13 -30 -26 -30 -27 0 -37 -30 -15 -46 23 -17 45
-8 52 22 4 14 14 24 24 24 24 0 33 15 25 40 -4 13 -15 20 -30 20 -18 0 -25 -7
-30 -30z"/>
<path d="M7080 6031 c0 -21 13 -41 26 -41 11 0 11 5 2 25 -11 24 -28 34 -28
16z"/>
<path d="M990 6023 c-33 -13 -33 -53 -1 -53 22 0 41 19 41 42 0 18 -12 21 -40
11z"/>
<path d="M1285 6010 c-19 -21 -14 -50 9 -50 9 0 23 11 32 25 27 42 -7 63 -41
25z"/>
<path d="M730 6005 c-16 -20 -1 -39 26 -33 27 5 32 48 6 48 -11 0 -25 -7 -32
-15z"/>
<path d="M6312 5988 c6 -18 28 -21 28 -4 0 9 -7 16 -16 16 -9 0 -14 -5 -12
-12z"/>
<path d="M6894 5975 c-13 -33 25 -70 48 -47 8 8 8 18 0 37 -13 28 -39 33 -48
10z"/>
<path d="M688 5928 c-24 -20 -78 -116 -78 -139 0 -19 4 -18 40 15 22 20 44 36
49 36 35 0 57 82 25 94 -20 8 -18 8 -36 -6z"/>
<path d="M851 5912 c-11 -16 -23 -40 -26 -55 -11 -41 29 -37 55 6 39 64 13
108 -29 49z"/>
<path d="M6743 5924 c-7 -19 30 -59 46 -50 15 9 14 39 -1 54 -17 17 -37 15
-45 -4z"/>
<path d="M7160 5908 c0 -27 11 -48 26 -48 19 0 17 14 -6 41 -15 19 -19 21 -20
7z"/>
<path d="M6324 5899 c-10 -16 23 -46 36 -33 6 6 8 18 4 27 -7 19 -29 22 -40 6z"/>
<path d="M926 5879 c-28 -22 -35 -59 -11 -59 9 0 20 11 24 24 5 13 17 26 25
29 9 4 16 11 16 17 0 16 -25 12 -54 -11z"/>
<path d="M3440 5893 c-52 -6 -152 -38 -212 -69 -70 -35 -189 -156 -226 -231
-103 -205 -75 -452 71 -625 44 -52 45 -45 -15 -116 -72 -85 -118 -222 -118
-352 0 -207 109 -386 301 -494 119 -66 307 -82 429 -36 67 25 175 83 185 100
3 5 18 18 34 29 l29 21 23 -24 c176 -172 487 -201 693 -65 173 115 267 307
253 514 -9 123 -43 207 -130 322 l-39 53 28 36 c52 63 93 136 116 203 30 88
32 258 4 341 -83 243 -289 393 -541 393 -143 -1 -255 -44 -380 -147 l-31 -25
-49 40 c-115 95 -287 148 -425 132z m130 -104 c69 -11 153 -45 198 -79 38 -29
582 -572 582 -580 0 -4 -7 -13 -16 -21 -13 -11 -53 25 -297 268 -155 155 -300
292 -322 305 -63 39 -133 58 -209 58 -119 0 -211 -38 -294 -118 -153 -149
-162 -396 -20 -557 l31 -36 -20 -20 -20 -21 -36 44 c-180 219 -135 528 100
689 68 47 112 61 248 78 6 0 39 -4 75 -10z m830 0 c180 -28 330 -162 374 -335
33 -126 12 -263 -55 -369 -17 -27 -164 -183 -325 -346 -279 -280 -294 -297
-294 -332 0 -30 8 -45 41 -78 157 -157 404 -78 444 143 10 52 -11 130 -51 187
-32 47 -32 49 -14 66 17 15 20 14 54 -31 158 -207 12 -498 -249 -498 -110 0
-223 62 -265 145 -24 46 -25 80 -4 122 9 18 151 167 315 332 325 327 339 346
362 480 29 171 -68 351 -229 427 -147 69 -316 49 -435 -52 -46 -39 -47 -39
-65 -19 -17 19 -17 20 17 49 70 62 190 109 299 119 8 0 44 -4 80 -10z m-770
-176 c45 -20 102 -72 337 -305 268 -268 282 -283 266 -300 -16 -18 -30 -5
-302 265 -262 260 -291 286 -340 302 -247 81 -447 -186 -296 -396 33 -47 33
-47 14 -65 -19 -17 -21 -17 -44 11 -54 66 -70 114 -70 210 0 74 4 98 23 132
49 94 119 150 212 169 70 15 131 8 200 -23z m839 -3 c140 -71 205 -239 151
-385 -21 -56 -45 -82 -330 -370 -169 -170 -316 -326 -326 -345 -26 -50 -24
-152 4 -207 42 -81 144 -161 242 -190 208 -61 422 44 501 245 18 44 23 78 23
147 0 107 -24 178 -86 256 -37 47 -39 53 -24 67 14 14 18 14 41 -8 133 -125
163 -356 70 -540 -80 -157 -301 -264 -482 -233 -119 21 -258 108 -313 198 -12
19 -25 35 -29 35 -4 0 -17 -18 -30 -40 -12 -21 -46 -59 -75 -84 -258 -221
-651 -104 -752 223 -18 59 -18 193 0 252 35 114 60 145 354 442 l286 287 20
-20 20 -20 -290 -292 c-260 -262 -293 -300 -320 -358 -26 -58 -29 -76 -29
-166 0 -95 2 -103 37 -176 86 -173 270 -265 450 -224 214 48 351 244 279 401
-10 23 -74 96 -150 173 -129 130 -132 134 -115 153 17 19 21 17 146 -108 71
-70 138 -143 150 -161 l20 -33 16 23 c8 13 149 158 313 323 309 311 329 337
345 432 11 70 -19 150 -79 208 -58 56 -105 75 -186 75 -58 0 -105 -17 -157
-56 -32 -25 -36 -26 -51 -11 -15 15 -15 18 3 38 72 80 246 104 353 49z m-871
-153 l27 -27 -112 -112 c-101 -101 -113 -110 -129 -97 -24 20 -44 72 -44 115
0 45 31 102 73 132 27 20 42 23 95 20 52 -3 67 -9 90 -31z m801 18 c41 -21 79
-70 87 -111 8 -42 -8 -102 -36 -136 l-19 -23 -115 114 c-63 63 -113 118 -110
123 3 4 22 17 42 28 44 23 112 26 151 5z m-833 -534 c-222 -224 -280 -287
-300 -331 -36 -77 -35 -139 5 -219 46 -93 125 -143 223 -142 94 1 176 41 217
107 35 57 22 82 -117 224 -124 127 -124 127 -103 146 20 18 21 18 139 -103
170 -175 186 -234 94 -333 -61 -65 -127 -93 -224 -94 -121 0 -221 60 -278 168
-23 44 -27 63 -27 141 0 75 4 98 24 135 14 29 124 147 304 327 266 268 282
281 299 266 18 -16 5 -30 -256 -292z m462 86 l112 -112 -113 -113 -112 -112
-115 115 -115 115 110 110 c60 60 112 110 115 110 3 0 56 -51 118 -113z m-509
-511 l113 -113 -27 -21 c-14 -11 -42 -26 -62 -33 -95 -31 -203 52 -203 156 0
44 38 125 59 125 3 0 57 -51 120 -114z m957 47 c19 -45 17 -80 -7 -129 -42
-87 -147 -114 -229 -60 l-43 28 114 114 c109 109 114 113 132 96 11 -9 26 -31
33 -49z"/>
<path d="M1002 5855 c2 -14 8 -26 13 -26 6 0 11 12 13 26 2 18 -1 25 -13 25
-12 0 -15 -7 -13 -25z"/>
<path d="M6865 5869 c-12 -18 4 -73 30 -104 20 -25 26 -28 34 -15 11 16 6 45
-15 98 -13 32 -37 42 -49 21z"/>
<path d="M747 5852 c-19 -21 -22 -48 -7 -57 6 -4 7 -23 4 -46 -6 -38 -6 -39
22 -39 65 0 98 62 46 85 -18 8 -22 15 -17 34 4 15 1 27 -7 32 -19 12 -23 11
-41 -9z"/>
<path d="M1350 5795 c-16 -20 -6 -45 19 -45 20 0 37 32 26 50 -9 15 -31 12
-45 -5z"/>
<path d="M1032 5788 c-18 -18 -15 -48 6 -48 23 0 42 19 42 42 0 21 -30 24 -48
6z"/>
<path d="M6670 5776 c0 -17 5 -26 16 -26 10 0 14 7 12 22 -5 32 -28 35 -28 4z"/>
<path d="M6739 5779 c-11 -8 -9 -13 10 -29 26 -22 41 -18 41 9 0 21 -31 33
-51 20z"/>
<path d="M1113 5763 c-16 -6 -17 -39 -2 -49 16 -9 43 21 36 40 -7 16 -13 18
-34 9z"/>
<path d="M554 5715 c-18 -38 -12 -58 10 -34 17 18 30 69 17 69 -6 0 -18 -16
-27 -35z"/>
<path d="M630 5720 c-23 -23 -27 -60 -6 -60 18 0 46 38 46 62 0 24 -15 23 -40
-2z"/>
<path d="M882 5703 c-18 -33 -18 -67 -1 -71 25 -5 51 27 47 57 -4 31 -33 40
-46 14z"/>
<path d="M1154 5706 c-11 -29 1 -61 23 -64 17 -3 24 3 29 22 3 14 4 33 0 41
-7 19 -45 20 -52 1z"/>
<path d="M6815 5706 c-16 -12 -16 -13 0 -29 23 -24 55 -22 55 3 0 27 -32 43
-55 26z"/>
<path d="M6620 5700 c-12 -7 -12 -13 -4 -27 16 -26 44 -29 44 -5 0 26 -22 43
-40 32z"/>
<path d="M7182 5698 c-17 -17 -15 -83 3 -98 8 -7 22 -10 30 -6 29 11 15 116
-15 116 -3 0 -11 -5 -18 -12z"/>
<path d="M7265 5699 c-4 -5 -4 -21 -1 -35 5 -17 13 -24 32 -24 22 0 24 3 18
23 -12 42 -36 59 -49 36z"/>
<path d="M696 5687 c-14 -10 -15 -18 -7 -40 7 -18 7 -36 1 -53 -13 -33 -13
-95 0 -114 9 -13 12 -12 25 5 27 35 40 92 27 121 -7 13 -12 38 -12 54 0 35
-11 44 -34 27z"/>
<path d="M6227 5693 c-16 -15 -6 -33 18 -33 18 0 25 5 25 20 0 20 -28 28 -43
13z"/>
<path d="M7055 5658 c4 -13 10 -41 14 -63 10 -51 38 -105 55 -105 23 0 25 26
5 64 -12 22 -17 46 -13 60 8 35 -12 66 -43 66 -22 0 -24 -3 -18 -22z"/>
<path d="M6362 5644 c2 -9 13 -23 25 -31 20 -14 23 -14 29 1 8 21 -13 46 -38
46 -13 0 -18 -6 -16 -16z"/>
<path d="M7003 5643 c-21 -8 -15 -41 8 -48 27 -9 33 -2 25 30 -6 25 -11 28
-33 18z"/>
<path d="M490 5588 c-45 -73 -38 -106 17 -83 49 21 60 19 67 -10 8 -32 31 -32
52 0 20 30 11 45 -27 45 -22 0 -29 5 -29 20 0 21 -33 60 -50 60 -6 0 -19 -15
-30 -32z"/>
<path d="M7234 5577 c-44 -46 -48 -63 -23 -115 24 -50 18 -75 -20 -80 -11 -2
-26 -13 -32 -24 -8 -16 -17 -19 -40 -14 -38 7 -38 -12 0 -53 35 -38 49 -39 57
-6 3 14 12 25 19 25 7 0 15 7 19 15 3 8 17 20 32 25 27 11 27 11 20 88 -6 75
-5 79 20 101 28 24 28 38 -2 57 -17 12 -23 9 -50 -19z"/>
<path d="M837 5583 c-10 -9 -8 -65 2 -81 15 -25 46 -9 49 24 4 41 -30 78 -51
57z"/>
<path d="M6861 5571 c-12 -8 -13 -14 -3 -35 15 -33 57 -36 67 -6 12 38 -29 63
-64 41z"/>
<path d="M7322 5537 c-35 -42 -7 -127 43 -127 34 0 42 38 20 95 -17 46 -41 58
-63 32z"/>
<path d="M1021 5527 c-16 -16 -14 -57 4 -57 14 0 35 29 35 48 0 15 -26 22 -39
9z"/>
<path d="M7030 5530 c-12 -7 -12 -13 -4 -27 16 -26 44 -29 44 -5 0 26 -22 43
-40 32z"/>
<path d="M6727 5483 c-13 -12 -7 -44 9 -50 20 -7 33 12 27 38 -5 19 -24 25
-36 12z"/>
<path d="M1202 5448 c-15 -15 -15 -31 -1 -45 18 -18 39 -3 39 28 0 30 -17 38
-38 17z"/>
<path d="M636 5434 c-15 -15 -14 -25 6 -49 5 -5 14 -18 21 -28 15 -22 43 -14
53 15 4 14 -2 29 -22 49 -32 34 -37 35 -58 13z"/>
<path d="M450 5420 c-11 -11 -20 -29 -20 -41 0 -13 -10 -23 -29 -30 -31 -11
-46 -50 -28 -68 17 -17 25 -13 42 19 9 17 22 30 29 30 21 0 66 58 66 86 0 30
-31 33 -60 4z"/>
<path d="M6991 5431 c-17 -11 0 -45 29 -61 16 -9 22 -7 27 5 8 22 -37 68 -56
56z"/>
<path d="M6602 5418 c-16 -16 -15 -23 4 -42 18 -19 34 -13 34 13 0 26 -23 44
-38 29z"/>
<path d="M6801 5391 c-12 -8 -12 -12 -2 -25 20 -24 43 -20 39 6 -3 25 -17 32
-37 19z"/>
<path d="M833 5383 c-15 -5 -17 -39 -4 -47 17 -11 42 6 39 27 -3 22 -15 29
-35 20z"/>
<path d="M7345 5380 c-9 -15 3 -47 21 -54 21 -8 34 1 34 23 0 32 -40 55 -55
31z"/>
<path d="M7415 5381 c-3 -5 0 -21 6 -35 9 -18 9 -36 1 -66 -9 -36 -8 -44 9
-61 39 -39 60 -11 47 64 -15 80 -45 127 -63 98z"/>
<path d="M500 5355 c-10 -12 -10 -19 -2 -27 16 -16 42 -2 42 22 0 24 -22 26
-40 5z"/>
<path d="M617 5353 c-4 -3 -7 -31 -7 -62 0 -46 -4 -59 -27 -83 -22 -23 -25
-32 -17 -46 15 -23 57 -27 75 -6 14 17 23 163 12 192 -6 13 -25 16 -36 5z"/>
<path d="M6950 5276 c0 -26 19 -39 39 -26 19 11 4 50 -20 50 -13 0 -19 -7 -19
-24z"/>
<path d="M7297 5272 c-10 -10 -17 -27 -17 -38 1 -23 23 -54 38 -54 28 0 43 75
20 98 -16 16 -22 15 -41 -6z"/>
<path d="M6584 5265 c-7 -18 13 -45 33 -45 19 0 28 27 13 45 -16 19 -39 19
-46 0z"/>
<path d="M7133 5253 c-7 -3 -13 -13 -13 -22 0 -21 33 -54 43 -44 19 19 -7 75
-30 66z"/>
<path d="M760 5219 c-12 -22 -6 -39 15 -39 12 0 25 21 25 40 0 18 -30 18 -40
-1z"/>
<path d="M1035 5230 c-8 -13 3 -30 20 -30 11 0 25 20 25 36 0 9 -39 4 -45 -6z"/>
<path d="M954 5219 c-10 -17 23 -46 37 -32 7 7 9 19 6 27 -7 18 -33 21 -43 5z"/>
<path d="M393 5208 c-23 -30 -44 -101 -33 -112 16 -16 92 67 88 97 -3 25 -39
35 -55 15z"/>
<path d="M6712 5208 c6 -18 28 -21 28 -4 0 9 -7 16 -16 16 -9 0 -14 -5 -12
-12z"/>
<path d="M6783 5183 c-7 -2 -13 -11 -13 -18 0 -21 29 -45 45 -39 18 7 20 35 3
52 -13 13 -16 13 -35 5z"/>
<path d="M311 5162 c-15 -28 -14 -42 3 -42 18 0 31 39 18 52 -7 7 -14 3 -21
-10z"/>
<path d="M469 5154 c-9 -11 -10 -20 -3 -32 16 -25 32 -25 44 -2 22 41 -12 69
-41 34z"/>
<path d="M704 5155 c-18 -13 -18 -14 0 -33 22 -25 46 -18 46 13 0 28 -22 38
-46 20z"/>
<path d="M7090 5155 c-16 -19 -3 -50 21 -50 19 0 22 27 6 49 -12 17 -14 17
-27 1z"/>
<path d="M7172 5138 c6 -18 28 -21 28 -4 0 9 -7 16 -16 16 -9 0 -14 -5 -12
-12z"/>
<path d="M7237 5133 c-12 -11 -8 -40 7 -52 21 -18 41 11 26 38 -11 22 -22 26
-33 14z"/>
<path d="M7373 5133 c-7 -2 -13 -19 -13 -37 0 -56 43 -77 61 -29 18 47 -8 83
-48 66z"/>
<path d="M7030 5097 c0 -18 7 -42 15 -53 13 -16 16 -17 25 -4 20 31 4 90 -25
90 -10 0 -15 -11 -15 -33z"/>
<path d="M7458 5093 c-12 -14 -15 -39 -13 -118 2 -113 11 -142 58 -190 91 -94
94 -98 79 -125 -9 -17 -12 -49 -8 -104 3 -65 1 -82 -11 -91 -20 -15 -11 -69
16 -104 l19 -24 14 29 c11 22 13 52 9 119 -6 88 -5 90 22 118 15 15 27 34 27
42 0 25 -12 45 -28 45 -12 0 -13 3 -4 12 16 16 15 67 -2 97 l-13 24 -18 -31
c-10 -17 -22 -29 -27 -26 -15 10 -58 103 -58 127 0 13 -9 32 -20 42 -28 26
-25 42 10 50 42 9 44 18 17 72 -26 53 -45 63 -69 36z"/>
<path d="M295 5080 c-18 -20 -15 -50 6 -50 16 0 38 31 39 53 0 23 -23 22 -45
-3z"/>
<path d="M757 5093 c-13 -12 -7 -41 10 -47 22 -9 36 7 28 33 -6 21 -25 28 -38
14z"/>
<path d="M6947 5093 c-8 -14 12 -53 27 -53 20 0 29 16 21 40 -6 19 -39 28 -48
13z"/>
<path d="M542 5078 c-6 -8 -16 -26 -21 -42 -10 -24 -15 -27 -41 -21 -21 5 -47
0 -84 -16 -53 -22 -66 -37 -66 -82 0 -11 -9 -30 -19 -43 -15 -19 -18 -37 -15
-87 2 -34 4 -65 4 -69 0 -15 38 -8 44 7 3 8 1 36 -3 62 -9 48 -9 48 34 88 24
22 48 52 54 68 11 30 45 37 55 12 8 -22 36 -18 36 5 0 11 14 35 30 52 18 18
30 40 28 52 -4 24 -21 31 -36 14z"/>
<path d="M7550 5064 c0 -8 5 -12 10 -9 6 4 8 11 5 16 -9 14 -15 11 -15 -7z"/>
<path d="M7324 5025 c-9 -21 3 -45 21 -45 20 0 20 46 0 54 -9 3 -18 -1 -21 -9z"/>
<path d="M7236 5012 c-12 -19 60 -132 84 -132 5 0 14 9 20 19 8 16 5 23 -19
40 -15 11 -34 34 -41 51 -12 29 -33 39 -44 22z"/>
<path d="M1100 4995 c-17 -20 -6 -45 20 -45 17 0 21 5 18 27 -4 31 -20 40 -38
18z"/>
<path d="M620 4985 c-11 -13 -11 -19 3 -33 20 -19 41 -5 35 24 -4 24 -22 28
-38 9z"/>
<path d="M7546 4956 c-19 -41 -20 -58 -4 -74 17 -17 46 -15 56 6 12 23 -6 102
-22 102 -8 0 -21 -15 -30 -34z"/>
<path d="M244 4925 c-19 -29 -31 -105 -17 -105 27 0 68 79 58 111 -8 26 -21
24 -41 -6z"/>
<path d="M7143 4924 c-8 -21 23 -52 38 -37 8 8 8 17 0 32 -14 25 -29 27 -38 5z"/>
<path d="M6950 4920 c-8 -5 -25 -10 -37 -10 -26 0 -35 -12 -27 -34 6 -17 41
-21 82 -10 18 5 22 13 20 32 -3 29 -16 36 -38 22z"/>
<path d="M593 4894 c-8 -21 13 -42 28 -27 13 13 5 43 -11 43 -6 0 -13 -7 -17
-16z"/>
<path d="M667 4893 c-11 -10 -8 -41 5 -49 14 -9 38 23 31 42 -5 15 -25 19 -36
7z"/>
<path d="M7083 4893 c-37 -14 9 -103 53 -103 13 0 24 4 24 9 0 9 -59 102 -63
100 -1 0 -8 -3 -14 -6z"/>
<path d="M1067 4873 c-13 -12 -7 -33 8 -33 8 0 15 9 15 20 0 20 -11 26 -23 13z"/>
<path d="M6744 4865 c-7 -18 3 -35 22 -35 8 0 14 10 14 25 0 27 -27 35 -36 10z"/>
<path d="M497 4843 c-4 -3 -7 -13 -7 -22 0 -9 -4 -22 -9 -30 -7 -11 -13 -10
-35 4 -21 14 -29 15 -41 5 -21 -18 -19 -29 9 -40 14 -5 30 -19 36 -30 14 -26
33 -21 40 11 4 15 14 25 27 27 31 5 46 28 39 57 -5 18 -13 25 -30 25 -12 0
-26 -3 -29 -7z"/>
<path d="M7396 4823 c-4 -5 -22 -8 -39 -8 -25 0 -32 -4 -32 -19 0 -10 8 -24
18 -30 14 -9 21 -7 31 6 12 16 14 16 34 -6 39 -45 50 -71 55 -130 4 -37 14
-70 26 -87 29 -39 27 -53 -6 -46 -42 8 -87 -31 -78 -66 9 -33 32 -35 44 -3 7
18 19 24 51 29 23 3 44 8 47 11 4 3 -6 45 -21 93 -14 49 -26 104 -26 124 0 24
-7 42 -21 55 -12 10 -28 34 -36 52 -13 31 -31 40 -47 25z"/>
<path d="M600 4784 c-11 -12 -10 -18 4 -32 16 -16 18 -16 37 7 10 12 16 27 13
32 -8 14 -40 10 -54 -7z"/>
<path d="M7194 4756 c-8 -22 3 -49 19 -43 6 2 12 14 12 27 0 27 -22 39 -31 16z"/>
<path d="M232 4738 c-13 -13 -16 -56 -6 -82 14 -38 54 -3 54 46 0 22 -16 48
-30 48 -3 0 -11 -5 -18 -12z"/>
<path d="M6756 4741 c-10 -16 5 -42 23 -39 21 4 21 42 -1 46 -9 2 -19 -1 -22
-7z"/>
<path d="M1016 4731 c-14 -22 23 -59 45 -45 15 9 10 41 -7 48 -22 8 -32 8 -38
-3z"/>
<path d="M7333 4686 c-13 -6 -23 -14 -23 -18 0 -4 -13 -5 -28 -2 -38 8 -57
-14 -37 -43 11 -16 24 -21 55 -19 22 1 45 7 52 14 18 18 28 15 50 -13 15 -20
23 -23 33 -15 17 14 4 54 -27 88 -23 24 -40 26 -75 8z"/>
<path d="M377 4684 c-13 -13 -7 -45 12 -73 11 -15 21 -40 23 -56 2 -19 9 -30
18 -30 8 0 17 -9 20 -20 9 -33 35 -24 38 14 3 30 1 33 -17 28 -19 -5 -20 0
-23 67 l-3 71 -30 3 c-17 2 -34 0 -38 -4z"/>
<path d="M787 4683 c-11 -10 -8 -41 4 -49 16 -9 43 21 36 40 -7 16 -28 21 -40
9z"/>
<path d="M177 4653 c-9 -14 -27 -136 -21 -142 11 -12 46 39 51 75 4 39 -17 88
-30 67z"/>
<path d="M7021 4646 c-9 -11 -10 -20 -1 -35 23 -43 52 -14 34 33 -8 20 -18 20
-33 2z"/>
<path d="M314 4608 c-38 -17 -55 -79 -34 -119 24 -44 49 -13 65 82 8 42 0 51
-31 37z"/>
<path d="M612 4558 c-7 -7 -12 -20 -12 -31 0 -24 33 -19 38 7 5 24 -11 39 -26
24z"/>
<path d="M6995 4560 c-9 -14 14 -52 28 -47 7 2 13 16 15 30 3 21 -1 27 -17 27
-11 0 -23 -4 -26 -10z"/>
<path d="M836 4528 c-18 -26 -19 -37 -7 -57 14 -22 41 4 41 40 0 37 -15 45
-34 17z"/>
<path d="M524 4516 c-9 -23 0 -51 17 -54 18 -3 31 30 22 54 -7 18 -32 18 -39
0z"/>
<path d="M7681 4516 c-1 -11 -8 -27 -17 -37 -9 -10 -18 -35 -21 -57 -5 -35 -2
-42 20 -57 40 -26 49 -12 41 64 -7 70 -22 125 -23 87z"/>
<path d="M7142 4488 c-19 -19 -15 -26 19 -33 17 -4 33 -13 36 -21 7 -19 38
-18 57 1 25 25 9 48 -30 42 -22 -4 -37 -1 -45 9 -14 17 -21 18 -37 2z"/>
<path d="M7342 4478 c-18 -18 -15 -65 4 -72 25 -10 45 14 42 48 -3 33 -25 45
-46 24z"/>
<path d="M176 4431 c-27 -29 -16 -53 34 -78 58 -28 72 -28 98 0 37 39 24 107
-14 76 -13 -11 -18 -10 -25 4 -14 24 -71 22 -93 -2z"/>
<path d="M631 4418 c-11 -31 -2 -60 18 -56 23 4 29 78 6 78 -8 0 -19 -10 -24
-22z"/>
<path d="M7517 4403 c-9 -8 -9 -56 -1 -77 12 -30 34 -18 34 18 0 54 -14 79
-33 59z"/>
<path d="M6966 4391 c-9 -14 4 -41 19 -41 21 0 28 19 15 35 -14 17 -26 19 -34
6z"/>
<path d="M6896 4374 c-22 -21 -20 -44 4 -44 21 0 45 34 35 50 -9 14 -21 12
-39 -6z"/>
<path d="M477 4354 c-11 -12 -8 -41 6 -52 18 -16 39 1 35 29 -3 23 -27 37 -41
23z"/>
<path d="M6704 4349 c-10 -17 23 -46 37 -32 7 7 9 19 6 27 -7 18 -33 21 -43 5z"/>
<path d="M151 4318 c-20 -55 -41 -124 -41 -139 0 -9 7 -22 16 -30 13 -10 17
-10 25 2 5 8 9 24 9 37 0 13 10 40 22 61 15 26 19 45 14 64 -8 33 -33 35 -45
5z"/>
<path d="M354 4316 c-13 -20 -13 -28 -2 -45 26 -43 67 -18 54 33 -8 34 -33 40
-52 12z"/>
<path d="M7379 4304 c-13 -16 7 -84 28 -91 21 -7 45 41 34 69 -11 30 -45 42
-62 22z"/>
<path d="M7618 4295 c-8 -18 -9 -34 -2 -53 9 -24 15 -27 47 -24 21 2 37 -2 37
-8 0 -5 7 -10 15 -10 9 0 15 9 15 24 0 34 -10 56 -25 56 -6 0 -20 9 -30 20
-24 27 -43 25 -57 -5z"/>
<path d="M522 4268 c5 -32 28 -35 28 -4 0 17 -5 26 -16 26 -10 0 -14 -7 -12
-22z"/>
<path d="M7543 4254 c-7 -20 34 -123 59 -147 15 -14 16 -22 7 -39 -8 -15 -14
-17 -22 -9 -16 16 -44 13 -51 -5 -11 -28 -6 -61 9 -74 13 -10 19 -10 35 5 18
16 20 16 26 1 8 -21 24 -20 40 2 11 16 13 14 24 -13 11 -29 12 -29 26 -11 8
11 14 32 14 47 0 14 7 32 15 39 25 21 19 41 -10 34 -27 -7 -55 9 -55 31 0 7
-13 27 -30 45 -16 17 -34 49 -40 71 -11 40 -35 52 -47 23z"/>
<path d="M6890 4250 c0 -5 7 -10 15 -10 8 0 15 5 15 10 0 6 -7 10 -15 10 -8 0
-15 -4 -15 -10z"/>
<path d="M7244 4249 c-7 -12 22 -56 48 -72 25 -16 48 -1 48 32 0 20 -7 34 -19
41 -26 13 -68 13 -77 -1z"/>
<path d="M200 4235 c-17 -20 2 -71 42 -112 38 -40 55 -42 64 -7 5 18 0 33 -15
52 -12 15 -29 39 -39 54 -19 31 -34 35 -52 13z"/>
<path d="M357 4163 c-22 -22 25 -69 57 -57 19 7 21 35 4 52 -13 13 -50 16 -61
5z"/>
<path d="M482 4147 c-29 -30 -28 -45 3 -59 22 -10 29 -9 45 8 10 10 20 30 22
44 4 35 -39 40 -70 7z"/>
<path d="M683 4163 c-18 -6 -16 -20 9 -80 12 -29 28 -53 35 -53 17 0 16 15 -2
78 -16 54 -22 62 -42 55z"/>
<path d="M7482 4153 c-13 -22 6 -65 27 -61 11 2 17 16 19 41 3 31 0 37 -17 37
-11 0 -24 -8 -29 -17z"/>
<path d="M812 4138 c-17 -17 -15 -43 3 -58 21 -18 37 0 33 36 -3 31 -18 40
-36 22z"/>
<path d="M7050 4135 c-15 -18 -6 -45 14 -45 17 0 28 24 20 45 -8 19 -18 19
-34 0z"/>
<path d="M7396 4078 c-20 -28 -20 -58 -2 -84 15 -19 15 -19 36 2 12 12 24 39
27 63 5 39 4 41 -20 41 -15 0 -32 -9 -41 -22z"/>
<path d="M316 4058 c-8 -19 -18 -47 -22 -64 -3 -16 -18 -41 -32 -56 -27 -30
-24 -58 7 -58 26 0 61 46 61 80 0 15 7 41 16 58 8 18 14 40 12 49 -6 30 -28
25 -42 -9z"/>
<path d="M7160 4075 c0 -8 5 -15 10 -15 6 0 10 7 10 15 0 8 -4 15 -10 15 -5 0
-10 -7 -10 -15z"/>
<path d="M7206 4075 c-12 -12 -13 -21 -6 -36 6 -10 17 -19 25 -19 21 0 30 40
12 57 -12 13 -16 12 -31 -2z"/>
<path d="M109 4043 c-21 -55 13 -100 46 -63 24 27 13 90 -16 90 -12 0 -23 -10
-30 -27z"/>
<path d="M206 4054 c-10 -26 -7 -59 7 -78 22 -30 41 7 38 72 -1 26 -35 31 -45
6z"/>
<path d="M401 4036 c-7 -8 -8 -38 -4 -80 5 -54 9 -66 22 -64 23 4 29 143 7
151 -8 3 -19 0 -25 -7z"/>
<path d="M7080 4035 c-15 -18 -5 -65 15 -65 17 0 28 33 20 60 -8 24 -18 25
-35 5z"/>
<path d="M657 3983 c-4 -3 -7 -17 -7 -30 0 -16 6 -23 20 -23 16 0 20 7 20 30
0 28 -17 40 -33 23z"/>
<path d="M6900 3975 c-16 -19 -3 -57 18 -53 22 4 28 53 8 61 -8 3 -20 0 -26
-8z"/>
<path d="M7346 3971 c-4 -5 -3 -16 0 -24 3 -8 8 -37 12 -63 8 -56 35 -69 40
-20 8 64 -31 142 -52 107z"/>
<path d="M7496 3934 c-3 -9 -6 -33 -6 -55 0 -33 4 -41 30 -54 56 -29 75 -18
59 37 -18 67 -68 110 -83 72z"/>
<path d="M7635 3917 c-8 -12 -15 -36 -15 -53 0 -17 -7 -37 -15 -44 -8 -7 -15
-24 -15 -37 0 -14 -9 -38 -21 -54 -28 -40 -22 -72 16 -79 42 -7 46 -54 11
-107 -14 -21 -26 -45 -26 -54 0 -9 -18 -35 -40 -57 -22 -22 -40 -49 -40 -60 0
-29 10 -52 24 -51 15 0 49 47 66 89 7 19 33 60 57 92 28 37 43 66 43 86 0 21
7 32 25 40 21 10 25 19 25 52 l0 40 -24 -15 c-40 -26 -66 -6 -66 51 0 40 3 47
31 62 17 9 41 24 52 33 l21 17 -32 30 c-44 41 -59 45 -77 19z"/>
<path d="M106 3904 c-16 -42 2 -76 29 -54 21 17 19 47 -4 59 -15 8 -20 7 -25
-5z"/>
<path d="M179 3884 c-10 -13 -9 -27 10 -85 15 -47 27 -69 38 -69 13 0 15 11
11 70 -7 88 -29 120 -59 84z"/>
<path d="M477 3863 c-22 -21 14 -133 42 -133 16 0 21 33 12 73 -12 53 -36 79
-54 60z"/>
<path d="M7154 3855 c-9 -21 3 -45 21 -45 10 0 15 10 15 30 0 32 -26 43 -36
15z"/>
<path d="M7226 3861 c-9 -14 4 -41 19 -41 21 0 28 19 15 35 -14 17 -26 19 -34
6z"/>
<path d="M7421 3837 c-20 -20 -13 -64 15 -86 31 -24 44 -20 44 14 0 52 -35 96
-59 72z"/>
<path d="M345 3788 c-7 -18 -27 -43 -44 -56 -21 -15 -31 -31 -31 -48 0 -28 46
-114 61 -114 5 0 9 23 9 51 0 67 19 139 37 139 19 0 28 27 13 45 -19 23 -30
18 -45 -17z"/>
<path d="M794 3796 c-6 -16 12 -56 26 -56 15 0 22 20 16 46 -7 26 -33 33 -42
10z"/>
<path d="M7305 3757 c-9 -21 -3 -49 12 -54 19 -7 27 37 9 55 -14 14 -16 14
-21 -1z"/>
<path d="M134 3733 c-3 -16 -10 -40 -16 -55 -5 -14 -7 -36 -3 -47 5 -16 12
-19 35 -15 27 6 29 4 44 -46 19 -65 6 -105 -34 -105 -22 -1 -25 -5 -23 -33 3
-66 11 -84 41 -80 23 3 28 9 34 47 9 53 16 61 32 38 32 -43 56 0 26 48 -12 19
-20 50 -20 74 0 49 -14 81 -35 81 -11 0 -15 11 -15 38 0 68 -53 112 -66 55z"/>
<path d="M750 3695 c0 -16 6 -25 15 -25 9 0 15 9 15 25 0 16 -6 25 -15 25 -9
0 -15 -9 -15 -25z"/>
<path d="M957 3683 c-13 -12 -7 -44 9 -50 18 -7 34 12 34 40 0 17 -30 24 -43
10z"/>
<path d="M6993 3664 c-8 -21 13 -42 28 -27 13 13 5 43 -11 43 -6 0 -13 -7 -17
-16z"/>
<path d="M7297 3663 c-12 -12 -7 -43 7 -43 13 0 26 20 26 41 0 10 -23 12 -33
2z"/>
<path d="M7385 3648 c-7 -20 -24 -102 -25 -115 0 -7 7 -13 16 -13 21 0 57 85
50 116 -7 25 -33 33 -41 12z"/>
<path d="M7477 3653 c-11 -10 -8 -43 3 -44 6 -1 14 -2 19 -3 6 0 20 -11 31
-24 17 -18 25 -21 36 -11 21 17 18 59 -4 59 -10 0 -27 7 -38 15 -21 16 -37 19
-47 8z"/>
<path d="M573 3639 c-14 -14 -6 -39 13 -39 15 0 18 18 6 37 -6 10 -11 10 -19
2z"/>
<path d="M431 3612 c-13 -25 9 -67 34 -67 22 0 30 24 21 61 -8 29 -41 32 -55
6z"/>
<path d="M7706 3613 c-3 -3 -6 -21 -6 -40 0 -19 -7 -44 -16 -58 -13 -21 -14
-28 -1 -66 17 -49 24 -42 32 32 3 30 8 70 11 90 6 34 -5 57 -20 42z"/>
<path d="M7230 3571 c-10 -19 -4 -51 9 -51 15 0 31 25 31 47 0 28 -25 31 -40
4z"/>
<path d="M585 3570 c-8 -13 16 -62 32 -68 19 -6 27 26 15 54 -12 25 -36 32
-47 14z"/>
<path d="M270 3536 c0 -18 26 -40 34 -27 9 14 -4 41 -20 41 -8 0 -14 -6 -14
-14z"/>
<path d="M772 3538 c-17 -17 -15 -58 4 -65 20 -7 35 14 32 46 -3 28 -19 36
-36 19z"/>
<path d="M7422 3538 c-13 -17 3 -58 23 -58 21 0 29 24 15 49 -12 24 -23 26
-38 9z"/>
<path d="M7073 3484 c-8 -21 13 -42 28 -27 13 13 5 43 -11 43 -6 0 -13 -7 -17
-16z"/>
<path d="M306 3473 c-2 -10 -8 -43 -11 -74 -5 -44 -4 -58 9 -68 14 -12 16 -10
16 9 0 13 10 43 22 67 17 34 20 48 11 61 -14 24 -40 27 -47 5z"/>
<path d="M376 3473 c-10 -26 23 -48 42 -29 8 8 12 22 9 30 -8 21 -43 20 -51
-1z"/>
<path d="M6667 3484 c-14 -14 -7 -35 11 -32 9 2 17 10 17 17 0 16 -18 25 -28
15z"/>
<path d="M437 3457 c-7 -19 8 -41 22 -33 16 10 14 46 -3 46 -8 0 -16 -6 -19
-13z"/>
<path d="M513 3445 c-6 -18 23 -55 44 -55 16 0 17 42 1 58 -17 17 -37 15 -45
-3z"/>
<path d="M1470 2975 l0 -475 105 0 105 0 0 185 c0 146 3 193 16 225 45 112
197 102 224 -16 5 -21 10 -119 10 -216 l0 -178 106 0 106 0 -5 233 c-5 251
-13 298 -62 363 -73 95 -246 111 -355 33 l-40 -29 0 175 0 175 -105 0 -105 0
0 -475z"/>
<path d="M3770 2975 l0 -475 105 0 105 0 0 193 c0 217 8 247 71 279 42 22 71
23 109 3 55 -28 60 -53 60 -275 l0 -200 106 0 105 0 -3 253 c-3 237 -4 254
-25 292 -48 88 -108 126 -210 133 -73 5 -125 -10 -175 -50 l-38 -29 0 176 0
175 -105 0 -105 0 0 -475z"/>
<path d="M7360 3421 c-18 -35 -10 -121 11 -121 13 0 70 121 63 132 -10 16 -63
8 -74 -11z"/>
<path d="M2485 3398 c-3 -7 -77 -208 -165 -446 -88 -239 -160 -438 -160 -443
0 -5 49 -9 109 -9 l108 0 30 83 30 82 196 3 195 2 30 -82 30 -83 111 -3 c61
-1 111 0 111 4 0 5 -242 665 -327 892 -4 9 -43 12 -149 12 -107 0 -146 -3
-149 -12z m243 -455 l31 -83 -126 0 c-115 0 -125 1 -118 18 4 9 27 73 52 142
25 69 50 138 56 154 10 29 11 27 43 -60 17 -49 46 -126 62 -171z"/>
<path d="M346 3348 c-23 -32 -20 -85 8 -144 26 -57 42 -72 58 -56 8 8 5 26
-10 63 -12 28 -22 73 -22 100 0 56 -12 69 -34 37z"/>
<path d="M6953 3353 c-27 -10 -12 -39 31 -60 38 -18 45 -19 50 -6 8 19 -1 33
-20 33 -8 0 -17 6 -20 14 -7 17 -24 25 -41 19z"/>
<path d="M7661 3328 l-24 -30 -17 21 c-20 27 -47 19 -61 -17 -21 -56 52 -99
76 -44 5 12 18 22 28 22 18 0 21 5 31 53 8 35 -3 34 -33 -5z"/>
<path d="M7224 3338 c-5 -7 -19 -38 -31 -68 -19 -47 -21 -57 -9 -69 18 -18 36
-6 36 24 0 13 11 41 25 61 14 21 24 42 22 48 -5 16 -34 19 -43 4z"/>
<path d="M457 3333 c-14 -14 -7 -71 10 -77 26 -11 42 29 27 68 -6 16 -26 21
-37 9z"/>
<path d="M217 3323 c-4 -3 -7 -18 -7 -33 0 -15 -9 -35 -20 -45 -24 -22 -26
-58 -4 -80 31 -30 47 -14 62 63 8 39 12 79 8 87 -6 15 -28 20 -39 8z"/>
<path d="M7064 3285 c-8 -21 3 -45 20 -45 20 0 29 16 21 40 -7 23 -33 27 -41
5z"/>
<path d="M664 3276 c-6 -17 2 -36 17 -36 12 0 12 37 -1 45 -6 3 -13 -1 -16 -9z"/>
<path d="M7410 3260 c-14 -25 -7 -50 14 -50 26 0 84 -34 96 -55 6 -11 14 -43
18 -70 6 -41 11 -50 27 -50 17 0 20 6 17 43 -4 54 10 73 48 65 26 -5 29 -2 39
33 6 22 11 45 11 52 0 16 -30 15 -53 -3 -27 -20 -87 -8 -113 21 -11 14 -36 27
-56 30 -30 5 -38 3 -48 -16z"/>
<path d="M774 3236 c-9 -23 5 -68 19 -63 16 5 16 69 0 74 -7 3 -16 -2 -19 -11z"/>
<path d="M270 3220 c-18 -33 -2 -99 31 -133 53 -53 80 -4 35 64 -14 21 -26 45
-26 53 0 7 -6 19 -14 25 -12 10 -17 8 -26 -9z"/>
<path d="M463 3213 c-7 -3 -13 -20 -13 -38 0 -19 -4 -45 -10 -60 -8 -20 -6
-29 11 -46 25 -25 40 -16 33 20 -5 23 -2 32 16 41 39 21 4 99 -37 83z"/>
<path d="M600 3205 c-14 -17 -7 -43 20 -76 40 -49 54 -59 64 -49 10 10 -50
140 -64 140 -4 0 -13 -7 -20 -15z"/>
<path d="M850 3205 c-14 -17 -4 -55 15 -55 18 0 38 37 31 56 -7 18 -30 18 -46
-1z"/>
<path d="M7332 3198 c-16 -16 -15 -58 2 -58 19 0 38 26 34 46 -4 22 -20 28
-36 12z"/>
<path d="M3290 3171 c-46 -15 -105 -49 -126 -73 -74 -80 -71 -187 7 -252 39
-33 52 -39 193 -82 60 -18 116 -40 124 -47 39 -40 -34 -85 -110 -68 -45 10
-95 45 -103 71 -4 11 -9 20 -13 20 -12 -1 -175 -50 -179 -54 -18 -18 55 -112
118 -152 53 -33 134 -54 209 -54 175 0 291 90 291 226 0 101 -47 147 -190 190
-156 46 -186 58 -189 78 -5 26 24 46 66 46 37 0 66 -12 98 -42 22 -19 22 -19
95 2 41 12 82 24 91 26 16 5 16 8 4 32 -22 42 -76 89 -131 113 -54 24 -207 36
-255 20z"/>
<path d="M4845 3168 c-16 -6 -46 -22 -65 -35 l-35 -23 -3 25 c-3 25 -4 25
-108 25 l-104 0 0 -330 0 -330 105 0 105 0 0 195 c0 225 7 254 64 282 47 22
101 9 130 -30 19 -26 21 -44 24 -238 l3 -209 105 0 104 0 0 193 c0 166 3 198
19 233 32 69 120 83 172 28 23 -25 24 -30 27 -240 l3 -214 105 0 105 0 -3 248
c-3 237 -4 249 -27 292 -48 92 -107 130 -213 138 -81 6 -144 -10 -199 -50
l-40 -29 -32 25 c-70 53 -167 71 -242 44z"/>
<path d="M5885 3163 c-66 -24 -108 -55 -156 -115 -48 -61 -69 -129 -69 -224 0
-141 70 -254 192 -310 58 -27 72 -29 173 -29 101 0 115 3 168 29 59 30 147
114 147 140 0 9 -15 19 -37 25 -21 6 -60 17 -88 25 -48 15 -50 15 -75 -8 -74
-70 -229 -48 -265 37 l-13 32 246 5 247 5 -1 77 c-2 134 -69 243 -184 296 -73
35 -210 41 -285 15z m206 -181 c26 -15 59 -60 59 -81 0 -7 -47 -11 -145 -11
-80 0 -145 3 -145 8 0 17 41 72 62 83 55 30 119 30 169 1z"/>
<path d="M842 3123 c-11 -22 -5 -43 13 -43 19 0 27 17 20 40 -8 25 -21 26 -33
3z"/>
<path d="M207 3103 c-19 -19 7 -118 28 -109 8 3 18 -8 26 -26 10 -25 10 -34
-3 -56 -14 -25 -13 -34 10 -105 27 -86 52 -95 31 -12 -9 37 -9 50 -1 53 7 2
22 12 34 21 18 15 25 16 47 5 50 -24 71 -26 77 -10 7 19 -21 66 -39 66 -19 1
-64 43 -71 67 -5 15 -19 26 -39 31 -26 7 -34 15 -41 45 -7 28 -15 37 -31 37
-12 0 -25 -3 -28 -7z m133 -168 c0 -15 -6 -25 -14 -25 -22 0 -30 19 -16 35 18
22 30 18 30 -10z"/>
<path d="M7390 3074 c-15 -44 -6 -87 18 -82 19 4 47 80 38 103 -11 29 -44 17
-56 -21z"/>
<path d="M7200 3075 c0 -28 24 -34 34 -9 10 26 7 34 -14 34 -15 0 -20 -7 -20
-25z"/>
<path d="M7324 3086 c-10 -26 0 -51 21 -51 16 0 20 7 20 30 0 33 -30 49 -41
21z"/>
<path d="M6878 3054 c-12 -26 -3 -57 17 -57 15 0 36 49 29 67 -9 24 -33 19
-46 -10z"/>
<path d="M7215 3015 c-47 -46 -19 -96 29 -52 14 12 28 34 32 50 5 23 3 27 -15
27 -12 0 -33 -11 -46 -25z"/>
<path d="M498 2975 c-8 -19 -8 -28 2 -40 27 -32 67 -4 56 40 -8 33 -43 33 -58
0z"/>
<path d="M7441 2986 c-7 -8 -11 -30 -9 -48 l3 -33 83 0 c89 0 85 -2 94 60 5
32 -31 31 -58 -2 l-23 -28 -31 33 c-35 36 -42 38 -59 18z"/>
<path d="M839 2964 c-11 -14 -11 -18 6 -31 18 -13 20 -12 23 8 5 30 -12 44
-29 23z"/>
<path d="M6710 2921 c-13 -25 -2 -53 19 -49 17 3 43 47 35 60 -10 15 -43 8
-54 -11z"/>
<path d="M7062 2928 c-13 -13 -16 -58 -4 -58 14 0 32 23 32 41 0 23 -14 31
-28 17z"/>
<path d="M1003 2914 c-6 -16 19 -44 39 -44 15 0 20 30 8 45 -16 20 -39 19 -47
-1z"/>
<path d="M605 2899 c-4 -6 0 -30 10 -55 12 -32 22 -44 37 -44 18 0 20 4 15 36
-9 53 -46 90 -62 63z"/>
<path d="M690 2891 c-15 -29 -12 -61 5 -68 20 -7 21 -6 30 45 5 34 4 42 -9 42
-8 0 -20 -9 -26 -19z"/>
<path d="M7316 2884 c-9 -8 -16 -24 -16 -33 0 -10 -9 -25 -20 -32 -12 -8 -22
-27 -23 -44 -2 -26 2 -30 26 -33 22 -3 27 -8 27 -31 0 -21 -6 -30 -21 -34 -11
-3 -23 -14 -26 -25 -2 -11 -16 -25 -29 -32 -33 -18 -34 -82 -2 -104 29 -20 40
-11 33 28 -5 26 -1 39 19 63 14 17 26 38 26 48 0 9 5 13 10 10 20 -12 40 17
40 56 0 30 -5 42 -25 55 -32 21 -32 34 -1 34 31 0 55 32 48 65 -5 29 -41 34
-66 9z"/>
<path d="M465 2849 c-10 -15 15 -69 32 -69 22 0 27 28 9 55 -18 27 -31 31 -41
14z"/>
<path d="M7468 2824 c-35 -18 -48 -30 -48 -46 0 -12 -7 -29 -16 -39 -25 -28
-11 -52 26 -44 l30 7 0 -49 c0 -26 5 -55 10 -63 8 -13 11 -13 23 0 19 21 38
94 31 116 -3 11 -11 29 -17 42 -9 18 -7 26 11 45 24 25 29 57 10 57 -7 -1 -34
-12 -60 -26z"/>
<path d="M7178 2828 c-25 -20 -32 -57 -13 -64 21 -8 43 14 47 45 4 28 -11 36
-34 19z"/>
<path d="M373 2812 c-6 -4 -12 -27 -12 -52 0 -25 -2 -79 -4 -120 -5 -91 14
-144 41 -117 13 13 14 23 4 54 -12 42 -6 87 13 103 17 14 65 -29 65 -58 0 -20
25 -37 41 -26 18 11 10 56 -11 61 -11 3 -20 13 -20 22 0 20 -55 111 -78 129
-18 14 -23 14 -39 4z"/>
<path d="M6532 2807 c-10 -11 -9 -17 3 -27 24 -20 45 4 24 26 -14 13 -17 13
-27 1z"/>
<path d="M7561 2804 c0 -11 3 -14 6 -6 3 7 2 16 -1 19 -3 4 -6 -2 -5 -13z"/>
<path d="M557 2773 c-15 -14 -6 -53 15 -67 30 -21 45 -20 53 4 13 40 -42 90
-68 63z"/>
<path d="M6802 2768 c-27 -27 -6 -68 34 -68 36 0 49 25 30 55 -18 27 -45 32
-64 13z"/>
<path d="M7001 2766 c-15 -18 -3 -48 18 -44 21 4 28 58 8 58 -8 0 -20 -6 -26
-14z"/>
<path d="M7057 2753 c-11 -10 -8 -20 8 -27 10 -4 15 1 15 14 0 20 -11 26 -23
13z"/>
<path d="M775 2690 c-9 -15 14 -40 36 -40 26 0 32 16 13 34 -18 18 -40 21 -49
6z"/>
<path d="M7187 2693 c-4 -3 -7 -14 -7 -23 0 -9 -9 -25 -20 -35 -22 -20 -23
-56 -3 -62 11 -4 63 94 63 118 0 11 -24 12 -33 2z"/>
<path d="M7092 2678 c-7 -7 -12 -22 -12 -34 0 -15 -8 -24 -24 -28 -30 -7 -54
-64 -31 -73 18 -6 42 11 50 37 3 10 14 20 24 23 22 5 34 57 17 75 -9 9 -14 10
-24 0z"/>
<path d="M580 2662 c0 -10 6 -27 14 -38 21 -28 40 -7 27 29 -12 30 -41 37 -41
9z"/>
<path d="M844 2646 c-7 -19 11 -53 37 -67 28 -15 41 0 37 42 -3 30 -7 34 -36
37 -21 2 -34 -2 -38 -12z"/>
<path d="M7370 2616 c0 -20 -6 -36 -14 -39 -8 -3 -17 -19 -21 -36 -4 -17 -19
-40 -33 -51 -15 -11 -31 -25 -37 -31 -41 -45 -58 -56 -74 -52 -21 5 -44 -20
-39 -44 3 -15 12 -17 53 -14 65 4 81 14 95 56 11 34 34 47 42 23 10 -28 35 2
40 47 3 25 13 54 22 64 20 21 21 50 2 57 -8 3 -11 15 -8 30 3 17 0 24 -12 24
-12 0 -16 -9 -16 -34z"/>
<path d="M647 2618 c-6 -17 9 -45 50 -93 19 -22 39 -46 45 -53 7 -9 14 -10 20
-4 12 12 -1 39 -54 110 -39 53 -53 62 -61 40z"/>
<path d="M1087 2608 c-5 -16 10 -48 24 -48 14 0 7 52 -7 57 -7 2 -14 -2 -17
-9z"/>
<path d="M444 2545 c-20 -20 -25 -32 -20 -53 4 -15 10 -58 15 -96 5 -38 16
-75 24 -84 14 -14 17 -12 23 14 4 16 11 34 16 41 5 6 8 29 6 50 -3 37 -3 38
30 35 42 -4 42 13 -1 70 -40 52 -59 57 -93 23z"/>
<path d="M1065 2540 c-4 -7 2 -22 14 -33 16 -17 23 -19 33 -9 9 9 10 17 2 30
-14 21 -40 27 -49 12z"/>
<path d="M7099 2504 c-11 -13 -11 -20 2 -42 19 -34 55 -41 64 -12 8 24 -18 70
-39 70 -7 0 -20 -7 -27 -16z"/>
<path d="M597 2503 c-15 -14 -6 -51 18 -73 32 -30 52 -16 38 26 -10 29 -45 59
-56 47z"/>
<path d="M6654 2455 c-9 -22 22 -53 37 -38 15 15 7 47 -14 51 -9 2 -20 -4 -23
-13z"/>
<path d="M7022 2438 c-17 -17 -15 -48 2 -48 17 0 48 39 40 52 -7 12 -28 10
-42 -4z"/>
<path d="M6495 2420 c-21 -23 -11 -60 15 -60 20 0 40 27 40 53 0 23 -37 27
-55 7z"/>
<path d="M6734 2414 c-13 -20 -14 -28 -5 -37 10 -9 18 -6 37 16 13 16 22 33
19 38 -11 17 -34 9 -51 -17z"/>
<path d="M772 2373 c-17 -23 -28 -27 -65 -28 -25 0 -48 -3 -52 -7 -4 -3 1 -20
9 -37 9 -17 19 -65 23 -108 5 -62 11 -82 30 -101 13 -13 27 -20 33 -17 16 10
0 138 -21 161 -22 23 -25 43 -6 45 6 1 17 2 22 3 21 2 85 62 85 78 0 10 -9 22
-19 28 -16 8 -23 5 -39 -17z"/>
<path d="M7350 2367 c-9 -20 -24 -33 -37 -35 -25 -4 -56 -40 -46 -55 3 -5 17
-7 30 -4 24 4 25 3 20 -34 -7 -54 7 -41 49 44 58 120 58 117 26 117 -21 0 -31
-8 -42 -33z"/>
<path d="M557 2353 c-14 -13 -6 -42 19 -72 32 -38 54 -40 54 -5 0 52 -48 103
-73 77z"/>
<path d="M6906 2335 c-20 -21 -20 -39 0 -59 19 -20 24 -20 52 0 33 23 27 68
-9 72 -15 2 -34 -4 -43 -13z"/>
<path d="M1375 2300 c-9 -15 3 -47 21 -54 24 -9 36 3 28 27 -10 33 -37 47 -49
27z"/>
<path d="M6985 2269 c-16 -31 -14 -59 4 -59 11 0 51 62 51 79 0 24 -40 10 -55
-20z"/>
<path d="M967 2283 c-12 -12 -7 -24 19 -48 32 -30 44 -31 44 -7 0 38 -43 76
-63 55z"/>
<path d="M7198 2249 c-9 -26 -12 -29 -20 -15 -9 15 -11 15 -39 -1 -48 -28 -66
-118 -18 -93 13 8 19 7 19 -1 0 -7 13 -9 40 -4 37 6 41 5 57 -24 10 -17 21
-31 24 -31 3 0 14 18 24 41 24 53 12 75 -39 71 -42 -3 -43 1 -16 35 26 33 25
53 -1 53 -14 0 -24 -10 -31 -31z"/>
<path d="M7039 2248 c-9 -18 -8 -24 6 -34 24 -18 55 -1 55 31 0 20 -5 25 -25
25 -15 0 -29 -8 -36 -22z"/>
<path d="M908 2236 c-9 -22 -9 -29 4 -43 9 -8 21 -12 27 -9 16 10 13 51 -4 66
-12 10 -17 7 -27 -14z"/>
<path d="M1262 2248 c-18 -18 -15 -35 10 -52 28 -20 34 -20 42 0 6 17 -18 64
-32 64 -5 0 -13 -5 -20 -12z"/>
<path d="M581 2207 c-6 -6 -11 -17 -11 -24 0 -6 -7 -16 -15 -20 -11 -7 -6 -23
31 -91 45 -83 46 -83 82 -80 54 4 54 30 -2 81 -35 33 -44 47 -40 64 13 49 -18
97 -45 70z"/>
<path d="M857 2203 c-14 -13 -6 -43 13 -53 26 -14 37 8 20 39 -11 22 -22 26
-33 14z"/>
<path d="M6662 2188 c-17 -17 -15 -48 2 -48 14 0 46 36 46 52 0 12 -35 9 -48
-4z"/>
<path d="M6827 2183 c-13 -12 -7 -53 7 -53 17 0 48 39 40 52 -6 10 -38 11 -47
1z"/>
<path d="M6440 2125 c-16 -19 -5 -47 17 -43 23 4 31 58 10 58 -8 0 -20 -7 -27
-15z"/>
<path d="M6686 2124 c-20 -20 -12 -34 19 -34 21 0 35 17 35 41 0 15 -37 10
-54 -7z"/>
<path d="M6967 2133 c-12 -11 -7 -43 6 -43 17 0 37 20 37 37 0 13 -32 18 -43
6z"/>
<path d="M1296 2121 c-9 -14 9 -45 40 -70 34 -26 64 -27 64 -2 0 19 -43 71
-59 71 -5 0 -16 3 -24 6 -8 3 -18 1 -21 -5z"/>
<path d="M1135 2110 c-9 -14 18 -50 37 -50 20 0 23 13 8 41 -11 20 -35 25 -45
9z"/>
<path d="M797 2104 c-9 -10 12 -34 30 -34 19 0 12 34 -8 38 -8 1 -18 0 -22 -4z"/>
<path d="M1005 2085 c-22 -21 -23 -28 -14 -49 6 -13 20 -26 30 -29 14 -4 21 5
32 38 11 31 12 46 4 54 -16 16 -25 14 -52 -14z"/>
<path d="M7158 2079 c-19 -10 -25 -63 -10 -73 15 -9 53 35 50 57 -4 25 -17 30
-40 16z"/>
<path d="M6182 2053 c-13 -5 -42 -55 -42 -73 0 -18 28 -11 50 12 11 12 20 32
20 45 0 23 -4 26 -28 16z"/>
<path d="M6796 2053 c-11 -12 -6 -22 14 -28 23 -7 26 -32 8 -70 -14 -31 -7
-39 27 -31 16 4 25 13 25 27 0 11 7 34 16 50 22 44 13 57 -40 57 -24 0 -47 -2
-50 -5z"/>
<path d="M6966 2038 c-26 -40 -30 -77 -11 -85 38 -14 73 69 41 96 -12 10 -18
8 -30 -11z"/>
<path d="M742 2038 c-26 -26 -6 -88 29 -88 11 0 24 11 31 25 22 49 -25 98 -60
63z"/>
<path d="M6610 2035 c0 -8 7 -15 15 -15 8 0 15 7 15 15 0 8 -7 15 -15 15 -8 0
-15 -7 -15 -15z"/>
<path d="M6721 2026 c-15 -18 -5 -56 13 -56 19 0 38 26 34 47 -4 23 -31 28
-47 9z"/>
<path d="M7034 2015 c-15 -11 -17 -18 -9 -42 12 -31 45 -42 64 -20 9 11 9 21
0 40 -15 33 -32 39 -55 22z"/>
<path d="M885 2000 c-16 -51 30 -125 62 -98 17 14 16 43 -3 84 -18 38 -49 45
-59 14z"/>
<path d="M6525 2000 c-3 -5 -24 -19 -46 -30 -25 -13 -39 -27 -39 -40 0 -26 18
-35 38 -17 9 8 35 23 57 34 27 12 40 25 40 38 0 22 -38 34 -50 15z"/>
<path d="M1319 1984 c-10 -12 -8 -19 9 -37 25 -25 48 -12 38 21 -9 27 -32 34
-47 16z"/>
<path d="M7120 1981 c0 -5 -21 -32 -46 -60 -28 -31 -44 -57 -40 -66 6 -18 25
-12 84 28 42 28 51 52 36 91 -6 17 -34 22 -34 7z"/>
<path d="M6957 1922 c-29 -32 -49 -93 -42 -129 4 -25 -1 -48 -20 -88 -39 -84
-85 -94 -85 -18 0 61 -66 96 -103 55 -25 -27 -21 -49 12 -68 55 -33 64 -82 25
-140 -21 -30 -25 -44 -17 -64 13 -37 39 -36 74 1 29 31 31 42 18 87 -2 7 15
24 39 37 63 34 82 54 82 88 0 16 8 41 19 55 10 16 21 54 25 92 3 36 7 74 9 84
3 26 -16 30 -36 8z"/>
<path d="M677 1923 c-6 -11 54 -93 86 -117 22 -17 31 -18 46 -9 16 10 23 7 45
-26 29 -41 32 -61 15 -93 -17 -32 16 -92 42 -78 31 17 47 11 54 -19 4 -20 17
-34 39 -45 29 -14 45 -39 46 -70 0 -4 -16 6 -35 23 -20 17 -38 31 -40 31 -17
0 4 -34 55 -90 33 -36 60 -68 60 -71 0 -4 6 -9 14 -12 23 -9 9 112 -16 140
-15 16 -18 29 -13 51 5 24 1 36 -23 63 -16 19 -32 50 -35 69 -8 56 -39 131
-55 137 -8 4 -24 0 -35 -6 -16 -11 -22 -11 -28 0 -59 101 -98 136 -91 81 3
-20 0 -22 -25 -16 -15 4 -42 19 -58 35 -32 30 -41 34 -48 22z m283 -220 c0 -7
-4 -13 -9 -13 -10 0 -21 25 -21 48 1 15 3 14 15 -2 8 -11 15 -26 15 -33z"/>
<path d="M1146 1898 c-37 -53 3 -104 47 -59 17 17 19 25 11 48 -12 36 -38 40
-58 11z"/>
<path d="M1027 1873 c-24 -23 9 -73 49 -73 19 0 24 5 24 24 0 40 -50 73 -73
49z"/>
<path d="M6623 1873 c-7 -2 -13 -14 -13 -25 0 -14 6 -19 23 -16 14 2 22 10 22
22 0 21 -12 28 -32 19z"/>
<path d="M950 1840 c0 -11 7 -20 15 -20 8 0 15 9 15 20 0 11 -7 20 -15 20 -8
0 -15 -9 -15 -20z"/>
<path d="M6777 1849 c-9 -5 -21 -7 -27 -4 -5 3 -19 -4 -30 -15 -18 -18 -19
-24 -9 -37 12 -13 15 -13 30 6 14 17 19 19 26 8 24 -40 70 -18 59 28 -7 27
-20 31 -49 14z"/>
<path d="M1200 1813 c0 -10 7 -27 15 -37 8 -11 15 -34 15 -51 0 -45 51 -87 63
-52 2 6 -4 29 -14 49 -11 21 -19 48 -19 62 0 15 -8 30 -19 36 -28 15 -41 12
-41 -7z"/>
<path d="M7045 1795 c-52 -32 -97 -125 -61 -125 16 0 106 115 106 136 0 17 3
18 -45 -11z"/>
<path d="M6564 1775 c-8 -19 3 -35 26 -35 16 0 30 18 30 41 0 15 -50 10 -56
-6z"/>
<path d="M1383 1765 c-3 -10 3 -25 15 -37 26 -27 58 -18 42 12 -6 11 -19 24
-30 30 -16 9 -22 7 -27 -5z"/>
<path d="M6240 1725 c-7 -8 -9 -22 -6 -32 6 -15 9 -15 28 4 11 12 17 26 14 32
-10 15 -21 14 -36 -4z"/>
<path d="M6437 1733 c-16 -15 -6 -34 15 -31 29 4 38 38 10 38 -10 0 -22 -3
-25 -7z"/>
<path d="M6632 1728 c-18 -18 -14 -38 8 -38 16 0 40 26 40 44 0 11 -36 6 -48
-6z"/>
<path d="M1054 1708 c-9 -13 52 -71 66 -63 18 11 11 44 -12 59 -27 19 -44 20
-54 4z"/>
<path d="M6497 1703 c-4 -3 -7 -12 -7 -20 0 -17 26 -17 33 1 8 21 -11 35 -26
19z"/>
<path d="M1250 1621 c0 -40 73 -103 100 -86 16 10 -16 61 -53 84 -42 26 -47
26 -47 2z"/>
<path d="M1589 1624 c-18 -21 0 -48 35 -52 20 -3 26 1 26 17 0 49 -33 69 -61
35z"/>
<path d="M1173 1613 c-33 -13 1 -83 40 -83 24 0 31 37 13 65 -16 24 -28 29
-53 18z"/>
<path d="M6311 1574 c-25 -31 -27 -62 -7 -90 15 -19 15 -19 30 1 21 28 39 83
32 100 -8 23 -32 18 -55 -11z"/>
<path d="M1485 1581 c-9 -16 7 -91 23 -107 22 -23 37 -12 40 30 5 56 -41 112
-63 77z"/>
<path d="M6860 1580 c-12 -7 -12 -12 -1 -34 11 -20 18 -23 31 -16 20 11 33 37
24 51 -7 12 -35 11 -54 -1z"/>
<path d="M5940 1565 c0 -8 7 -15 15 -15 8 0 15 7 15 15 0 8 -7 15 -15 15 -8 0
-15 -7 -15 -15z"/>
<path d="M6610 1560 c-6 -12 -10 -33 -8 -48 4 -33 34 -40 77 -17 37 19 40 42
7 55 -13 5 -27 14 -31 19 -10 18 -33 13 -45 -9z"/>
<path d="M6027 1536 c-6 -15 11 -36 28 -36 17 0 34 21 28 36 -3 8 -15 14 -28
14 -13 0 -25 -6 -28 -14z"/>
<path d="M6515 1520 c-21 -23 -14 -50 13 -50 25 0 56 35 49 55 -9 21 -40 19
-62 -5z"/>
<path d="M1145 1500 c-8 -13 4 -32 16 -25 12 8 12 35 0 35 -6 0 -13 -4 -16
-10z"/>
<path d="M5663 1474 c-3 -8 0 -21 6 -27 10 -9 16 -8 27 7 8 11 14 23 14 28 0
15 -41 8 -47 -8z"/>
<path d="M1210 1457 c0 -19 39 -59 51 -52 14 10 11 30 -9 48 -22 20 -42 22
-42 4z"/>
<path d="M1320 1459 c0 -26 25 -51 88 -89 38 -22 80 -40 94 -40 16 0 34 -10
45 -24 24 -30 59 -42 66 -22 7 19 -29 56 -54 56 -11 0 -32 14 -46 30 -14 17
-35 30 -47 30 -13 0 -44 16 -69 35 -46 35 -77 45 -77 24z"/>
<path d="M2010 1423 c0 -22 18 -43 38 -43 9 0 12 9 10 28 -4 33 -48 47 -48 15z"/>
<path d="M5762 1418 c-16 -16 -15 -45 2 -51 8 -3 22 3 31 13 30 33 -2 69 -33
38z"/>
<path d="M6110 1412 c-23 -19 -24 -20 -6 -46 9 -15 15 -33 13 -39 -7 -21 13
-47 36 -47 46 0 63 47 27 73 -11 8 -23 25 -25 37 -7 37 -20 42 -45 22z"/>
<path d="M1169 1388 c-22 -41 42 -119 69 -84 21 25 23 57 8 81 -21 32 -61 33
-77 3z"/>
<path d="M6384 1381 c-43 -20 -88 -67 -78 -83 3 -5 20 0 39 10 18 11 48 23 66
27 60 11 90 27 87 44 -5 23 -65 25 -114 2z"/>
<path d="M6723 1388 c-6 -7 -12 -20 -16 -29 -3 -10 -22 -19 -46 -23 -28 -4
-46 -14 -57 -31 -9 -14 -23 -25 -30 -25 -8 0 -14 -7 -14 -15 0 -12 4 -13 18
-6 9 5 29 7 43 4 22 -4 36 5 83 54 56 58 69 83 42 83 -7 0 -18 -6 -23 -12z"/>
<path d="M1966 1371 c-10 -15 5 -40 27 -47 12 -3 30 -13 40 -22 12 -10 21 -12
27 -6 7 7 -1 23 -25 47 -35 36 -58 46 -69 28z"/>
<path d="M6574 1355 c-17 -26 -12 -45 11 -45 18 0 38 37 31 56 -8 21 -24 17
-42 -11z"/>
<path d="M5892 1348 c-13 -13 -16 -41 -5 -51 9 -9 53 33 53 50 0 16 -32 17
-48 1z"/>
<path d="M1330 1332 c0 -25 35 -56 55 -49 18 7 19 21 5 48 -14 25 -60 26 -60
1z"/>
<path d="M2352 1333 c2 -11 14 -19 31 -21 23 -3 28 0 25 15 -2 11 -14 19 -31
21 -23 3 -28 0 -25 -15z"/>
<path d="M1760 1327 c0 -19 33 -47 53 -47 22 0 22 23 -1 43 -22 20 -52 22 -52
4z"/>
<path d="M6197 1285 c-21 -15 -22 -44 -2 -51 19 -8 45 13 45 36 0 23 -21 31
-43 15z"/>
<path d="M1274 1263 c-7 -28 11 -73 33 -81 21 -6 36 47 22 80 -15 37 -46 37
-55 1z"/>
<path d="M1462 1268 c-18 -18 -15 -43 9 -64 12 -10 27 -31 35 -46 16 -31 61
-65 72 -54 3 4 -4 26 -16 49 -12 23 -22 48 -22 55 0 7 -7 26 -15 42 -16 31
-42 39 -63 18z"/>
<path d="M6450 1245 c-51 -37 -56 -52 -29 -81 26 -28 64 -31 78 -6 8 15 15 68
12 100 -2 19 -24 14 -61 -13z"/>
<path d="M1701 1207 c-8 -11 -6 -18 8 -31 32 -29 69 2 39 32 -16 16 -33 15
-47 -1z"/>
<path d="M6009 1199 c-7 -15 -8 -24 0 -32 14 -14 41 9 41 34 0 26 -27 24 -41
-2z"/>
<path d="M1398 1183 c-10 -21 -22 -29 -46 -31 -17 -2 -32 -7 -32 -12 0 -16 69
-62 85 -56 8 3 41 -8 72 -24 73 -36 96 -40 101 -17 5 27 -16 46 -59 53 -21 4
-46 12 -56 19 -17 13 -17 14 0 32 14 16 15 22 4 35 -6 9 -22 19 -34 22 -17 6
-24 1 -35 -21z"/>
<path d="M1817 1193 c-11 -10 24 -43 45 -43 20 0 24 20 6 38 -13 13 -41 16
-51 5z"/>
<path d="M5478 1189 c-25 -14 -24 -59 1 -59 25 0 53 28 49 49 -4 19 -27 24
-50 10z"/>
<path d="M6300 1180 c-18 -34 3 -49 38 -29 35 19 35 43 0 47 -19 2 -30 -3 -38
-18z"/>
<path d="M5654 1175 c-7 -18 3 -35 21 -35 18 0 47 29 40 41 -10 14 -55 10 -61
-6z"/>
<path d="M5330 1165 c-10 -12 -10 -19 -1 -28 14 -14 46 2 46 24 0 20 -30 23
-45 4z"/>
<path d="M6149 1121 c-22 -21 -39 -44 -39 -50 0 -22 31 -24 53 -3 12 11 33 23
47 27 35 10 50 24 50 46 0 15 -7 19 -36 19 -29 0 -44 -8 -75 -39z"/>
<path d="M1615 1136 c-16 -11 -17 -18 -8 -38 6 -13 23 -30 38 -38 25 -13 28
-13 41 5 40 54 -17 111 -71 71z"/>
<path d="M1957 1123 c-12 -12 -7 -20 20 -32 21 -10 28 -9 34 1 15 24 -33 52
-54 31z"/>
<path d="M6446 1099 c-26 -31 -33 -49 -18 -49 10 0 72 63 72 73 0 18 -31 4
-54 -24z"/>
<path d="M5707 1098 c-42 -31 28 -99 72 -71 13 9 18 59 7 70 -11 11 -64 12
-79 1z"/>
<path d="M5909 1074 c-57 -36 -60 -85 -5 -64 15 5 44 10 63 10 l36 0 -21 -23
c-12 -13 -22 -31 -22 -41 0 -15 5 -17 30 -12 26 5 32 2 40 -19 11 -30 24 -31
92 -5 65 25 68 25 68 1 0 -10 7 -24 16 -31 13 -11 20 -9 46 18 25 25 29 34 20
45 -16 19 -112 30 -151 16 -38 -13 -61 1 -61 37 0 13 -8 25 -18 28 -11 4 -18
15 -18 29 1 19 -5 22 -44 24 -28 2 -55 -3 -71 -13z"/>
<path d="M6312 1064 c-29 -20 -26 -58 5 -62 25 -4 59 39 49 63 -7 19 -26 19
-54 -1z"/>
<path d="M1723 1054 c-6 -15 19 -44 38 -44 13 0 19 33 8 46 -16 19 -38 18 -46
-2z"/>
<path d="M3000 1054 c-11 -13 -10 -19 7 -36 24 -24 53 -18 53 10 0 38 -37 54
-60 26z"/>
<path d="M4836 1045 c-7 -19 32 -41 46 -27 15 15 2 42 -21 42 -10 0 -21 -7
-25 -15z"/>
<path d="M1600 1025 c0 -14 37 -55 50 -55 17 0 18 15 4 41 -15 30 -54 40 -54
14z"/>
<path d="M1450 1020 c0 -12 40 -34 47 -26 9 8 -17 36 -33 36 -8 0 -14 -4 -14
-10z"/>
<path d="M5023 1023 c-7 -2 -13 -11 -13 -20 0 -21 44 -13 48 10 3 17 -10 21
-35 10z"/>
<path d="M5272 1018 c6 -18 28 -21 28 -4 0 9 -7 16 -16 16 -9 0 -14 -5 -12
-12z"/>
<path d="M5094 1009 c-3 -6 -2 -15 4 -21 15 -15 46 -5 50 15 3 12 -3 17 -22
17 -14 0 -28 -5 -32 -11z"/>
<path d="M5529 989 c-15 -15 -18 -24 -10 -32 17 -17 65 4 69 31 4 29 -30 30
-59 1z"/>
<path d="M1877 983 c-12 -11 -8 -40 7 -52 7 -6 38 -13 68 -15 29 -3 58 -6 63
-8 19 -6 18 16 -1 26 -11 6 -36 21 -56 33 -37 23 -69 29 -81 16z"/>
<path d="M1530 959 c0 -3 20 -23 45 -44 33 -26 57 -38 83 -39 21 -1 63 -16 95
-35 59 -33 77 -34 77 0 0 28 -32 55 -76 63 -22 4 -53 18 -69 30 -21 17 -48 25
-93 28 -34 2 -62 1 -62 -3z"/>
<path d="M5790 963 c-24 -9 -50 -35 -44 -44 3 -5 36 -9 75 -9 62 0 69 2 69 20
0 32 -54 50 -100 33z"/>
<path d="M5320 941 c-7 -15 -6 -24 6 -36 9 -9 21 -14 27 -12 18 6 31 33 24 51
-9 22 -44 20 -57 -3z"/>
<path d="M2080 932 c0 -11 7 -25 16 -33 10 -8 14 -22 10 -40 -6 -31 24 -65 49
-56 12 5 13 11 3 34 -6 15 -14 46 -17 68 -5 34 -10 40 -33 43 -22 3 -28 -1
-28 -16z"/>
<path d="M5447 943 c-4 -3 -7 -17 -7 -30 0 -13 -6 -32 -12 -43 -9 -15 -10 -22
-1 -31 8 -8 20 -5 47 16 40 31 53 59 36 80 -13 15 -51 20 -63 8z"/>
<path d="M2253 918 c-29 -37 -18 -68 22 -68 43 0 62 50 26 70 -26 13 -36 13
-48 -2z"/>
<path d="M3532 922 c-17 -12 -4 -42 18 -42 25 0 35 18 20 35 -14 17 -20 18
-38 7z"/>
<path d="M4593 903 c-7 -2 -13 -11 -13 -19 0 -11 8 -14 28 -12 16 2 27 9 27
18 0 15 -21 22 -42 13z"/>
<path d="M2598 869 c-23 -13 -23 -32 2 -54 13 -12 27 -15 45 -11 32 8 33 39 3
60 -26 19 -27 19 -50 5z"/>
<path d="M4835 864 c-20 -20 -15 -38 12 -42 24 -4 47 22 39 43 -7 20 -30 19
-51 -1z"/>
<path d="M5872 868 c-29 -29 -3 -84 35 -76 20 4 39 48 30 72 -7 19 -48 21 -65
4z"/>
<path d="M6029 862 c-30 -25 -20 -52 19 -52 45 0 82 50 46 64 -26 10 -41 7
-65 -12z"/>
<path d="M5562 858 c-17 -17 -15 -32 8 -53 11 -10 19 -28 18 -39 -2 -13 5 -24
20 -32 15 -7 20 -14 13 -18 -20 -13 -13 -46 11 -46 12 0 18 -3 15 -7 -4 -3 -2
-12 4 -20 14 -15 55 -17 64 -3 9 14 -13 40 -34 40 -11 0 -16 9 -16 33 0 29 3
32 32 33 18 1 39 7 48 14 17 14 16 56 0 54 -6 -1 -23 -5 -40 -8 -29 -6 -47 2
-111 49 -15 11 -23 12 -32 3z"/>
<path d="M1856 842 c-7 -12 7 -29 30 -36 25 -8 39 15 21 33 -13 13 -44 15 -51
3z"/>
<path d="M5137 843 c-4 -3 -7 -15 -7 -25 0 -12 7 -18 24 -18 26 0 51 24 41 40
-7 11 -48 14 -58 3z"/>
<path d="M3063 814 c-7 -18 12 -34 40 -34 22 0 23 36 1 44 -25 9 -34 7 -41
-10z"/>
<path d="M4002 804 c2 -11 11 -20 22 -22 13 -3 17 1 14 14 -2 11 -11 20 -22
22 -13 3 -17 -1 -14 -14z"/>
<path d="M1974 788 c-18 -56 -11 -75 35 -98 55 -27 72 -14 36 28 -14 17 -30
44 -36 61 -13 37 -25 40 -35 9z"/>
<path d="M2342 788 c-15 -15 3 -38 29 -38 20 0 23 8 13 34 -7 19 -25 21 -42 4z"/>
<path d="M3434 789 c-10 -18 13 -32 40 -25 37 9 34 36 -3 36 -17 0 -33 -5 -37
-11z"/>
<path d="M4411 791 c-18 -12 -7 -41 17 -41 21 0 42 18 42 37 0 15 -38 17 -59
4z"/>
<path d="M1830 764 c-13 -14 -11 -19 15 -40 21 -18 40 -24 65 -22 42 4 46 23
10 49 -38 28 -74 33 -90 13z"/>
<path d="M4036 771 c-11 -18 6 -42 28 -39 29 4 29 42 -1 46 -11 2 -24 -1 -27
-7z"/>
<path d="M5322 768 c-5 -7 -7 -28 -5 -46 5 -28 9 -33 30 -30 22 3 26 9 28 46
3 38 1 42 -20 42 -12 0 -27 -6 -33 -12z"/>
<path d="M5796 761 c-32 -36 -17 -43 84 -43 103 0 136 6 144 28 6 16 6 16 -89
19 -38 2 -81 6 -95 10 -19 5 -30 1 -44 -14z"/>
<path d="M2112 758 c-18 -18 -15 -35 9 -52 37 -26 96 17 68 50 -14 17 -61 18
-77 2z"/>
<path d="M3952 759 c-31 -12 -25 -43 9 -47 29 -3 54 20 45 43 -6 17 -20 18
-54 4z"/>
<path d="M2652 748 c7 -19 38 -22 38 -4 0 10 -9 16 -21 16 -12 0 -19 -5 -17
-12z"/>
<path d="M4310 744 c-11 -12 -10 -18 3 -31 18 -18 44 -12 54 13 11 30 -35 45
-57 18z"/>
<path d="M4722 748 c-19 -19 -14 -38 11 -38 25 0 47 17 47 37 0 16 -42 17 -58
1z"/>
<path d="M5084 740 c-28 -11 -38 -39 -17 -47 20 -8 68 18 68 37 0 18 -22 22
-51 10z"/>
<path d="M2405 731 c-13 -22 58 -62 77 -43 6 6 0 17 -18 31 -29 22 -49 27 -59
12z"/>
<path d="M5476 695 c-8 -9 -13 -21 -10 -29 3 -8 -11 -20 -37 -31 -22 -11 -48
-30 -57 -45 -9 -14 -25 -31 -34 -38 -23 -17 -23 -39 0 -51 24 -13 42 0 61 41
16 32 51 51 51 28 0 -7 -20 -35 -44 -63 l-44 -52 -62 2 c-34 1 -67 6 -73 12
-6 6 -27 11 -46 11 -20 0 -51 9 -69 20 -38 24 -90 26 -98 5 -4 -8 7 -27 25
-46 29 -29 34 -30 81 -24 l50 7 0 -31 0 -32 68 7 c37 3 79 10 94 16 15 6 34 8
41 5 19 -7 77 22 77 39 0 7 9 31 20 53 15 28 29 41 50 45 17 3 44 9 60 12 22
5 36 1 49 -11 18 -15 22 -15 49 -1 24 12 28 20 24 41 -6 33 -26 42 -58 25 -18
-10 -30 -11 -49 -2 -14 7 -41 12 -60 12 -39 0 -48 23 -18 45 19 14 11 45 -11
45 -8 0 -21 -7 -30 -15z"/>
<path d="M2835 690 c-9 -15 13 -40 37 -40 14 0 19 6 16 23 -3 24 -41 36 -53
17z"/>
<path d="M2307 684 c-12 -12 14 -34 40 -34 18 0 24 5 21 18 -3 17 -48 29 -61
16z"/>
<path d="M2634 678 c-7 -11 38 -58 57 -58 22 0 22 34 0 52 -27 21 -47 23 -57
6z"/>
<path d="M4725 680 c-10 -16 15 -41 39 -38 32 5 28 42 -6 46 -14 2 -29 -2 -33
-8z"/>
<path d="M5368 671 c-28 -24 -13 -47 25 -37 32 8 42 33 18 46 -15 7 -25 5 -43
-9z"/>
<path d="M4888 654 c-17 -36 0 -59 43 -59 37 0 46 16 35 61 -9 35 -62 34 -78
-2z"/>
<path d="M1960 660 c0 -14 58 -42 65 -31 3 5 -2 17 -11 25 -17 18 -54 22 -54
6z"/>
<path d="M3000 655 c-31 -38 40 -64 85 -31 16 12 17 16 6 30 -17 20 -74 21
-91 1z"/>
<path d="M5156 654 c-31 -31 -13 -74 31 -74 31 0 50 39 34 69 -14 25 -43 27
-65 5z"/>
<path d="M2525 651 c-9 -16 3 -31 26 -31 14 0 19 6 17 17 -4 20 -33 29 -43 14z"/>
<path d="M3197 643 c-4 -3 -2 -12 4 -20 15 -17 59 -17 59 1 0 21 -47 35 -63
19z"/>
<path d="M5728 639 c-22 -13 -23 -32 -2 -50 13 -11 23 -9 60 11 25 13 43 28
41 34 -5 15 -77 19 -99 5z"/>
<path d="M2225 631 c-14 -24 54 -71 105 -71 16 0 20 7 20 29 0 36 -6 40 -68
48 -33 3 -52 1 -57 -6z"/>
<path d="M3605 630 c-7 -12 41 -44 55 -35 5 3 10 12 10 20 0 22 -53 35 -65 15z"/>
<path d="M4071 626 c-8 -10 -8 -16 1 -24 17 -13 58 3 58 23 0 19 -43 20 -59 1z"/>
<path d="M3851 621 c-17 -11 -7 -41 12 -41 19 0 40 26 32 40 -8 12 -25 13 -44
1z"/>
<path d="M4448 619 c-23 -13 -23 -26 1 -34 39 -12 72 25 35 39 -19 7 -15 8
-36 -5z"/>
<path d="M2120 595 c-16 -19 -2 -38 41 -55 34 -15 43 -10 34 19 -14 46 -52 64
-75 36z"/>
<path d="M3442 593 c-35 -12 -41 -18 -31 -29 16 -20 103 -18 124 2 38 38 -18
54 -93 27z"/>
<path d="M5282 598 c-21 -21 -13 -29 26 -26 25 2 37 8 37 18 0 19 -46 25 -63
8z"/>
<path d="M4286 592 c-2 -4 -1 -14 3 -21 11 -18 45 -10 49 12 3 12 -3 17 -22
17 -14 0 -27 -4 -30 -8z"/>
<path d="M3271 577 c-13 -17 -5 -27 24 -27 12 0 25 3 28 7 9 8 -12 33 -28 33
-7 0 -18 -6 -24 -13z"/>
<path d="M3977 564 c-9 -10 2 -24 19 -24 8 0 14 7 14 15 0 15 -21 21 -33 9z"/>
<path d="M2458 553 c-10 -2 -18 -8 -18 -11 1 -20 20 -30 65 -35 28 -3 64 -9
81 -12 42 -9 51 9 20 40 -21 21 -34 25 -78 24 -29 -1 -61 -3 -70 -6z"/>
<path d="M2775 550 c-10 -16 2 -28 41 -40 71 -24 175 15 108 40 -33 13 -141
13 -149 0z"/>
<path d="M2660 535 c-8 -9 -7 -17 5 -28 36 -37 93 -28 69 10 -15 23 -60 34
-74 18z"/>
<path d="M4560 537 c0 -25 27 -39 87 -44 48 -4 62 -2 83 15 14 11 23 22 20 25
-3 2 -47 7 -97 11 -77 6 -93 4 -93 -7z"/>
<path d="M3321 526 c-9 -11 -7 -18 10 -30 24 -16 39 -13 39 9 0 23 -36 37 -49
21z"/>
<path d="M4350 530 c-12 -7 -12 -13 -4 -27 16 -26 51 -28 59 -4 11 37 -19 54
-55 31z"/>
<path d="M2341 516 c-10 -12 -7 -18 13 -31 14 -10 33 -15 41 -11 24 9 18 36
-11 46 -32 12 -29 13 -43 -4z"/>
<path d="M3054 519 c-3 -6 -2 -15 4 -21 15 -15 56 -5 60 15 3 13 -3 17 -27 17
-16 0 -33 -5 -37 -11z"/>
<path d="M2245 510 c-3 -5 3 -14 14 -19 26 -14 31 -14 31 3 0 16 -37 29 -45
16z"/>
<path d="M3757 513 c-12 -11 -7 -40 8 -53 12 -10 21 -10 40 -2 29 13 31 24 9
46 -16 16 -46 21 -57 9z"/>
<path d="M3157 493 c-24 -23 5 -63 60 -81 45 -15 51 1 18 49 -26 37 -60 51
-78 32z"/>
<path d="M4204 485 c-11 -27 4 -47 28 -39 27 8 38 22 31 41 -7 18 -52 17 -59
-2z"/>
<path d="M4773 484 c-8 -23 12 -38 41 -30 39 10 36 46 -4 46 -19 0 -33 -6 -37
-16z"/>
<path d="M4862 444 c-57 -38 -63 -61 -16 -56 16 2 54 4 84 5 62 2 79 24 35 47
-14 7 -25 19 -25 27 0 21 -22 15 -78 -23z"/>
<path d="M4391 456 c-8 -10 -9 -16 -1 -21 5 -3 13 1 16 10 9 22 -1 29 -15 11z"/>
<path d="M2370 451 c0 -9 61 -41 79 -41 17 0 13 37 -5 44 -24 9 -74 7 -74 -3z"/>
<path d="M2495 450 c-3 -5 8 -18 25 -29 17 -10 39 -29 47 -41 15 -21 85 -59
110 -60 20 0 -40 89 -64 96 -12 3 -29 14 -39 25 -18 20 -69 26 -79 9z"/>
<path d="M2650 435 c0 -23 60 -56 95 -53 45 4 45 34 -1 53 -48 20 -94 20 -94
0z"/>
<path d="M2915 429 c-11 -4 -41 -8 -67 -8 -43 -1 -48 -4 -54 -27 -4 -17 -2
-29 7 -35 20 -13 87 -11 95 2 4 7 24 9 55 6 53 -7 61 -2 49 29 -10 26 -57 44
-85 33z"/>
<path d="M3595 431 c-11 -19 5 -31 41 -31 28 0 35 4 32 18 -4 19 -62 30 -73
13z"/>
<path d="M3934 430 c-31 -12 -37 -26 -18 -44 30 -30 74 -16 74 24 0 16 -34 28
-56 20z"/>
<path d="M3121 421 c-21 -13 -4 -31 30 -31 31 0 41 23 13 34 -20 8 -26 7 -43
-3z"/>
<path d="M4453 420 c-28 -11 -29 -16 -3 -30 28 -15 67 5 49 26 -13 16 -16 16
-46 4z"/>
<path d="M3494 408 c-3 -5 -3 -25 0 -44 9 -45 -7 -74 -42 -74 -16 0 -37 -7
-48 -15 -10 -8 -35 -15 -54 -15 -41 0 -60 -15 -60 -45 0 -54 45 -58 99 -10 46
42 106 49 136 15 10 -11 22 -20 28 -20 5 0 22 -11 39 -25 16 -14 41 -25 55
-25 14 0 36 -9 50 -20 31 -24 81 -26 128 -3 33 16 37 16 64 0 31 -18 116 -23
125 -8 8 13 -43 44 -83 51 -29 4 -36 11 -43 38 -12 44 -54 65 -74 37 -12 -16
-11 -21 6 -40 27 -29 26 -49 -2 -41 -13 3 -44 6 -70 6 -47 0 -56 5 -95 53 -6
8 -29 17 -51 21 -48 7 -60 21 -38 45 16 18 12 53 -13 98 -12 23 -48 36 -57 21z"/>
<path d="M4083 413 c-25 -9 -14 -33 15 -33 35 0 45 9 31 27 -12 13 -25 15 -46
6z"/>
<path d="M2480 400 c0 -5 7 -10 15 -10 8 0 15 5 15 10 0 6 -7 10 -15 10 -8 0
-15 -4 -15 -10z"/>
<path d="M4596 397 c-28 -20 -18 -68 17 -80 16 -5 30 -7 31 -6 2 2 7 25 10 52
7 45 6 47 -16 47 -14 0 -32 -6 -42 -13z"/>
<path d="M3340 380 c-13 -9 -12 -12 4 -25 26 -20 106 -20 106 -1 0 8 -4 17 -8
20 -20 12 -88 16 -102 6z"/>
<path d="M5001 363 c-36 -49 -41 -53 -69 -59 -15 -3 -45 -14 -67 -24 -22 -10
-58 -22 -81 -27 -36 -8 -44 -7 -68 14 -33 28 -37 28 -66 5 l-23 -18 31 -35
c29 -32 31 -33 64 -21 19 6 44 12 56 12 13 0 48 9 79 20 32 11 70 20 85 20 15
0 44 12 65 26 27 18 46 24 66 20 27 -5 77 10 77 25 0 4 -11 10 -25 13 -14 4
-25 10 -25 15 0 18 -32 41 -55 41 -14 0 -32 -11 -44 -27z"/>
<path d="M3039 361 l-24 -20 21 -21 c17 -17 25 -19 48 -10 40 15 88 12 115 -6
23 -17 25 -42 6 -101 -6 -18 -2 -22 25 -28 17 -4 33 -5 34 -3 2 1 6 33 10 70
l7 67 -28 6 c-16 3 -54 19 -85 35 -66 35 -97 37 -129 11z"/>
<path d="M2766 334 c-12 -30 12 -51 80 -69 56 -15 72 -16 100 -6 19 7 38 10
43 6 16 -9 105 -24 114 -18 13 8 -14 33 -37 33 -11 0 -28 6 -37 13 -17 13
-124 15 -176 3 -29 -7 -33 -4 -48 23 -17 34 -30 39 -39 15z"/>
<path d="M3595 340 c-11 -17 15 -40 46 -40 35 0 48 19 24 37 -22 16 -61 17
-70 3z"/>
<path d="M4207 343 c-4 -3 -7 -14 -7 -23 0 -22 -45 -32 -105 -23 -41 5 -45 4
-45 -15 0 -11 13 -30 29 -41 21 -15 28 -27 24 -41 -3 -11 0 -27 7 -35 7 -8 10
-21 7 -29 -7 -18 14 -27 47 -18 16 4 33 22 46 47 26 50 25 53 -7 57 -38 4 -40
26 -4 39 37 13 66 60 48 78 -12 12 -30 14 -40 4z"/>
<path d="M4365 339 c-4 -5 -4 -21 -1 -34 5 -20 0 -26 -32 -42 -30 -15 -37 -24
-38 -48 0 -16 -5 -40 -12 -52 -17 -32 -16 -33 29 -33 71 0 103 35 59 62 -11 7
-20 16 -20 20 0 17 41 48 63 48 45 0 79 70 41 84 -25 10 -82 7 -89 -5z"/>
<path d="M4773 339 c-18 -18 -3 -39 27 -39 30 0 56 23 45 40 -8 13 -58 13 -72
-1z"/>
<path d="M3718 334 c-12 -12 2 -24 28 -24 14 0 37 -9 53 -21 25 -18 33 -19 67
-10 21 6 50 12 64 13 17 2 25 9 25 23 0 16 -5 19 -25 16 -45 -6 -165 -5 -185
3 -11 4 -24 4 -27 0z"/>
<path d="M4540 281 c-8 -5 -32 -11 -52 -15 -37 -7 -78 -45 -78 -72 0 -19 43
-28 87 -17 29 6 42 16 53 40 8 17 25 34 38 38 32 8 28 35 -5 35 -16 0 -35 -4
-43 -9z"/>
<path d="M3989 234 c-11 -14 -10 -18 5 -30 24 -17 56 -2 56 26 0 25 -41 27
-61 4z"/>
<path d="M4579 218 c-7 -13 -19 -28 -28 -35 -13 -10 -10 -12 21 -13 39 0 71
29 61 56 -8 22 -41 16 -54 -8z"/>
<path d="M3053 216 c21 -16 95 -32 105 -22 13 14 -20 29 -70 33 -48 4 -51 3
-35 -11z"/>
<path d="M3465 173 c-104 -9 -110 -30 -10 -34 69 -3 105 6 105 27 0 14 -8 15
-95 7z"/>
</g>
</svg>
