<svg version="1.1" id="Layer_1" xmlns="http://www.w3.org/2000/svg" xmlns:xlink="http://www.w3.org/1999/xlink" x="0px" y="0px"
	 width="100%" viewBox="0 0 4202 1033" enable-background="new 0 0 4202 1033" xml:space="preserve">
<path fill="#000000" opacity="1.000000" stroke="none" 
	d="
M3050.000000,1036.000000 
	C2033.430176,1036.000000 1017.860291,1036.000000 2.145202,1036.000000 
	C2.145202,691.463013 2.145202,346.925995 2.145202,2.194476 
	C1402.666626,2.194476 2803.333252,2.194476 4203.944336,2.194476 
	C4203.944336,346.806976 4203.944336,691.403503 4203.944336,1036.000000 
	C3819.592041,1036.000000 3435.296143,1036.000000 3050.000000,1036.000000 
M982.125610,583.000000 
	C982.192139,458.672485 982.308655,334.344971 982.230530,210.017548 
	C982.224304,200.071426 981.960083,189.903961 979.974670,180.216690 
	C967.432373,119.019875 932.031555,77.552933 872.233337,57.937878 
	C850.724670,50.882610 828.279419,50.780220 805.957520,50.761009 
	C659.631836,50.635086 513.305786,50.494091 366.980133,50.654396 
	C309.660217,50.717190 252.334564,51.165169 195.023666,52.146252 
	C150.949707,52.900742 114.759514,71.362221 85.535316,103.979210 
	C57.670280,135.079239 46.445118,172.118057 46.445919,213.235306 
	C46.449718,407.892914 46.369556,602.550537 46.415398,797.208130 
	C46.419006,812.527161 46.681290,827.876038 47.642170,843.159607 
	C50.964561,896.004822 76.825188,935.554321 120.601089,963.908508 
	C148.077576,981.705261 178.983810,987.226196 211.185684,987.210693 
	C413.508667,987.113464 615.831665,987.050293 818.154602,986.848694 
	C829.459778,986.837402 840.956787,986.814636 852.038025,984.903870 
	C943.873779,969.068054 983.398071,890.224609 982.589050,829.985107 
	C981.492615,748.336060 982.195679,666.662842 982.125610,583.000000 
M2013.999634,586.936462 
	C2013.328735,589.165405 2012.664429,591.396362 2011.985962,593.622986 
	C2005.102905,616.205139 1998.312622,638.816406 1991.229736,661.335754 
	C1990.173584,664.693665 1990.572021,669.757507 1984.114990,670.123230 
	C1982.663940,666.223694 1981.063599,662.268616 1979.709229,658.231079 
	C1956.439697,588.855164 1933.193726,519.471436 1909.958374,450.084106 
	C1902.563843,428.001556 1895.248413,405.892548 1887.830811,383.817810 
	C1884.783569,374.749023 1880.181396,366.829529 1871.186035,362.304443 
	C1850.676514,351.987213 1826.767212,360.907684 1818.280884,382.110352 
	C1817.293701,384.576935 1816.515259,387.129150 1815.688477,389.657532 
	C1786.545776,478.776703 1757.431763,567.905212 1728.213623,656.999634 
	C1726.505615,662.208008 1723.961670,667.142273 1721.806763,672.204102 
	C1718.565552,668.331177 1717.182007,664.675293 1716.012817,660.952026 
	C1688.020630,571.811646 1660.066772,482.659241 1632.044189,393.528412 
	C1630.152710,387.512390 1628.312134,381.382019 1625.519043,375.766876 
	C1618.053101,360.758179 1600.656982,354.804138 1583.456299,360.868988 
	C1567.936035,366.341370 1559.413940,381.064514 1562.583496,397.286133 
	C1563.344971,401.183563 1564.634644,404.995758 1565.899536,408.774139 
	C1600.630005,512.517151 1635.347534,616.264648 1670.221191,719.959534 
	C1672.964478,728.116699 1676.199463,736.240417 1680.316406,743.772583 
	C1686.355835,754.821716 1696.000122,761.768311 1708.552124,764.062317 
	C1735.545410,768.995605 1757.694458,759.921448 1767.714722,731.264709 
	C1771.225830,721.223450 1774.635132,711.146484 1778.098633,701.088501 
	C1801.375366,633.492859 1824.646606,565.895203 1847.957520,498.311371 
	C1848.991943,495.312592 1850.396729,492.441650 1852.477295,487.493744 
	C1855.525635,495.216827 1857.988525,500.874786 1860.017090,506.684387 
	C1886.106079,581.400208 1912.237183,656.101562 1938.113281,730.891174 
	C1945.967407,753.591919 1961.960083,768.210693 1994.063110,764.624451 
	C2010.448608,762.793945 2021.895508,754.232239 2028.849365,739.661560 
	C2032.276245,732.480835 2035.131226,724.975464 2037.640381,717.416260 
	C2070.839844,617.399841 2103.959473,517.356873 2136.994873,417.286163 
	C2139.490234,409.727325 2141.751465,402.006012 2143.134766,394.185669 
	C2145.065918,383.269867 2141.855469,373.506989 2133.079590,366.471252 
	C2117.699951,354.141541 2088.533447,353.824677 2077.924316,379.529877 
	C2075.520752,385.353363 2073.715332,391.438141 2071.865479,397.473389 
	C2052.672119,460.099182 2033.525635,522.739441 2013.999634,586.936462 
M3539.000000,760.195190 
	C3561.664795,760.173157 3584.329834,760.230225 3606.993652,760.066895 
	C3611.959473,760.031128 3616.938965,759.362854 3621.877930,758.722046 
	C3635.555908,756.947266 3645.599854,745.096069 3645.189941,728.480652 
	C3644.825684,713.720093 3633.510986,702.729736 3618.274170,701.345093 
	C3614.632324,701.014038 3610.951416,701.021912 3607.288574,701.020752 
	C3551.292969,701.003113 3495.297607,701.053589 3439.302002,700.964844 
	C3430.731201,700.951233 3422.161621,700.321533 3412.507324,699.933105 
	C3411.765381,663.038757 3410.496094,626.991150 3414.016602,589.982666 
	C3419.118652,589.982666 3423.063721,589.983887 3427.009033,589.982483 
	C3477.671631,589.965027 3528.334229,589.948792 3578.996826,589.925476 
	C3582.329346,589.923950 3585.662842,589.907166 3588.994141,589.829163 
	C3596.894775,589.644226 3603.018799,586.025085 3607.684326,579.841125 
	C3615.148682,569.947876 3616.788574,559.190735 3611.267578,547.968628 
	C3605.934082,537.127075 3597.133057,531.960449 3584.736816,532.011902 
	C3532.075195,532.230530 3479.412109,532.147766 3426.749756,532.084106 
	C3422.607422,532.079102 3418.466064,531.375000 3413.542480,530.924194 
	C3411.358887,494.057922 3410.798584,458.347717 3414.029297,422.047302 
	C3418.398682,422.047302 3421.692383,422.048370 3424.986328,422.047119 
	C3485.981201,422.023651 3546.976074,422.031250 3607.970947,421.920898 
	C3613.262207,421.911346 3618.708008,421.779205 3623.812012,420.567200 
	C3636.635254,417.522247 3644.870605,407.015991 3645.516846,393.934631 
	C3646.120850,381.706909 3637.821045,369.624603 3625.512695,365.922821 
	C3620.839111,364.517181 3615.702881,364.164886 3610.776367,364.158203 
	C3535.448975,364.056000 3460.121582,364.090271 3384.794189,364.094727 
	C3382.461182,364.094849 3380.122070,364.010681 3377.796143,364.144592 
	C3360.579834,365.135895 3349.308838,375.351807 3346.804932,392.406555 
	C3346.324219,395.680176 3346.421875,399.053345 3346.421387,402.380585 
	C3346.405273,508.372192 3346.402588,614.363770 3346.440918,720.355408 
	C3346.442383,724.335266 3346.519531,728.374512 3347.171875,732.284180 
	C3349.641846,747.089905 3357.312744,755.211853 3372.194824,758.291077 
	C3378.011475,759.494629 3384.064941,760.031799 3390.012939,760.050903 
	C3439.008301,760.208313 3488.004150,760.172485 3539.000000,760.195190 
M4083.000000,421.926849 
	C4094.328613,421.939087 4105.661621,422.137726 4116.983887,421.881195 
	C4122.265137,421.761536 4127.671875,421.334412 4132.764160,420.036713 
	C4142.780762,417.484283 4148.538086,410.568634 4150.172363,400.395386 
	C4153.773438,377.982788 4142.144531,364.302612 4119.428711,364.099518 
	C4118.095703,364.087585 4116.763184,364.094940 4115.430176,364.094971 
	C4040.793701,364.095764 3966.156982,364.095551 3891.520508,364.102112 
	C3888.522461,364.102386 3885.506104,363.967377 3882.529053,364.235504 
	C3867.975586,365.546051 3856.541748,375.077698 3854.136230,388.201630 
	C3853.362061,392.425995 3853.325928,396.825714 3853.322510,401.145508 
	C3853.241699,508.434753 3853.204590,615.723999 3853.197510,723.013306 
	C3853.197266,726.336060 3853.390137,729.687988 3853.849365,732.976562 
	C3855.645020,745.836853 3863.809082,755.022461 3876.479492,757.819092 
	C3882.291748,759.102051 3888.327881,759.984680 3894.264648,759.996338 
	C3967.900146,760.140869 4041.536133,760.140442 4115.171875,759.993713 
	C4120.763672,759.982544 4126.537598,759.224609 4131.902344,757.682312 
	C4141.924805,754.800903 4148.375488,748.201416 4150.306641,737.514648 
	C4154.595703,713.776978 4138.687988,700.829407 4121.506836,701.079529 
	C4119.510742,701.108582 4117.513184,700.965942 4115.516113,700.966492 
	C4069.534912,700.978394 4023.553955,700.978943 3977.572754,701.029297 
	C3961.585693,701.046814 3945.598633,701.231628 3929.611572,701.260559 
	C3921.820068,701.274658 3920.110596,699.903992 3919.674805,693.466370 
	C3917.577637,662.508606 3917.554443,631.557434 3920.240967,600.631409 
	C3920.544678,597.135254 3921.435547,593.690002 3922.106689,589.927551 
	C3925.220703,589.927551 3927.534424,589.927063 3929.848145,589.927673 
	C3981.493896,589.940369 4033.139648,589.956055 4084.785400,589.959229 
	C4088.115967,589.959412 4091.468018,590.087891 4094.773438,589.772888 
	C4109.757812,588.344666 4120.312012,577.277710 4121.332520,562.103210 
	C4122.223633,548.853149 4112.651367,536.277710 4098.792480,533.045959 
	C4094.967285,532.153870 4090.882324,532.131531 4086.916016,532.127869 
	C4034.937012,532.079834 3982.957764,532.126343 3930.978760,532.099182 
	C3920.193848,532.093567 3919.683838,531.535461 3919.675293,520.777222 
	C3919.652100,491.455688 3919.671875,462.134155 3919.675537,432.812622 
	C3919.675781,431.146667 3919.660889,429.480133 3919.697754,427.814850 
	C3919.789062,423.669769 3922.016113,421.837097 3926.062744,421.925140 
	C3928.393799,421.975891 3930.727295,421.927185 3933.059570,421.927185 
	C3982.373047,421.926727 4031.686523,421.926819 4083.000000,421.926849 
M2893.662109,732.091675 
	C2893.662109,699.544983 2893.662109,666.998291 2893.662109,633.343689 
	C2907.295410,633.343689 2919.546631,633.374573 2931.797852,633.337585 
	C2963.099609,633.243164 2994.483154,634.601990 3025.587646,629.955994 
	C3066.258057,623.881165 3097.507568,603.664001 3117.882568,567.383972 
	C3138.533691,530.612915 3140.058350,492.104370 3128.632324,452.430084 
	C3118.854248,418.476898 3097.427246,394.216858 3066.022705,378.521423 
	C3046.625732,368.826965 3025.983398,364.180450 3004.365723,364.127136 
	C2957.047119,364.010437 2909.728271,364.085449 2862.409424,364.082642 
	C2861.076416,364.082581 2859.741699,364.041504 2858.410889,364.098267 
	C2841.559814,364.817230 2830.940186,373.870575 2828.228760,390.416412 
	C2827.155762,396.962158 2826.594482,403.666992 2826.584961,410.300476 
	C2826.432373,514.934753 2826.390869,619.569275 2826.409424,724.203674 
	C2826.410400,728.830139 2826.889160,733.519287 2827.728516,738.071716 
	C2830.749512,754.452881 2843.090820,764.766235 2859.866943,765.245483 
	C2875.596680,765.694824 2888.428955,755.645447 2892.403076,739.731384 
	C2892.885498,737.799377 2893.214600,735.829041 2893.662109,732.091675 
M2630.077393,729.591675 
	C2627.100342,719.747803 2624.687988,709.690247 2621.057617,700.093384 
	C2588.472900,613.952515 2555.745605,527.865234 2522.885010,441.829254 
	C2515.177979,421.651489 2507.358154,401.481659 2498.568604,381.763458 
	C2491.177246,365.180878 2476.981201,358.184937 2459.147949,357.782654 
	C2440.981445,357.372833 2426.663818,364.031708 2417.630859,380.213562 
	C2414.727295,385.415436 2412.404541,390.987213 2410.259277,396.560425 
	C2379.563965,476.307678 2348.934814,556.080261 2318.313721,635.856079 
	C2307.829102,663.171448 2297.188965,690.431152 2287.122070,717.900208 
	C2284.660889,724.616272 2282.570801,732.186279 2283.130127,739.136719 
	C2284.186035,752.256409 2292.121826,760.882019 2305.134521,764.457031 
	C2318.965576,768.256958 2331.014404,765.419250 2340.306641,754.343262 
	C2343.646484,750.362549 2346.054199,745.362793 2347.974121,740.469910 
	C2355.138672,722.211121 2362.020020,703.839050 2368.819580,685.440063 
	C2373.635498,672.409973 2373.600342,671.983154 2387.022949,671.961121 
	C2434.664795,671.882812 2482.307861,672.144531 2529.948975,671.953552 
	C2536.357422,671.927795 2539.805176,674.272949 2541.719482,680.040039 
	C2542.974609,683.821777 2544.619873,687.473328 2546.072998,691.190002 
	C2552.731689,708.221008 2559.119141,725.365723 2566.192627,742.222351 
	C2568.453369,747.609253 2571.783936,752.986816 2575.910400,757.069763 
	C2589.050781,770.072754 2613.400391,768.272217 2625.222900,754.142517 
	C2630.905273,747.351440 2630.604980,739.412537 2630.077393,729.591675 
M1244.814941,765.607300 
	C1262.527100,765.167664 1280.059570,763.248962 1297.011353,757.917786 
	C1344.485962,742.987305 1377.631470,714.378296 1385.055298,662.674927 
	C1391.664917,616.642883 1376.415527,578.706726 1334.251465,554.572205 
	C1318.875122,545.770874 1302.472046,539.492493 1285.750488,533.795166 
	C1259.011230,524.684570 1232.379150,515.251404 1205.802246,505.675720 
	C1195.622803,502.008026 1186.908936,495.835693 1179.949097,487.470764 
	C1165.982422,470.684662 1167.646851,448.060699 1184.374512,434.050720 
	C1189.370117,429.866669 1195.377075,426.048889 1201.555542,424.276031 
	C1220.200806,418.925903 1239.272949,416.234192 1258.785156,419.055786 
	C1276.025146,421.548828 1292.298584,427.314087 1308.669189,432.937103 
	C1318.057983,436.161987 1327.684814,439.244171 1337.455933,440.683044 
	C1353.767090,443.084991 1367.739746,431.868652 1370.421265,415.713623 
	C1372.694214,402.021057 1367.927979,391.057678 1356.227173,384.198975 
	C1346.549316,378.526001 1336.262695,373.308472 1325.588867,370.023529 
	C1289.179932,358.818542 1251.853638,355.404175 1213.992920,360.316833 
	C1193.131836,363.023682 1172.747681,367.734650 1154.053345,378.020233 
	C1117.051758,398.378265 1099.718872,430.674164 1101.079224,471.820923 
	C1102.446167,513.158508 1124.365479,542.336304 1161.627563,559.805725 
	C1171.540894,564.453308 1181.884888,568.241150 1192.194214,571.973389 
	C1218.445068,581.476807 1244.776855,590.757324 1271.098877,600.063110 
	C1283.909180,604.592102 1295.086670,611.496887 1303.898682,621.979492 
	C1309.391479,628.513855 1312.886230,635.951904 1313.768555,644.475342 
	C1316.244995,668.397827 1304.544800,688.719177 1282.449951,698.302490 
	C1266.611328,705.172119 1249.867188,707.616150 1232.697388,706.826111 
	C1210.370361,705.798706 1189.654419,699.226501 1169.988281,688.664368 
	C1160.647461,683.647766 1150.943848,679.066284 1140.962158,675.540161 
	C1126.269409,670.349854 1113.094727,675.431580 1104.464966,688.316162 
	C1096.598999,700.060547 1097.408936,713.537170 1107.445557,725.042114 
	C1111.315308,729.478027 1116.071655,733.449951 1121.117676,736.476990 
	C1128.500610,740.905884 1136.338989,744.692993 1144.279053,748.054871 
	C1175.781616,761.393494 1209.011841,765.385742 1244.814941,765.607300 
z"/>
<path fill="#FCFCFC" opacity="1.000000" stroke="none" 
	d="
M982.126221,584.000000 
	C982.195679,666.662842 981.492615,748.336060 982.589050,829.985107 
	C983.398071,890.224609 943.873779,969.068054 852.038025,984.903870 
	C840.956787,986.814636 829.459778,986.837402 818.154602,986.848694 
	C615.831665,987.050293 413.508667,987.113464 211.185684,987.210693 
	C178.983810,987.226196 148.077576,981.705261 120.601089,963.908508 
	C76.825188,935.554321 50.964561,896.004822 47.642170,843.159607 
	C46.681290,827.876038 46.419006,812.527161 46.415398,797.208130 
	C46.369556,602.550537 46.449718,407.892914 46.445919,213.235306 
	C46.445118,172.118057 57.670280,135.079239 85.535316,103.979210 
	C114.759514,71.362221 150.949707,52.900742 195.023666,52.146252 
	C252.334564,51.165169 309.660217,50.717190 366.980133,50.654396 
	C513.305786,50.494091 659.631836,50.635086 805.957520,50.761009 
	C828.279419,50.780220 850.724670,50.882610 872.233337,57.937878 
	C932.031555,77.552933 967.432373,119.019875 979.974670,180.216690 
	C981.960083,189.903961 982.224304,200.071426 982.230530,210.017548 
	C982.308655,334.344971 982.192139,458.672485 982.126221,584.000000 
M676.198364,673.253540 
	C622.363892,704.286499 568.529480,735.319397 515.019287,766.165405 
	C496.600647,755.826111 478.983948,745.937012 461.682831,736.225037 
	C446.538605,745.124268 432.269775,753.509094 416.890808,762.546265 
	C449.673828,784.223877 482.342865,803.178833 515.852295,820.068115 
	C517.357727,819.318054 518.267029,818.924011 519.119690,818.431824 
	C602.403992,770.360840 685.643066,722.210999 769.059387,674.370117 
	C774.440735,671.283875 775.396484,667.747375 775.390625,662.346313 
	C775.286804,567.019470 775.244629,471.692261 775.469849,376.365814 
	C775.485291,369.822449 773.581482,366.358765 767.788330,363.107910 
	C737.901917,346.336914 708.328979,329.007294 678.633057,311.896332 
	C676.085571,310.428436 673.438171,309.134064 670.680664,307.676392 
	C583.716858,357.881348 496.996429,407.945831 410.321930,457.983795 
	C410.321930,476.453217 410.219788,494.092377 410.383759,511.729034 
	C410.433411,517.070129 412.440430,518.284546 417.268707,516.002502 
	C422.974945,513.305481 428.534210,510.264313 434.007324,507.112152 
	C508.688904,464.100250 583.345032,421.044128 658.005310,377.995300 
	C662.902039,375.171844 667.765869,372.290924 672.674500,369.488373 
	C676.773682,367.147980 680.570068,367.275574 684.821899,369.838104 
	C699.045349,378.410522 713.483704,386.626312 728.110779,395.136353 
	C728.474731,399.561707 729.143372,403.853973 729.133850,408.144775 
	C728.966675,483.472839 728.647034,558.800659 728.607361,634.128723 
	C728.603943,640.645264 726.409973,644.590454 720.764648,647.692566 
	C706.185608,655.703369 691.849365,664.156067 676.198364,673.253540 
M331.720276,322.706024 
	C308.326752,336.741547 285.045746,350.970612 261.464233,364.682800 
	C255.201813,368.324341 253.086975,372.605591 253.106537,379.795319 
	C253.347778,468.426514 253.264175,557.058594 253.264420,645.690430 
	C253.264450,653.972412 253.264450,662.254456 253.264450,670.134460 
	C289.254456,690.826660 324.053955,710.834412 358.563049,730.675171 
	C361.501617,728.946533 363.493134,727.756226 365.502075,726.596069 
	C426.573364,691.329285 487.650818,656.073242 548.716614,620.797119 
	C570.032104,608.483826 591.307800,596.101501 612.629883,583.799683 
	C616.857910,581.360352 620.020874,578.684570 619.877930,573.011780 
	C619.550903,560.027283 619.887939,547.026978 619.640564,534.039124 
	C619.564392,530.039673 618.469604,526.059692 617.724304,521.328552 
	C613.511292,523.708923 610.622009,525.311890 607.760254,526.962708 
	C563.962158,552.227417 520.165955,577.495544 476.372803,602.768860 
	C438.052704,624.883606 399.746765,647.023010 361.403076,669.096802 
	C357.809631,671.165405 354.621307,674.113647 349.623322,671.092285 
	C333.984558,661.638550 318.065613,652.648315 302.640259,643.701843 
	C302.640259,560.163635 302.640259,477.301239 302.640259,394.253387 
	C373.471985,353.369537 444.038391,312.638855 514.501221,271.967957 
	C532.523071,282.166077 550.096497,292.110443 567.739075,302.093933 
	C581.451782,293.978119 594.603149,286.186981 607.765015,278.413818 
	C609.463684,277.410675 611.217529,276.501038 614.410339,274.740570 
	C579.643005,254.683975 547.502197,236.142593 514.598633,217.161194 
	C453.973663,252.162445 393.487976,287.083282 331.720276,322.706024 
z"/>
<path fill="#F8F8F8" opacity="1.000000" stroke="none" 
	d="
M2014.182983,586.156067 
	C2033.525635,522.739441 2052.672119,460.099182 2071.865479,397.473389 
	C2073.715332,391.438141 2075.520752,385.353363 2077.924316,379.529877 
	C2088.533447,353.824677 2117.699951,354.141541 2133.079590,366.471252 
	C2141.855469,373.506989 2145.065918,383.269867 2143.134766,394.185669 
	C2141.751465,402.006012 2139.490234,409.727325 2136.994873,417.286163 
	C2103.959473,517.356873 2070.839844,617.399841 2037.640381,717.416260 
	C2035.131226,724.975464 2032.276245,732.480835 2028.849365,739.661560 
	C2021.895508,754.232239 2010.448608,762.793945 1994.063110,764.624451 
	C1961.960083,768.210693 1945.967407,753.591919 1938.113281,730.891174 
	C1912.237183,656.101562 1886.106079,581.400208 1860.017090,506.684387 
	C1857.988525,500.874786 1855.525635,495.216827 1852.477295,487.493744 
	C1850.396729,492.441650 1848.991943,495.312592 1847.957520,498.311371 
	C1824.646606,565.895203 1801.375366,633.492859 1778.098633,701.088501 
	C1774.635132,711.146484 1771.225830,721.223450 1767.714722,731.264709 
	C1757.694458,759.921448 1735.545410,768.995605 1708.552124,764.062317 
	C1696.000122,761.768311 1686.355835,754.821716 1680.316406,743.772583 
	C1676.199463,736.240417 1672.964478,728.116699 1670.221191,719.959534 
	C1635.347534,616.264648 1600.630005,512.517151 1565.899536,408.774139 
	C1564.634644,404.995758 1563.344971,401.183563 1562.583496,397.286133 
	C1559.413940,381.064514 1567.936035,366.341370 1583.456299,360.868988 
	C1600.656982,354.804138 1618.053101,360.758179 1625.519043,375.766876 
	C1628.312134,381.382019 1630.152710,387.512390 1632.044189,393.528412 
	C1660.066772,482.659241 1688.020630,571.811646 1716.012817,660.952026 
	C1717.182007,664.675293 1718.565552,668.331177 1721.806763,672.204102 
	C1723.961670,667.142273 1726.505615,662.208008 1728.213623,656.999634 
	C1757.431763,567.905212 1786.545776,478.776703 1815.688477,389.657532 
	C1816.515259,387.129150 1817.293701,384.576935 1818.280884,382.110352 
	C1826.767212,360.907684 1850.676514,351.987213 1871.186035,362.304443 
	C1880.181396,366.829529 1884.783569,374.749023 1887.830811,383.817810 
	C1895.248413,405.892548 1902.563843,428.001556 1909.958374,450.084106 
	C1933.193726,519.471436 1956.439697,588.855164 1979.709229,658.231079 
	C1981.063599,662.268616 1982.663940,666.223694 1984.114990,670.123230 
	C1990.572021,669.757507 1990.173584,664.693665 1991.229736,661.335754 
	C1998.312622,638.816406 2005.102905,616.205139 2011.985962,593.622986 
	C2012.664429,591.396362 2013.328735,589.165405 2014.182983,586.156067 
z"/>
<path fill="#F8FAFA" opacity="1.000000" stroke="none" 
	d="
M3538.000000,760.195190 
	C3488.004150,760.172485 3439.008301,760.208313 3390.012939,760.050903 
	C3384.064941,760.031799 3378.011475,759.494629 3372.194824,758.291077 
	C3357.312744,755.211853 3349.641846,747.089905 3347.171875,732.284180 
	C3346.519531,728.374512 3346.442383,724.335266 3346.440918,720.355408 
	C3346.402588,614.363770 3346.405273,508.372192 3346.421387,402.380585 
	C3346.421875,399.053345 3346.324219,395.680176 3346.804932,392.406555 
	C3349.308838,375.351807 3360.579834,365.135895 3377.796143,364.144592 
	C3380.122070,364.010681 3382.461182,364.094849 3384.794189,364.094727 
	C3460.121582,364.090271 3535.448975,364.056000 3610.776367,364.158203 
	C3615.702881,364.164886 3620.839111,364.517181 3625.512695,365.922821 
	C3637.821045,369.624603 3646.120850,381.706909 3645.516846,393.934631 
	C3644.870605,407.015991 3636.635254,417.522247 3623.812012,420.567200 
	C3618.708008,421.779205 3613.262207,421.911346 3607.970947,421.920898 
	C3546.976074,422.031250 3485.981201,422.023651 3424.986328,422.047119 
	C3421.692383,422.048370 3418.398682,422.047302 3414.029297,422.047302 
	C3410.798584,458.347717 3411.358887,494.057922 3413.542480,530.924194 
	C3418.466064,531.375000 3422.607422,532.079102 3426.749756,532.084106 
	C3479.412109,532.147766 3532.075195,532.230530 3584.736816,532.011902 
	C3597.133057,531.960449 3605.934082,537.127075 3611.267578,547.968628 
	C3616.788574,559.190735 3615.148682,569.947876 3607.684326,579.841125 
	C3603.018799,586.025085 3596.894775,589.644226 3588.994141,589.829163 
	C3585.662842,589.907166 3582.329346,589.923950 3578.996826,589.925476 
	C3528.334229,589.948792 3477.671631,589.965027 3427.009033,589.982483 
	C3423.063721,589.983887 3419.118652,589.982666 3414.016602,589.982666 
	C3410.496094,626.991150 3411.765381,663.038757 3412.507324,699.933105 
	C3422.161621,700.321533 3430.731201,700.951233 3439.302002,700.964844 
	C3495.297607,701.053589 3551.292969,701.003113 3607.288574,701.020752 
	C3610.951416,701.021912 3614.632324,701.014038 3618.274170,701.345093 
	C3633.510986,702.729736 3644.825684,713.720093 3645.189941,728.480652 
	C3645.599854,745.096069 3635.555908,756.947266 3621.877930,758.722046 
	C3616.938965,759.362854 3611.959473,760.031128 3606.993652,760.066895 
	C3584.329834,760.230225 3561.664795,760.173157 3538.000000,760.195190 
z"/>
<path fill="#FAFCFC" opacity="1.000000" stroke="none" 
	d="
M4082.000000,421.926819 
	C4031.686523,421.926819 3982.373047,421.926727 3933.059570,421.927185 
	C3930.727295,421.927185 3928.393799,421.975891 3926.062744,421.925140 
	C3922.016113,421.837097 3919.789062,423.669769 3919.697754,427.814850 
	C3919.660889,429.480133 3919.675781,431.146667 3919.675537,432.812622 
	C3919.671875,462.134155 3919.652100,491.455688 3919.675293,520.777222 
	C3919.683838,531.535461 3920.193848,532.093567 3930.978760,532.099182 
	C3982.957764,532.126343 4034.937012,532.079834 4086.916016,532.127869 
	C4090.882324,532.131531 4094.967285,532.153870 4098.792480,533.045959 
	C4112.651367,536.277710 4122.223633,548.853149 4121.332520,562.103210 
	C4120.312012,577.277710 4109.757812,588.344666 4094.773438,589.772888 
	C4091.468018,590.087891 4088.115967,589.959412 4084.785400,589.959229 
	C4033.139648,589.956055 3981.493896,589.940369 3929.848145,589.927673 
	C3927.534424,589.927063 3925.220703,589.927551 3922.106689,589.927551 
	C3921.435547,593.690002 3920.544678,597.135254 3920.240967,600.631409 
	C3917.554443,631.557434 3917.577637,662.508606 3919.674805,693.466370 
	C3920.110596,699.903992 3921.820068,701.274658 3929.611572,701.260559 
	C3945.598633,701.231628 3961.585693,701.046814 3977.572754,701.029297 
	C4023.553955,700.978943 4069.534912,700.978394 4115.516113,700.966492 
	C4117.513184,700.965942 4119.510742,701.108582 4121.506836,701.079529 
	C4138.687988,700.829407 4154.595703,713.776978 4150.306641,737.514648 
	C4148.375488,748.201416 4141.924805,754.800903 4131.902344,757.682312 
	C4126.537598,759.224609 4120.763672,759.982544 4115.171875,759.993713 
	C4041.536133,760.140442 3967.900146,760.140869 3894.264648,759.996338 
	C3888.327881,759.984680 3882.291748,759.102051 3876.479492,757.819092 
	C3863.809082,755.022461 3855.645020,745.836853 3853.849365,732.976562 
	C3853.390137,729.687988 3853.197266,726.336060 3853.197510,723.013306 
	C3853.204590,615.723999 3853.241699,508.434753 3853.322510,401.145508 
	C3853.325928,396.825714 3853.362061,392.425995 3854.136230,388.201630 
	C3856.541748,375.077698 3867.975586,365.546051 3882.529053,364.235504 
	C3885.506104,363.967377 3888.522461,364.102386 3891.520508,364.102112 
	C3966.156982,364.095551 4040.793701,364.095764 4115.430176,364.094971 
	C4116.763184,364.094940 4118.095703,364.087585 4119.428711,364.099518 
	C4142.144531,364.302612 4153.773438,377.982788 4150.172363,400.395386 
	C4148.538086,410.568634 4142.780762,417.484283 4132.764160,420.036713 
	C4127.671875,421.334412 4122.265137,421.761536 4116.983887,421.881195 
	C4105.661621,422.137726 4094.328613,421.939087 4082.000000,421.926819 
z"/>
<path fill="#F6F6F6" opacity="1.000000" stroke="none" 
	d="
M2893.638428,732.984131 
	C2893.214600,735.829041 2892.885498,737.799377 2892.403076,739.731384 
	C2888.428955,755.645447 2875.596680,765.694824 2859.866943,765.245483 
	C2843.090820,764.766235 2830.749512,754.452881 2827.728516,738.071716 
	C2826.889160,733.519287 2826.410400,728.830139 2826.409424,724.203674 
	C2826.390869,619.569275 2826.432373,514.934753 2826.584961,410.300476 
	C2826.594482,403.666992 2827.155762,396.962158 2828.228760,390.416412 
	C2830.940186,373.870575 2841.559814,364.817230 2858.410889,364.098267 
	C2859.741699,364.041504 2861.076416,364.082581 2862.409424,364.082642 
	C2909.728271,364.085449 2957.047119,364.010437 3004.365723,364.127136 
	C3025.983398,364.180450 3046.625732,368.826965 3066.022705,378.521423 
	C3097.427246,394.216858 3118.854248,418.476898 3128.632324,452.430084 
	C3140.058350,492.104370 3138.533691,530.612915 3117.882568,567.383972 
	C3097.507568,603.664001 3066.258057,623.881165 3025.587646,629.955994 
	C2994.483154,634.601990 2963.099609,633.243164 2931.797852,633.337585 
	C2919.546631,633.374573 2907.295410,633.343689 2893.662109,633.343689 
	C2893.662109,666.998291 2893.662109,699.544983 2893.638428,732.984131 
M3045.931396,554.994385 
	C3054.269287,547.378845 3059.346191,537.658386 3063.259766,527.330200 
	C3080.012695,483.116669 3058.034912,437.115692 3014.159424,425.131775 
	C3006.238281,422.968231 2997.772705,422.035645 2989.539062,421.919739 
	C2961.898438,421.530548 2934.249268,421.740265 2906.603271,421.794617 
	C2902.424805,421.802826 2898.246582,422.204163 2893.649902,422.445648 
	C2893.913574,473.555664 2892.417725,523.375488 2893.941162,572.497620 
	C2896.036377,573.414307 2896.623535,573.898193 2897.207031,573.894104 
	C2932.156250,573.648926 2967.111572,573.669556 3002.051270,572.945496 
	C3018.167480,572.611633 3032.364746,566.098511 3045.931396,554.994385 
z"/>
<path fill="#F7F9F9" opacity="1.000000" stroke="none" 
	d="
M2630.159180,730.484863 
	C2630.604980,739.412537 2630.905273,747.351440 2625.222900,754.142517 
	C2613.400391,768.272217 2589.050781,770.072754 2575.910400,757.069763 
	C2571.783936,752.986816 2568.453369,747.609253 2566.192627,742.222351 
	C2559.119141,725.365723 2552.731689,708.221008 2546.072998,691.190002 
	C2544.619873,687.473328 2542.974609,683.821777 2541.719482,680.040039 
	C2539.805176,674.272949 2536.357422,671.927795 2529.948975,671.953552 
	C2482.307861,672.144531 2434.664795,671.882812 2387.022949,671.961121 
	C2373.600342,671.983154 2373.635498,672.409973 2368.819580,685.440063 
	C2362.020020,703.839050 2355.138672,722.211121 2347.974121,740.469910 
	C2346.054199,745.362793 2343.646484,750.362549 2340.306641,754.343262 
	C2331.014404,765.419250 2318.965576,768.256958 2305.134521,764.457031 
	C2292.121826,760.882019 2284.186035,752.256409 2283.130127,739.136719 
	C2282.570801,732.186279 2284.660889,724.616272 2287.122070,717.900208 
	C2297.188965,690.431152 2307.829102,663.171448 2318.313721,635.856079 
	C2348.934814,556.080261 2379.563965,476.307678 2410.259277,396.560425 
	C2412.404541,390.987213 2414.727295,385.415436 2417.630859,380.213562 
	C2426.663818,364.031708 2440.981445,357.372833 2459.147949,357.782654 
	C2476.981201,358.184937 2491.177246,365.180878 2498.568604,381.763458 
	C2507.358154,401.481659 2515.177979,421.651489 2522.885010,441.829254 
	C2555.745605,527.865234 2588.472900,613.952515 2621.057617,700.093384 
	C2624.687988,709.690247 2627.100342,719.747803 2630.159180,730.484863 
M2422.414795,535.440430 
	C2412.693359,562.428833 2401.604004,588.936462 2392.520996,617.008484 
	C2397.128418,617.369995 2400.417236,617.844971 2403.707031,617.852783 
	C2439.000488,617.936584 2474.293701,617.979370 2509.587158,617.925598 
	C2513.061523,617.920288 2516.534668,617.198730 2521.115967,616.685608 
	C2501.566162,558.968567 2480.777832,503.252899 2457.475342,448.493378 
	C2456.780273,448.501404 2456.085449,448.509399 2455.390381,448.517395 
	C2444.622559,477.024475 2433.854736,505.531555 2422.414795,535.440430 
z"/>
<path fill="#F7F9F9" opacity="1.000000" stroke="none" 
	d="
M1243.847168,765.630066 
	C1209.011841,765.385742 1175.781616,761.393494 1144.279053,748.054871 
	C1136.338989,744.692993 1128.500610,740.905884 1121.117676,736.476990 
	C1116.071655,733.449951 1111.315308,729.478027 1107.445557,725.042114 
	C1097.408936,713.537170 1096.598999,700.060547 1104.464966,688.316162 
	C1113.094727,675.431580 1126.269409,670.349854 1140.962158,675.540161 
	C1150.943848,679.066284 1160.647461,683.647766 1169.988281,688.664368 
	C1189.654419,699.226501 1210.370361,705.798706 1232.697388,706.826111 
	C1249.867188,707.616150 1266.611328,705.172119 1282.449951,698.302490 
	C1304.544800,688.719177 1316.244995,668.397827 1313.768555,644.475342 
	C1312.886230,635.951904 1309.391479,628.513855 1303.898682,621.979492 
	C1295.086670,611.496887 1283.909180,604.592102 1271.098877,600.063110 
	C1244.776855,590.757324 1218.445068,581.476807 1192.194214,571.973389 
	C1181.884888,568.241150 1171.540894,564.453308 1161.627563,559.805725 
	C1124.365479,542.336304 1102.446167,513.158508 1101.079224,471.820923 
	C1099.718872,430.674164 1117.051758,398.378265 1154.053345,378.020233 
	C1172.747681,367.734650 1193.131836,363.023682 1213.992920,360.316833 
	C1251.853638,355.404175 1289.179932,358.818542 1325.588867,370.023529 
	C1336.262695,373.308472 1346.549316,378.526001 1356.227173,384.198975 
	C1367.927979,391.057678 1372.694214,402.021057 1370.421265,415.713623 
	C1367.739746,431.868652 1353.767090,443.084991 1337.455933,440.683044 
	C1327.684814,439.244171 1318.057983,436.161987 1308.669189,432.937103 
	C1292.298584,427.314087 1276.025146,421.548828 1258.785156,419.055786 
	C1239.272949,416.234192 1220.200806,418.925903 1201.555542,424.276031 
	C1195.377075,426.048889 1189.370117,429.866669 1184.374512,434.050720 
	C1167.646851,448.060699 1165.982422,470.684662 1179.949097,487.470764 
	C1186.908936,495.835693 1195.622803,502.008026 1205.802246,505.675720 
	C1232.379150,515.251404 1259.011230,524.684570 1285.750488,533.795166 
	C1302.472046,539.492493 1318.875122,545.770874 1334.251465,554.572205 
	C1376.415527,578.706726 1391.664917,616.642883 1385.055298,662.674927 
	C1377.631470,714.378296 1344.485962,742.987305 1297.011353,757.917786 
	C1280.059570,763.248962 1262.527100,765.167664 1243.847168,765.630066 
z"/>
<path fill="#0A0909" opacity="1.000000" stroke="none" 
	d="
M676.807251,672.842896 
	C691.849365,664.156067 706.185608,655.703369 720.764648,647.692566 
	C726.409973,644.590454 728.603943,640.645264 728.607361,634.128723 
	C728.647034,558.800659 728.966675,483.472839 729.133850,408.144775 
	C729.143372,403.853973 728.474731,399.561707 728.110779,395.136353 
	C713.483704,386.626312 699.045349,378.410522 684.821899,369.838104 
	C680.570068,367.275574 676.773682,367.147980 672.674500,369.488373 
	C667.765869,372.290924 662.902039,375.171844 658.005310,377.995300 
	C583.345032,421.044128 508.688904,464.100250 434.007324,507.112152 
	C428.534210,510.264313 422.974945,513.305481 417.268707,516.002502 
	C412.440430,518.284546 410.433411,517.070129 410.383759,511.729034 
	C410.219788,494.092377 410.321930,476.453217 410.321930,457.983795 
	C496.996429,407.945831 583.716858,357.881348 670.680664,307.676392 
	C673.438171,309.134064 676.085571,310.428436 678.633057,311.896332 
	C708.328979,329.007294 737.901917,346.336914 767.788330,363.107910 
	C773.581482,366.358765 775.485291,369.822449 775.469849,376.365814 
	C775.244629,471.692261 775.286804,567.019470 775.390625,662.346313 
	C775.396484,667.747375 774.440735,671.283875 769.059387,674.370117 
	C685.643066,722.210999 602.403992,770.360840 519.119690,818.431824 
	C518.267029,818.924011 517.357727,819.318054 515.852295,820.068115 
	C482.342865,803.178833 449.673828,784.223877 416.890808,762.546265 
	C432.269775,753.509094 446.538605,745.124268 461.682831,736.225037 
	C478.983948,745.937012 496.600647,755.826111 515.019287,766.165405 
	C568.529480,735.319397 622.363892,704.286499 676.807251,672.842896 
z"/>
<path fill="#0A0808" opacity="1.000000" stroke="none" 
	d="
M332.361267,322.355072 
	C393.487976,287.083282 453.973663,252.162445 514.598633,217.161194 
	C547.502197,236.142593 579.643005,254.683975 614.410339,274.740570 
	C611.217529,276.501038 609.463684,277.410675 607.765015,278.413818 
	C594.603149,286.186981 581.451782,293.978119 567.739075,302.093933 
	C550.096497,292.110443 532.523071,282.166077 514.501221,271.967957 
	C444.038391,312.638855 373.471985,353.369537 302.640259,394.253387 
	C302.640259,477.301239 302.640259,560.163635 302.640259,643.701843 
	C318.065613,652.648315 333.984558,661.638550 349.623322,671.092285 
	C354.621307,674.113647 357.809631,671.165405 361.403076,669.096802 
	C399.746765,647.023010 438.052704,624.883606 476.372803,602.768860 
	C520.165955,577.495544 563.962158,552.227417 607.760254,526.962708 
	C610.622009,525.311890 613.511292,523.708923 617.724304,521.328552 
	C618.469604,526.059692 619.564392,530.039673 619.640564,534.039124 
	C619.887939,547.026978 619.550903,560.027283 619.877930,573.011780 
	C620.020874,578.684570 616.857910,581.360352 612.629883,583.799683 
	C591.307800,596.101501 570.032104,608.483826 548.716614,620.797119 
	C487.650818,656.073242 426.573364,691.329285 365.502075,726.596069 
	C363.493134,727.756226 361.501617,728.946533 358.563049,730.675171 
	C324.053955,710.834412 289.254456,690.826660 253.264450,670.134460 
	C253.264450,662.254456 253.264450,653.972412 253.264420,645.690430 
	C253.264175,557.058594 253.347778,468.426514 253.106537,379.795319 
	C253.086975,372.605591 255.201813,368.324341 261.464233,364.682800 
	C285.045746,350.970612 308.326752,336.741547 332.361267,322.355072 
z"/>
<path fill="#040303" opacity="1.000000" stroke="none" 
	d="
M3045.390625,555.467651 
	C3032.364746,566.098511 3018.167480,572.611633 3002.051270,572.945496 
	C2967.111572,573.669556 2932.156250,573.648926 2897.207031,573.894104 
	C2896.623535,573.898193 2896.036377,573.414307 2893.941162,572.497620 
	C2892.417725,523.375488 2893.913574,473.555664 2893.649902,422.445648 
	C2898.246582,422.204163 2902.424805,421.802826 2906.603271,421.794617 
	C2934.249268,421.740265 2961.898438,421.530548 2989.539062,421.919739 
	C2997.772705,422.035645 3006.238281,422.968231 3014.159424,425.131775 
	C3058.034912,437.115692 3080.012695,483.116669 3063.259766,527.330200 
	C3059.346191,537.658386 3054.269287,547.378845 3045.390625,555.467651 
z"/>
<path fill="#090808" opacity="1.000000" stroke="none" 
	d="
M2422.750977,534.739502 
	C2433.854736,505.531555 2444.622559,477.024475 2455.390381,448.517395 
	C2456.085449,448.509399 2456.780273,448.501404 2457.475342,448.493378 
	C2480.777832,503.252899 2501.566162,558.968567 2521.115967,616.685608 
	C2516.534668,617.198730 2513.061523,617.920288 2509.587158,617.925598 
	C2474.293701,617.979370 2439.000488,617.936584 2403.707031,617.852783 
	C2400.417236,617.844971 2397.128418,617.369995 2392.520996,617.008484 
	C2401.604004,588.936462 2412.693359,562.428833 2422.750977,534.739502 
z"/>
</svg>