<svg width="243" height="72" viewBox="0 0 243 72" fill="none" xmlns="http://www.w3.org/2000/svg">
<path d="M69.8824 36C69.8824 54.7127 54.7127 69.8824 36 69.8824C17.2873 69.8824 2.11765 54.7127 2.11765 36C2.11765 17.2873 17.2873 2.11765 36 2.11765C54.7127 2.11765 69.8824 17.2873 69.8824 36Z" fill="white"/>
<path fill-rule="evenodd" clip-rule="evenodd" d="M36 4.23529C18.4568 4.23529 4.23529 18.4568 4.23529 36C4.23529 53.5432 18.4568 67.7647 36 67.7647C53.5432 67.7647 67.7647 53.5432 67.7647 36C67.7647 18.4568 53.5432 4.23529 36 4.23529ZM0 36C0 16.1177 16.1177 0 36 0C55.8823 0 72 16.1177 72 36C72 55.8823 55.8823 72 36 72C16.1177 72 0 55.8823 0 36Z" fill="black"/>
<path fill-rule="evenodd" clip-rule="evenodd" d="M36 58.5882C48.4751 58.5882 58.5882 48.4751 58.5882 36C58.5882 23.5248 48.4751 13.4117 36 13.4117C23.5249 13.4117 13.4118 23.5248 13.4118 36C13.4118 48.4751 23.5249 58.5882 36 58.5882ZM36 54C45.9411 54 54 45.9411 54 36C54 26.0589 45.9411 18 36 18C26.0589 18 18 26.0589 18 36C18 45.9411 26.0589 54 36 54Z" fill="black"/>
<path fill-rule="evenodd" clip-rule="evenodd" d="M36.0001 22.8988C36.0001 22.8988 36 22.8988 36 22.8988C28.7644 22.8988 22.8988 28.7644 22.8988 36C22.8988 43.2356 28.7644 49.1012 36 49.1012C36 49.1012 36.0001 49.1012 36.0001 49.1012V22.8988Z" fill="black"/>
<path d="M99.288 18.168C101.816 18.168 104.064 18.688 106.032 19.728C108.016 20.768 109.608 22.168 110.808 23.928C112.024 25.672 112.744 27.624 112.968 29.784H106.8C106.448 27.88 105.632 26.288 104.352 25.008C103.072 23.712 101.328 23.064 99.12 23.064C96.352 23.064 94.216 24.072 92.712 26.088C91.208 28.088 90.456 31.344 90.456 35.856C90.456 40.416 91.208 43.736 92.712 45.816C94.216 47.896 96.352 48.936 99.12 48.936C100.592 48.936 101.856 48.616 102.912 47.976C103.968 47.32 104.816 46.456 105.456 45.384C106.112 44.296 106.56 43.112 106.8 41.832H112.968C112.696 43.944 112.064 45.912 111.072 47.736C110.08 49.56 108.624 51.032 106.704 52.152C104.8 53.272 102.328 53.832 99.288 53.832C96.104 53.832 93.368 53.104 91.08 51.648C88.808 50.176 87.056 48.096 85.824 45.408C84.608 42.704 84 39.496 84 35.784C84 32.088 84.608 28.928 85.824 26.304C87.04 23.664 88.784 21.648 91.056 20.256C93.344 18.864 96.088 18.168 99.288 18.168Z" fill="black"/>
<path d="M127.588 53.832C124.02 53.832 121.172 52.712 119.044 50.472C116.916 48.216 115.852 45.08 115.852 41.064C115.852 38.472 116.316 36.2 117.244 34.248C118.188 32.296 119.532 30.776 121.276 29.688C123.036 28.6 125.148 28.056 127.612 28.056C131.148 28.056 133.972 29.208 136.084 31.512C138.196 33.816 139.252 37 139.252 41.064C139.252 43.576 138.796 45.792 137.884 47.712C136.988 49.632 135.668 51.136 133.924 52.224C132.196 53.296 130.084 53.832 127.588 53.832ZM127.612 49.392C129.612 49.392 131.092 48.592 132.052 46.992C133.028 45.392 133.516 43.36 133.516 40.896C133.516 39.376 133.324 37.976 132.94 36.696C132.556 35.416 131.932 34.392 131.068 33.624C130.204 32.84 129.052 32.448 127.612 32.448C125.564 32.448 124.044 33.232 123.052 34.8C122.076 36.368 121.588 38.4 121.588 40.896C121.588 42.4 121.78 43.8 122.164 45.096C122.564 46.376 123.204 47.416 124.084 48.216C124.964 49 126.14 49.392 127.612 49.392Z" fill="black"/>
<path d="M149.088 18.672V24.192H143.304V18.672H149.088ZM149.016 28.536V53.352H143.4V28.536H149.016Z" fill="black"/>
<path d="M154.865 53.352V28.536H160.577V32.088C161.153 31.128 162.041 30.248 163.241 29.448C164.457 28.648 166.057 28.248 168.041 28.248C169.577 28.248 171.001 28.552 172.313 29.16C173.641 29.768 174.705 30.72 175.505 32.016C176.321 33.312 176.729 34.984 176.729 37.032V53.352H170.873V37.728C170.873 36.112 170.417 34.904 169.505 34.104C168.609 33.304 167.489 32.904 166.145 32.904C164.737 32.904 163.473 33.256 162.353 33.96C161.249 34.664 160.697 35.728 160.697 37.152V53.352H154.865Z" fill="black"/>
<path d="M196.262 53.832C193.062 53.832 190.294 53.128 187.958 51.72C185.638 50.312 183.838 48.288 182.558 45.648C181.294 42.992 180.662 39.8 180.662 36.072C180.662 32.328 181.302 29.12 182.582 26.448C183.862 23.776 185.67 21.728 188.006 20.304C190.342 18.88 193.094 18.168 196.262 18.168C199.414 18.168 202.142 18.88 204.446 20.304C206.766 21.728 208.558 23.776 209.822 26.448C211.086 29.12 211.718 32.328 211.718 36.072C211.718 39.784 211.094 42.968 209.846 45.624C208.598 48.264 206.814 50.296 204.494 51.72C202.174 53.128 199.43 53.832 196.262 53.832ZM196.262 48.936C199.11 48.936 201.334 47.928 202.934 45.912C204.55 43.88 205.358 40.624 205.358 36.144C205.358 31.584 204.542 28.264 202.91 26.184C201.294 24.104 199.078 23.064 196.262 23.064C193.446 23.064 191.206 24.112 189.542 26.208C187.894 28.288 187.07 31.6 187.07 36.144C187.07 40.64 187.894 43.896 189.542 45.912C191.206 47.928 193.446 48.936 196.262 48.936Z" fill="black"/>
<path d="M229.431 53.832C227.191 53.832 225.039 53.456 222.975 52.704C220.927 51.952 219.207 50.832 217.815 49.344C216.423 47.856 215.591 45.992 215.319 43.752H221.367C221.751 45.512 222.679 46.856 224.151 47.784C225.623 48.696 227.375 49.152 229.407 49.152C231.551 49.152 233.367 48.728 234.855 47.88C236.343 47.032 237.087 45.8 237.087 44.184C237.087 42.76 236.543 41.664 235.455 40.896C234.367 40.112 232.935 39.528 231.159 39.144L224.775 37.752C222.183 37.224 220.135 36.2 218.631 34.68C217.143 33.16 216.383 31.136 216.351 28.608C216.335 26.512 216.887 24.688 218.007 23.136C219.127 21.568 220.663 20.36 222.615 19.512C224.583 18.648 226.799 18.216 229.263 18.216C232.143 18.216 234.567 18.688 236.535 19.632C238.503 20.576 239.991 21.832 240.999 23.4C242.023 24.952 242.551 26.664 242.583 28.536H236.679C236.471 26.472 235.671 25.032 234.279 24.216C232.903 23.384 231.255 22.968 229.335 22.968C227.415 22.968 225.791 23.408 224.463 24.288C223.151 25.168 222.495 26.392 222.495 27.96C222.495 29.08 222.863 29.992 223.599 30.696C224.351 31.384 225.751 31.968 227.799 32.448L234.039 33.84C235.975 34.224 237.535 34.808 238.719 35.592C239.903 36.36 240.799 37.232 241.407 38.208C242.031 39.184 242.447 40.192 242.655 41.232C242.879 42.256 242.991 43.224 242.991 44.136C242.991 45.944 242.439 47.584 241.335 49.056C240.231 50.512 238.663 51.672 236.631 52.536C234.599 53.4 232.199 53.832 229.431 53.832Z" fill="black"/>
</svg>
