<?xml version="1.0" encoding="utf-8"?><svg version="1.1" id="Layer_1" xmlns="http://www.w3.org/2000/svg" xmlns:xlink="http://www.w3.org/1999/xlink" x="0px" y="0px" viewBox="0 0 88.5 122.88" style="enable-background:new 0 0 88.5 122.88" xml:space="preserve"><g><path d="M3.93,95.55h7.75l10.08,14.84V95.55h7.85v26.88h-7.85l-10.02-14.76v14.76H3.93V95.55L3.93,95.55z M4.35,60.42 c-2.47-3.71-3.94-9.36-4.28-14.98c-0.34-5.59,0.45-11.33,2.48-15.3l2.06-4.02l3.52,2.82L41.6,55.8c1.36-5.03,1.79-10.07,1.38-14.83 c-0.55-6.44-3.36-13.42-6.69-17.98l6.34-3.7c4.14,5.66,7.04,13.29,7.71,21.07c0.63,7.33-0.44,15.24-3.5,22.97l-1.84,4.63 l-3.89-3.12L7.72,38.06c-0.35,2.13-0.44,4.53-0.29,6.95c0.27,4.43,1.32,8.72,3.06,11.34L4.35,60.42L4.35,60.42z M68.05,85.83 c8.26-12.91,13.1-29.35,13.09-42.13c-0.01-16.05-5.04-30.56-11.44-40.04L76.14,0C83.13,10.48,88.5,26.32,88.5,43.7 c0,14.05-5.49,32.42-14.59,46.63L68.05,85.83L68.05,85.83z M52.77,73.9c5.89-8.46,9.4-19.93,9.34-30.61 C62.05,32.67,59,21.97,52.97,13.35l6.38-3.7c6.74,9.75,10.05,21.73,10.12,33.61c0.07,12.15-4.11,25.45-10.87,35.16L52.77,73.9 L52.77,73.9z M33.98,95.55h20.53v5.78h-12.2v4.69h10.44v5.44H42.31v10.96h-8.33V95.55L33.98,95.55z M75.7,111.43l7.28,2.2 c-0.49,2.04-1.26,3.75-2.31,5.11c-1.05,1.37-2.35,2.4-3.92,3.1c-1.56,0.69-3.54,1.04-5.95,1.04c-2.93,0-5.31-0.43-7.17-1.27 c-1.85-0.85-3.45-2.35-4.79-4.48c-1.35-2.13-2.02-4.87-2.02-8.2c0-4.44,1.18-7.86,3.55-10.25c2.37-2.38,5.72-3.58,10.05-3.58 c3.38,0,6.05,0.68,7.99,2.05c1.93,1.37,3.38,3.47,4.32,6.31l-7.32,1.62c-0.26-0.81-0.53-1.41-0.81-1.78 c-0.47-0.63-1.04-1.12-1.71-1.46c-0.68-0.34-1.43-0.51-2.26-0.51c-1.89,0-3.33,0.76-4.34,2.26c-0.76,1.12-1.14,2.88-1.14,5.28 c0,2.98,0.45,5.01,1.36,6.12c0.91,1.1,2.18,1.65,3.82,1.65c1.59,0,2.79-0.44,3.6-1.34C74.74,114.42,75.33,113.13,75.7,111.43 L75.7,111.43z"/></g></svg>