<?xml version="1.0" encoding="iso-8859-1"?>
<!-- Generator: Adobe Illustrator 19.0.0, SVG Export Plug-In . SVG Version: 6.00 Build 0)  -->
<svg version="1.1" id="Layer_1" xmlns="http://www.w3.org/2000/svg" xmlns:xlink="http://www.w3.org/1999/xlink" x="0px" y="0px"
	 viewBox="0 0 300.948 300.948" style="enable-background:new 0 0 300.948 300.948;" xml:space="preserve">
<g id="XMLID_1505_">
	<g>
		<g>
			<path d="M132.166,219.612L120.7,189.007l-18.92,25.645l4.57,12.2l1.089,52.22c0.152,7.28,6.101,13.079,13.349,13.079
				c0.094,0,0.189-0.001,0.284-0.003c7.375-0.154,13.229-6.257,13.076-13.632l-1.137-54.496
				C132.98,222.513,132.694,221.023,132.166,219.612z"/>
			<circle cx="92.165" cy="50.896" r="23.069"/>
			<path d="M170.846,40.209c-4.878-3.74-11.866-2.818-15.606,2.061l-29.253,38.153l-12.6,2.504c-2.239-1.26-4.819-1.987-7.57-1.997
				l-27.79-0.113c-8.606-0.035-15.612,6.914-15.647,15.521l-0.041,10.148c5.894-4.85,10.2-8.395,16.342-13.449l-27.839,36.752
				c-2.212,3.006-2.77,6.913-1.494,10.412l15.522,42.623c2.131,5.848,8.593,8.715,14.271,6.644c5.774-2.105,8.75-8.493,6.644-14.271
				l-13.189-36.173l25.099-34.09l-1.65,4.137c-2.548,6.388-9.458,23.716-12.013,30.124c9.171,25.153,8.43,23.12,11.792,32.342
				c4.13,11.328-1.694,23.839-13.023,27.969c-5.156,1.88-10.876,1.768-16.015-0.416l-6.946,9.415L7.481,234.98
				c-6.635,3.253-9.357,11.259-6.115,17.872c3.249,6.627,11.25,9.361,17.872,6.115l55.291-27.913
				c1.927-0.944,3.596-2.338,4.87-4.064l39.4-53.405c2.39-3.245,2.291-6.351,2.272-10.854l0.238-58.684l13.132-2.61
				c2.651-0.527,5.019-2,6.663-4.145l31.803-41.48C176.646,50.936,175.724,43.949,170.846,40.209z"/>
			<path d="M250.435,216.627c-2.072,3.485-1.699,6.841-1.363,9.642l6.507,54.118c0.881,7.325,7.533,12.547,14.856,11.667
				c7.324-0.88,12.547-7.532,11.667-14.856l-6.236-51.857l7.302-32.973L250.435,216.627z"/>
			<circle cx="255.17" cy="49.131" r="23.069"/>
			<path d="M300.801,157.11c-0.001-0.005-0.001-0.009-0.002-0.013l-9.775-67.144c-1.24-8.517-9.15-14.416-17.666-13.176
				l-27.433,3.994l-25.751-17.246l-12.368-46.457c-1.582-5.94-7.68-9.474-13.62-7.892c-5.94,1.581-9.474,7.679-7.892,13.62
				l13.447,50.51c0.696,2.612,2.317,4.881,4.563,6.385l25.379,16.996c29.946-8.374,25.085-7.015,34.511-9.651l-36.571,21.323
				l-34.561-16.97c-5.132-2.52-11.407-0.729-14.403,4.194c-3.469,5.696-1.193,12.949,4.591,15.789
				c44.139,21.651,40.969,20.131,41.842,20.447c3.002,1.088,6.429,0.864,9.395-0.846l39.51-23.763l-35.156,33.548l3.577,24.567
				l18.423-2.959l-43.669,32.365c-1.723,1.278-3.113,2.95-4.053,4.879l-27.793,55.352c-3.232,6.631-0.477,14.626,6.154,17.859
				c6.617,3.225,14.619,0.49,17.859-6.154l26.362-52.417c44.648-33.09,34.888-25.947,59.437-43.736
				C299.365,167.448,301.554,162.275,300.801,157.11z"/>
		</g>
	</g>
</g>
<g>
</g>
<g>
</g>
<g>
</g>
<g>
</g>
<g>
</g>
<g>
</g>
<g>
</g>
<g>
</g>
<g>
</g>
<g>
</g>
<g>
</g>
<g>
</g>
<g>
</g>
<g>
</g>
<g>
</g>
</svg>
