<?xml version="1.0" encoding="iso-8859-1"?>
<!-- Uploaded to: SVG Repo, www.svgrepo.com, Generator: SVG Repo Mixer Tools -->
<svg fill="#000000" height="800px" width="800px" version="1.1" id="Layer_1" xmlns="http://www.w3.org/2000/svg" xmlns:xlink="http://www.w3.org/1999/xlink" 
	 viewBox="0 0 512 512" xml:space="preserve">
<g>
	<g>
		<path d="M457.246,228.442h-38.074V57.469c0-12.015-9.741-21.933-21.756-21.933H116.034c-12.015,0-21.756,9.918-21.756,21.933
			v170.973H56.204C25.613,228.442,0,253.507,0,284.098v170.434c0,12.015,10.466,21.933,22.482,21.933h468.487
			c12.015,0,21.031-9.918,21.031-21.933V284.098C512,253.507,487.837,228.442,457.246,228.442z M137.79,79.048h237.87v149.394
			H137.79V79.048z M468.487,432.952H43.513V284.098c0-6.598,6.093-12.143,12.691-12.143h401.042c6.598,0,11.241,5.545,11.241,12.143
			V432.952z"/>
	</g>
</g>
<g>
	<g>
		<path d="M397.416,353.178H116.034c-12.015,0-21.756,9.741-21.756,21.756s9.741,21.756,21.756,21.756h281.382
			c12.015,0,21.756-9.741,21.756-21.756S409.432,353.178,397.416,353.178z"/>
	</g>
</g>
<g>
	<g>
		<path d="M89.926,292.261H76.872c-12.015,0-21.756,9.741-21.756,21.756s9.741,21.756,21.756,21.756h13.054
			c12.015,0,21.756-9.741,21.756-21.756S101.942,292.261,89.926,292.261z"/>
	</g>
</g>
<g>
	<g>
		<path d="M336.499,105.156H176.952c-12.015,0-21.756,9.741-21.756,21.756s9.741,21.756,21.756,21.756h159.547
			c12.015,0,21.756-9.741,21.756-21.756S348.514,105.156,336.499,105.156z"/>
	</g>
</g>
<g>
	<g>
		<path d="M336.499,160.272H176.952c-12.015,0-21.756,9.741-21.756,21.756s9.741,21.756,21.756,21.756h159.547
			c12.015,0,21.756-9.741,21.756-21.756S348.514,160.272,336.499,160.272z"/>
	</g>
</g>
</svg>