<svg width="158" height="60" viewBox="0 0 158 60" fill="none" xmlns="http://www.w3.org/2000/svg">
<path d="M30.9439 8.95955C30.653 9.76766 32.7864 14.1314 36.4713 20.2731C49.1102 41.2516 47.4293 41.4455 49.7243 41.4455C52.181 41.4455 51.8254 40.5404 44.3262 26.641C36.2774 11.7394 32.0429 6.115 30.9439 8.95955Z" fill="black"/>
<path d="M28.7782 44.8716C28.3579 45.2918 28.5842 45.6477 30.0711 47.2639C32.3015 49.6559 36.0188 50.6579 36.0188 48.8801C35.9865 47.4255 29.7156 43.9341 28.7782 44.8716Z" fill="black"/>
<path d="M23.5093 55.2477C7.92899 50.0758 2.53086 48.7828 0.688371 49.8818C-0.830874 50.7546 0.0742067 51.4011 4.3087 52.4678C7.92902 53.3405 14.5232 55.3447 20.9881 57.5104C26.2892 59.2882 27.5175 59.4822 29.0044 58.9327C31.0409 58.1245 29.8449 57.3488 23.5093 55.2477Z" fill="black"/>
<path d="M56.4801 1.16938C56.1892 1.94516 57.8378 9.31479 59.2924 13.8725C59.6479 14.9715 60.3591 17.8807 60.8763 20.3051C61.846 25.0244 62.0076 25.2833 63.8501 25.2833C65.5956 25.2833 65.5956 25.3477 63.4945 17.4605C59.8419 3.72268 57.5468 -1.61052 56.4801 1.16938Z" fill="black"/>
<path d="M18.2728 35.0776C20.7618 37.3403 21.5376 39.3121 23.9295 39.3121C27.7761 39.3121 27.9377 39.0535 23.3477 34.4311C14.8464 25.8651 6.70073 19.9175 4.95522 21.0165C3.30668 22.1155 9.57757 26.0914 18.2728 35.0776Z" fill="black"/>
<path d="M135.351 28.0309C137.808 25.9621 139.424 23.8287 139.424 22.665C139.424 21.0488 137.42 20.5636 135.707 21.8243C124.297 30.1316 112.757 42.2856 114.664 43.9341C116.539 45.5503 118.446 44.322 126.786 36.144C130.471 32.5559 134.317 28.9036 135.351 28.0309Z" fill="black"/>
<path d="M90.2267 2.07445C89.2247 5.33921 88.1903 13.0324 84.1498 29.2915C83.3417 32.524 83.3417 32.5883 84.376 33.558C85.2165 34.3338 86.8327 34.6251 87.6408 34.1079C88.3196 33.6877 93.7178 11.0606 95.0107 3.27045C95.4633 0.231962 91.3581 -1.67517 90.2267 2.07445Z" fill="black"/>
<path d="M149.93 41.4455C140.103 44.1931 122.196 51.4011 121.193 53.0496C120.482 54.181 123.359 55.28 125.299 54.6012L132.507 52.0152C143.594 48.0394 157.235 42.221 157.235 41.4775C157.203 39.9583 155.231 39.9586 149.93 41.4455Z" fill="black"/>
<path d="M114.502 8.24841C113.953 9.18582 112.304 11.7394 107.326 18.6245C105.064 21.7277 101.314 28.1925 101.314 28.9683C101.314 30.5199 105.71 25.154 113.209 14.4224C114.826 12.095 116.442 9.92928 116.83 9.60603C118.575 8.02214 115.537 6.5029 114.502 8.24841Z" fill="black"/>
</svg>
