<?xml version="1.0" encoding="utf-8"?><!-- Uploaded to: SVG Repo, www.svgrepo.com, Generator: SVG Repo Mixer Tools -->
<svg width="800px" height="800px" viewBox="0 0 24 24" fill="none" xmlns="http://www.w3.org/2000/svg">
<path fill-rule="evenodd" clip-rule="evenodd" d="M17.4964 21.9284C17.844 21.7894 18.1491 21.6495 18.4116 21.5176C18.9328 22.4046 19.8969 23 21 23C22.6569 23 24 21.6568 24 20V14C24 12.3431 22.6569 11 21 11C19.5981 11 18.4208 11.9616 18.0917 13.2612C17.8059 13.3614 17.5176 13.4549 17.2253 13.5384C16.3793 13.7801 15.3603 13.9999 14.5 13.9999C13.2254 13.9999 10.942 13.5353 9.62034 13.2364C8.61831 13.0098 7.58908 13.5704 7.25848 14.5622L6.86313 15.7483C5.75472 15.335 4.41275 14.6642 3.47619 14.1674C2.42859 13.6117 1.09699 14.0649 0.644722 15.1956L0.329309 15.9841C0.0210913 16.7546 0.215635 17.6654 0.890813 18.2217C1.66307 18.8581 3.1914 20.0378 5.06434 21.063C6.91913 22.0782 9.21562 22.9999 11.5 22.9999C14.1367 22.9999 16.1374 22.472 17.4964 21.9284ZM20 20C20 20.5523 20.4477 21 21 21C21.5523 21 22 20.5523 22 20V14C22 13.4477 21.5523 13 21 13C20.4477 13 20 13.4477 20 14V20ZM14.5 15.9999C12.9615 15.9999 10.4534 15.4753 9.17918 15.1872C9.17918 15.1872 8.84483 16.1278 8.7959 16.2745L12.6465 17.2776C13.1084 17.3979 13.372 17.8839 13.2211 18.3367C13.0935 18.7194 12.7092 18.9536 12.3114 18.8865C11.0903 18.6805 8.55235 18.2299 7.25848 17.8365C5.51594 17.3066 3.71083 16.5559 2.53894 15.9342C2.53894 15.9342 2.22946 16.6189 2.19506 16.7049C2.92373 17.3031 4.32792 18.3799 6.0246 19.3086C7.76488 20.2611 9.70942 20.9999 11.5 20.9999C15.023 20.9999 17.1768 19.9555 18 19.465V15.3956C16.8681 15.7339 15.6865 15.9999 14.5 15.9999Z" fill="#0F0F0F"/>
<path d="M12 1C11.4477 1 11 1.44772 11 2V7.58564L9.7071 6.29278C9.3166 5.9024 8.68342 5.9024 8.29292 6.29278C7.90235 6.68341 7.90235 7.31646 8.29292 7.70709L11.292 10.7063C11.6823 11.0965 12.3149 11.0968 12.7055 10.707L15.705 7.71368C16.0955 7.3233 16.0955 6.69 15.705 6.29962C15.3145 5.90899 14.6813 5.90899 14.2908 6.29962L13 7.59034V2C13 1.44772 12.5523 1 12 1Z" fill="#0F0F0F"/>
</svg>