<?xml version="1.0" ?><!-- Uploaded to: SVG Repo, www.svgrepo.com, Generator: SVG Repo Mixer Tools -->
<svg fill="#000000" width="800px" height="800px" viewBox="0 0 200 200" data-name="Layer 1" id="Layer_1" xmlns="http://www.w3.org/2000/svg"><title/><path d="M181.75,42.5c-3-13-15-22.5-29-22.5h-105a30.6,30.6,0,0,0-29.5,22.5l-10.5,40c-2,7,1,14,7,18l2,1.5c3,1.5,5.5,3,8.5,3.5V160a20.06,20.06,0,0,0,20,20h23.5a20.06,20.06,0,0,0,20-20V140h27.5v20a20.06,20.06,0,0,0,20,20h19a20.06,20.06,0,0,0,20-20V105.5a22.09,22.09,0,0,0,8-3l2-1.5a16.87,16.87,0,0,0,7-18.5ZM156.25,160h-20V140a20.06,20.06,0,0,0-20-20H88.75a20.06,20.06,0,0,0-20,20v20H45.25V100c6.5-2.5,13.5-1.5,19.5,2a21.07,21.07,0,0,0,24,0,21.07,21.07,0,0,1,24,0,21.07,21.07,0,0,0,24,0,20.87,20.87,0,0,1,19.5-2Zm14.5-74.5a40.69,40.69,0,0,0-46,0,.94.94,0,0,1-1.5,0,40.69,40.69,0,0,0-46,0,.94.94,0,0,1-1.5,0,40.69,40.69,0,0,0-46,0,.94.94,0,0,1-1.5,0l9.5-38c1-4.5,5-7.5,10-7.5h105.5a9.64,9.64,0,0,1,9.5,7.5l9.5,38S171.25,86,170.75,85.5Z"/></svg>