<svg width="112" height="108" viewBox="0 0 112 108" fill="none" xmlns="http://www.w3.org/2000/svg">
<path d="M108.05 39.1961L105.823 31.6789L108.329 28.4074C117.586 16.2267 100.394 -2.84494 86.7513 4.46352C85.2896 5.22917 83.5497 5.29877 81.0439 4.67233C76.45 3.48905 61.4154 0.983301 58.3528 0.635279C48.1905 -0.617602 50.9745 4.32429 55.3596 4.74192C65.2434 5.78598 65.0347 5.22916 62.3897 8.01334C58.283 12.3984 61.8329 29.5211 68.3757 36.9688C74.2921 43.7204 88.6307 47.3399 93.0853 43.1636C101.925 34.8111 99.489 73.5111 90.3708 85.3439C61.9722 122.304 2.11214 86.6664 12.9008 39.1961L14.1539 33.6278L19.3046 37.0384C28.2836 43.0244 31.9725 40.0314 25.0816 32.3749C13.8057 19.9157 17.6341 4.04587 29.4669 14.1385C33.4344 17.5491 38.3067 18.0364 40.3253 15.3218C46.3113 7.10848 49.8608 10.0319 49.7912 18.802C49.7912 23.5351 47.564 26.7369 38.4458 35.2287C30.4413 42.6763 30.0933 45.1821 37.0537 45.1821C41.7172 45.1821 56.8213 27.2938 58.1438 20.2637C60.0231 10.3799 46.6591 2.30578 38.7242 8.50058C36.9145 9.96227 35.801 10.2407 35.1049 9.54464C34.4089 8.8486 34.548 7.59569 36.7754 6.34281C39.0027 5.08993 42.4133 4.1155 41.6477 2.02737C40.6036 -0.756811 32.8775 2.8626 31.8334 3.48905C30.7893 4.04588 27.0307 6.48203 23.8289 6.48203C12.8314 6.48203 8.6551 9.82303 9.55996 17.8275C10.0472 22.2822 9.76891 23.5351 7.26315 27.9898C-12.2957 62.6529 14.1539 106.434 55.1509 107.269C96.844 108.244 119.744 78.6619 108.05 39.1961ZM93.9901 31.9573C86.4728 40.3098 85.3592 40.6578 79.1644 37.0384C74.2225 34.115 70.1854 26.5281 69.3501 18.5236C68.5149 10.1015 72.8304 7.87413 80.2085 12.8856L83.8281 15.3914L87.4473 13.0249C97.8184 6.13402 111.461 12.6072 93.9901 31.9573Z" fill="black"/>
<path d="M21.6716 54.7179C22.1588 56.1796 23.2028 61.0519 24.038 65.5762C30.2328 99.3344 84.3853 98.7079 87.1694 64.8802C87.5175 60.7039 88.283 57.0149 88.8399 56.6668C93.7122 53.5346 80.6962 49.3584 71.5084 51.1681C68.6546 51.7249 57.7267 51.8641 44.7107 51.5161C20.6276 50.8201 20.4883 50.82 21.6716 54.7179ZM80.6964 57.0149V62.1656C80.6964 81.3068 46.5203 91.8171 35.1748 76.0865C31.2769 70.7269 31.3466 67.4555 30.7898 57.3629C62.8079 56.3188 63.5737 56.458 80.6964 57.0149Z" fill="black"/>
</svg>
