<?xml version="1.0" encoding="UTF-8" standalone="no"?>
<svg
   height="813"
   viewBox="-12.99651414 -5.12522386 413.76651414 377.57703226"
   width="2500"
   version="1.1"
   id="svg107"
   sodipodi:docname="bitcoin-lightning-accepted-here-2.svg"
   inkscape:version="1.2.2 (b0a8486541, 2022-12-01)"
   xmlns:inkscape="http://www.inkscape.org/namespaces/inkscape"
   xmlns:sodipodi="http://sodipodi.sourceforge.net/DTD/sodipodi-0.dtd"
   xmlns="http://www.w3.org/2000/svg"
   xmlns:svg="http://www.w3.org/2000/svg">
  <defs
     id="defs111" />
  <sodipodi:namedview
     id="namedview109"
     pagecolor="#ffffff"
     bordercolor="#000000"
     borderopacity="0.25"
     inkscape:showpageshadow="2"
     inkscape:pageopacity="0.0"
     inkscape:pagecheckerboard="0"
     inkscape:deskcolor="#d1d1d1"
     showgrid="false"
     inkscape:zoom="0.2504"
     inkscape:cx="1837.0607"
     inkscape:cy="285.54313"
     inkscape:window-width="1920"
     inkscape:window-height="1048"
     inkscape:window-x="0"
     inkscape:window-y="32"
     inkscape:window-maximized="1"
     inkscape:current-layer="svg107" />
  <path
     d="m -41.398563,178.11035 a 170,170 0 1 0 -39.66,110.08 l -47.309997,-13.14 z"
     fill="#ff9000"
     id="path75" />
  <path
     d="m -136.41856,154.83035 c 3.39,-22.62 -13.84,-34.78 -37.39,-42.89 l 7.67,-30.639997 -18.65,-4.65 -7.44,29.829997 c -4.9,-1.22 -9.93,-2.37 -14.94,-3.51 l 7.49,-29.999997 -18.64,-4.64 -7.64,30.629997 c -4.06,-0.93 -8.05,-1.84 -11.92,-2.8 v -0.1 l -25.73,-6.419997 -5,19.919997 c 0,0 13.84,3.17 13.55,3.37 7.59,1.81 8.92,6.81 8.73,10.81 l -8.7,34.91 a 14.91,14.91 0 0 1 1.94,0.62 l -2,-0.49 -12.2,48.9 c -0.93,2.29 -3.27,5.74 -8.55,4.43 0.19,0.27 -13.56,-3.38 -13.56,-3.38 l -9.26,21.35 24.28,6 c 4.51,1.13 8.94,2.31 13.29,3.43 l -7.72,31 18.67,4.69 7.64,-30.66 c 5.09,1.38 10,2.65 14.86,3.85 l -7.61,30.52 18.65,4.65 7.72,-30.93 c 31.8,6 55.72,3.59 65.79,-25.18 8.11,-23.16 -0.41,-36.52 -17.14,-45.23 12.18,-2.81 21.36,-10.83 23.81,-27.39 z m -42.61,59.76 c -5.77,23.16 -44.77,10.64 -57.41,7.5 l 10.24,-41.06 c 12.65,3.16 53.19,9.41 47.17,33.56 z m 5.77,-60.09 c -5.26,21.07 -37.72,10.36 -48.25,7.74 l 9.29,-37.24 c 10.52,2.62 44.43,7.52 38.96,29.5 z"
     fill="#ffffff"
     id="path77" />
  <path
     d="m -14.368563,163.05035 -95.999997,107 53.999997,15 -38,83 105,-106 -63,-17 z"
     fill="#ffba00"
     id="path79" />
  <g
     fill="#4e4e4e"
     font-family="Ubuntu-BoldItalic, Ubuntu"
     font-style="italic"
     id="g105"
     transform="translate(-390.13856,0.74035243)">
    <text
       font-size="260px"
       font-weight="700"
       letter-spacing="-0.03em"
       transform="translate(382.77,233.31)"
       id="text87">bi<tspan
   letter-spacing="-0.04em"
   x="208.52"
   y="0"
   id="tspan81">t</tspan><tspan
   letter-spacing="-0.05em"
   x="305.48999"
   y="0"
   id="tspan83">c</tspan><tspan
   x="416.51001"
   y="0"
   id="tspan85">oin</tspan></text>
    <text
       font-size="57px"
       transform="translate(411.77,316.31)"
       id="text103"><tspan
         font-weight="700"
         id="tspan89">L</tspan><tspan
         font-weight="700"
         letter-spacing="0.01em"
         x="32.150002"
         y="0"
         id="tspan91">IGHTNING</tspan><tspan
         font-family="Ubuntu-LightItalic, Ubuntu"
         letter-spacing="-0.02em"
         x="323.07001"
         y="0"
         id="tspan93">A</tspan><tspan
         font-family="Ubuntu-LightItalic, Ubuntu"
         letter-spacing="-0.02em"
         x="357.26999"
         y="0"
         id="tspan95">C</tspan><tspan
         font-family="Ubuntu-LightItalic, Ubuntu"
         letter-spacing="0.01em"
         x="390.89999"
         y="0"
         id="tspan97">CE</tspan><tspan
         font-family="Ubuntu-LightItalic, Ubuntu"
         letter-spacing="-0.01em"
         x="456.45001"
         y="0"
         id="tspan99">P</tspan><tspan
         font-family="Ubuntu-LightItalic, Ubuntu"
         letter-spacing="0.01em"
         x="488.14001"
         y="0"
         id="tspan101">TED HERE</tspan></text>
  </g>
</svg>
