<?xml version="1.0" encoding="UTF-8" standalone="no"?>
<svg
   width="372.86301"
   height="296.45599"
   fill="none"
   version="1.1"
   id="svg6"
   xmlns="http://www.w3.org/2000/svg"
   xmlns:svg="http://www.w3.org/2000/svg">
  <defs
     id="defs6" />
  <circle
     cx="-36.674999"
     cy="36.674999"
     r="36.674999"
     fill="#000000"
     transform="scale(-1,1)"
     id="circle1" />
  <path
     stroke="#000000"
     stroke-width="18.337"
     d="m 30.562998,31.173 68.46,68.46"
     id="path1" />
  <circle
     cx="336.18799"
     cy="36.675007"
     r="36.674999"
     fill="#000000"
     id="circle2" />
  <path
     stroke="#000000"
     stroke-width="18.337"
     d="m 342.911,31.173 -68.46,68.46"
     id="path2" />
  <path
     fill="#ffdf6f"
     fill-rule="evenodd"
     d="m 47.084998,255.525 c -19.766,-9.41 -31.27,-30.542 -27.417,-52.092 C 36.207998,110.938 105.135,41.565 187.654,41.565 c 82.719,0 151.78,69.71 168.105,162.54 3.796,21.59 -7.801,42.712 -27.635,52.045 -42.441,19.973 -89.846,31.137 -139.859,31.137 -50.532,0 -98.402002,-11.398 -141.180002,-31.762 z"
     clip-rule="evenodd"
     id="path3" />
  <path
     fill="#000000"
     d="m 355.759,204.105 9.03,-1.588 z M 28.693998,205.047 C 44.674998,115.672 110.737,50.733 187.654,50.733 V 32.396 c -88.121002,0 -159.914002,73.808 -177.011002,169.423 l 18.05,3.228 z M 187.654,50.733 c 77.102,0 143.3,65.256 159.075,154.96 l 18.06,-3.176 C 347.914,106.56 275.989,32.396 187.654,32.396 Z M 324.22,247.854 c -41.246,19.41 -87.32,30.264 -135.955,30.264 v 18.338 c 51.39,0 100.126,-11.475 143.763,-32.01 z m -135.955,30.264 c -49.14,0 -95.666002,-11.081 -137.239002,-30.872 l -7.882,16.557 c 43.983,20.939 93.197002,32.653 145.121002,32.653 z m 158.464,-72.425 c 3.044,17.31 -6.224,34.498 -22.509,42.161 l 7.808,16.592 c 23.384,-11.004 37.31,-36.059 32.761,-61.929 z M 10.642998,201.819 c -4.6179995,25.823 9.198,50.891 32.501,61.984 l 7.882,-16.557 c -16.23,-7.726 -25.422,-24.922 -22.332,-42.199 z"
     id="path4" />
  <path
     fill="#000000"
     fill-rule="evenodd"
     d="m 82.353998,232.53 c -15.911,-6.48 -25.349,-23.409 -19.836,-39.681 17.002,-50.179 66.600002,-86.492 125.136002,-86.492 58.536,0 108.134,36.313 125.137,86.492 5.513,16.272 -3.925,33.201 -19.836,39.681 -32.498,13.235 -68.048,20.527 -105.301,20.527 -37.253,0 -72.803,-7.292 -105.300002,-20.527 z"
     clip-rule="evenodd"
     id="path5" />
  <ellipse
     cx="229.82999"
     cy="184.597"
     fill="#ffffff"
     rx="30.563"
     ry="24.450001"
     id="ellipse5" />
  <ellipse
     cx="142.338"
     cy="184.61198"
     fill="#ffffff"
     rx="30.563"
     ry="24.450001"
     id="ellipse6" />
</svg>
