<svg width="72" height="72" viewBox="0 0 72 72" fill="none" xmlns="http://www.w3.org/2000/svg">
<rect width="72" height="72" rx="24" fill="#FA9514"/>
<path fill-rule="evenodd" clip-rule="evenodd" d="M39.1208 14.5116C40.1198 14.8265 40.7992 15.753 40.7992 16.8006V28.8006L50.3992 28.8006C51.2941 28.8006 52.1147 29.2985 52.528 30.0922C52.9412 30.886 52.8786 31.8437 52.3654 32.5769L35.5654 56.5769C34.9647 57.435 33.8768 57.8045 32.8777 57.4895C31.8786 57.1746 31.1992 56.2481 31.1992 55.2006L31.1992 43.2006H21.5992C20.7043 43.2006 19.8838 42.7027 19.4705 41.9089C19.0572 41.1152 19.1199 40.1574 19.6331 39.4243L36.4331 15.4243C37.0338 14.5661 38.1217 14.1967 39.1208 14.5116Z" fill="white"/>
</svg>
