<?xml version="1.0" encoding="UTF-8"?>
<svg xmlns="http://www.w3.org/2000/svg" version="1.1" viewBox="0 0 500 500">
  <defs>
    <style>
      .cls-1 {
        fill: #14909c;
      }

      .cls-2 {
        fill: #22e1c9;
      }

      .cls-3 {
        fill: #0d1437;
      }
    </style>
  </defs>
  <!-- Generator: Adobe Illustrator 28.6.0, SVG Export Plug-In . SVG Version: 1.2.0 Build 709)  -->
  <g>
    <g id="Layer_1">
      <g id="Layer_1-2" data-name="Layer_1">
        <g id="Layer_1-2">
          <g>
            <circle class="cls-3" cx="250" cy="250" r="250"/>
            <path class="cls-1" d="M232.6,207.1c11.9-71.2,87.9-61.8,97-60.4,9.5,2.7,18.5-6.5,13.3-15.5-21-35.9-62.6-59.1-94.4-60.7,8-6.1,34.4-9.7,62.4-8.5,9.9.4,14-12.6,5.6-17.9-.8-.5-1.4-.9-2.5-1.2-38.3-11.7-79.4-12.9-118.5-2.6-29,7.6-57.1,21.2-81.9,41.4-10.4,8.5-20,17.6-28.2,27.4-62.4,72.5-70,178.9-16.8,259.9,1,1.6,2.1,3.1,3.1,4.7.9,1.1,1.2,1.7,1.6,2.2,2.5,3.6,5.1,7.2,8,10.8,3,3.8,6.4,7.5,9.8,11,.9.9,1.6,1.7,2.6,2.6,3,3.1,6.1,6.4,9.6,9.4.2.3.6.5.9.9,3.5,3.1,7.3,6.1,10.9,9.2.9.8,1.8,1.4,2.6,2.1,3.4,2.6,6.9,5,10.2,7.6.5.3.9.6,1.2.9,3.9,2.6,8,5.1,12,7.6.9.5,1.6.9,2.4,1.4,3.8,2.1,7.6,4.1,11.4,6,.5.3.9.5,1.2.6,4.4,2.1,8.8,4,13.2,5.8.6.3,1.1.5,1.7.8,4.2,1.6,8.5,3.1,12.7,4.4.4,0,.8.3.9.4,4.6,1.5,9.5,2.8,14.2,4h.6c4.6,1.1,9.5,2.1,14.2,2.9h.6c10,1.6,20.1,2.6,30.1,2.9h.2c49.9,1.2,100.2-14.4,142-48.3,25.5-20.8,45.3-46,58.8-73.8.8-1.5,1.5-3.1,2.2-4.6,3.9-8.6,7.4-17.5,10-26.5-130.8,49.3-239.9-17.7-225-106.6v-.2h-.5.1Z"/>
            <path class="cls-2" d="M155.9,228.9c25.5-34.4,37.3-28.3,39.6-38.9,3.3-14.5-49.6-27.1-90.7,4.5,57.2-71.6,146.5-88.1,222.5-48.8,10.1,5.2,21.5-4.8,15.6-14.6-21-35.9-62.6-59.1-94.4-60.7,8-6.1,34.4-9.7,62.4-8.5,9.9.4,14-12.6,5.6-17.9-.8-.5-1.4-.9-2.5-1.2-38.3-11.7-79.4-12.9-118.5-2.6-29,7.6-57.1,21.2-81.9,41.4-10.4,8.5-20,17.6-28.2,27.4-62.4,72.5-70,178.9-16.8,259.9,1,1.6,2.1,3.1,3.1,4.7.9,1.1,1.2,1.7,1.6,2.2,2.5,3.6,5.1,7.2,8,10.8,55.4,68.5,144.1,94.4,224.1,73.3-204.5-30.3-173.4-198.9-149.5-230.9h-.1,0Z"/>
          </g>
        </g>
      </g>
    </g>
  </g>
</svg>