<?xml version="1.0" encoding="UTF-8" standalone="no"?>
<svg
   version="1.0"
   width="203.44351pt"
   height="46.195103pt"
   viewBox="0 0 203.44351 46.195103"
   preserveAspectRatio="xMidYMid"
   id="svg117"
   sodipodi:docname="swapee.svg"
   inkscape:version="1.2.2 (b0a8486541, 2022-12-01)"
   xmlns:inkscape="http://www.inkscape.org/namespaces/inkscape"
   xmlns:sodipodi="http://sodipodi.sourceforge.net/DTD/sodipodi-0.dtd"
   xmlns="http://www.w3.org/2000/svg"
   xmlns:svg="http://www.w3.org/2000/svg">
  <defs
     id="defs121" />
  <sodipodi:namedview
     id="namedview119"
     pagecolor="#ffffff"
     bordercolor="#000000"
     borderopacity="0.25"
     inkscape:showpageshadow="2"
     inkscape:pageopacity="0.0"
     inkscape:pagecheckerboard="0"
     inkscape:deskcolor="#d1d1d1"
     inkscape:document-units="pt"
     showgrid="false"
     inkscape:zoom="1.3242754"
     inkscape:cx="90.615595"
     inkscape:cy="30.582763"
     inkscape:window-width="1920"
     inkscape:window-height="1048"
     inkscape:window-x="0"
     inkscape:window-y="32"
     inkscape:window-maximized="1"
     inkscape:current-layer="svg117" />
  <g
     transform="matrix(0.025,0,0,-0.025,-1.2693189,47.193948)"
     fill="#000000"
     stroke="none"
     id="g115">
    <path
       d="M 253,1872 C 184,1847 121,1794 85,1729 L 55,1675 52,981 C 49,179 44,224 139,129 233,35 189,40 979,40 h 686 l 60,28 c 64,31 111,77 147,145 l 23,42 3,691 c 2,681 2,693 -18,748 -25,66 -85,130 -156,166 l -49,25 -685,2 c -638,2 -689,1 -737,-15 z m 750,-328 c 18,-9 63,-35 100,-57 l 68,-40 -47,-27 -47,-28 -49,29 c -27,16 -52,29 -56,29 -4,0 -45,-23 -92,-51 -47,-27 -140,-82 -207,-120 L 550,1209 V 962 715 l 53,-29 53,-28 130,74 c 71,42 174,101 229,133 55,31 115,66 133,77 l 33,20 -3,-62 -3,-62 L 920,690 665,543 620,568 c -25,14 -72,42 -105,62 l -60,35 v 298 299 l 150,87 c 237,138 360,209 363,210 2,1 17,-6 35,-15 z m 387,-221 100,-58 V 963 662 L 1313,559 C 1215,503 1099,436 1054,410 l -80,-47 -98,57 c -103,61 -104,61 -38,94 33,17 34,17 85,-12 l 52,-29 210,122 210,121 3,246 2,246 -46,26 c -26,14 -51,26 -56,26 -9,0 -66,-32 -371,-208 -113,-65 -159,-88 -163,-78 -3,7 -4,35 -2,61 l 3,48 255,148 c 140,81 258,148 263,148 4,1 52,-25 107,-56 z"
       id="path101" />
    <path
       d="m 2320,1270 c -110,-24 -180,-103 -180,-206 0,-113 65,-171 261,-234 115,-37 159,-72 159,-127 0,-47 -24,-79 -76,-99 -61,-23 -133,-15 -217,26 -77,36 -107,33 -129,-14 -46,-102 257,-183 423,-113 159,66 190,284 54,377 -24,17 -95,47 -158,68 -129,43 -164,62 -177,97 -13,35 6,83 41,100 41,22 148,19 211,-5 91,-34 138,-21 138,40 0,32 -30,58 -90,79 -46,16 -203,23 -260,11 z"
       id="path103" />
    <path
       d="m 3079,1270 c -37,-22 -31,-53 85,-397 62,-187 119,-349 125,-361 18,-33 78,-45 121,-24 34,17 37,21 126,281 l 91,264 40,-114 c 22,-63 62,-177 89,-254 56,-162 73,-185 137,-185 32,0 49,6 65,22 12,14 60,143 122,328 143,434 134,397 105,426 -26,26 -62,31 -88,12 -11,-8 -52,-127 -109,-311 -50,-164 -95,-294 -99,-290 -4,4 -50,136 -102,291 -52,156 -101,292 -110,303 -21,24 -68,25 -95,2 -13,-12 -53,-118 -118,-318 l -97,-300 -23,70 c -12,39 -54,174 -93,300 -73,237 -88,265 -135,265 -11,0 -28,-5 -37,-10 z"
       id="path105" />
    <path
       d="m 4771,1263 c -19,-16 -150,-340 -264,-655 -32,-87 -32,-87 -12,-107 55,-53 98,-26 140,87 l 27,72 h 162 163 l 16,-37 c 9,-21 25,-59 36,-86 24,-58 57,-75 102,-52 49,26 57,0 -163,575 -31,80 -61,157 -68,171 -22,48 -98,65 -139,32 z m 123,-327 c 31,-82 56,-153 56,-157 0,-5 -57,-9 -126,-9 -71,0 -124,4 -122,9 84,229 124,328 129,318 4,-7 32,-79 63,-161 z"
       id="path107" />
    <path
       d="m 5581,1251 c -20,-20 -21,-30 -21,-379 0,-329 1,-360 18,-374 30,-27 57,-30 85,-8 25,20 26,26 29,133 l 3,112 145,5 c 154,6 188,15 245,62 43,37 78,113 83,181 9,113 -39,206 -130,254 -52,27 -58,28 -245,31 -183,3 -192,3 -212,-17 z m 389,-116 c 98,-58 92,-211 -10,-262 -38,-20 -60,-23 -157,-23 h -113 v 156 156 l 123,-3 c 101,-3 128,-8 157,-24 z"
       id="path109" />
    <path
       d="m 6610,1248 c -19,-21 -20,-33 -20,-368 0,-297 2,-349 16,-368 15,-22 17,-22 284,-22 256,0 270,1 280,19 14,28 12,57 -6,75 -13,14 -48,16 -230,16 h -214 v 110 110 h 178 c 198,0 222,6 222,60 0,54 -24,60 -223,60 h -178 l 3,108 3,107 215,3 c 188,2 217,4 228,19 17,24 15,57 -6,76 -16,15 -50,17 -275,17 -251,0 -257,0 -277,-22 z"
       id="path111" />
    <path
       d="m 7622,1254 -22,-15 V 880 c 0,-313 2,-361 16,-374 13,-14 53,-16 279,-16 h 265 l 17,26 c 15,24 15,29 2,53 l -15,26 -217,3 -217,2 v 110 110 h 180 c 167,0 181,1 200,20 26,26 25,46 -5,75 -24,25 -27,25 -200,25 h -175 v 110 110 l 217,2 217,3 15,26 c 13,24 13,29 -2,53 l -17,26 h -258 c -217,0 -261,-2 -280,-16 z"
       id="path113" />
  </g>
</svg>
