<?xml version="1.0" encoding="UTF-8"?><svg id="Layer_2" xmlns="http://www.w3.org/2000/svg" viewBox="0 0 967.9 190.15"><defs><style>.cls-1{fill:#ffb71b;}.cls-2{fill:#323e48;}</style></defs><g id="Layer_1-2"><g><path id="fullLogo" class="cls-1" d="M95.07,0C42.57,0,0,42.57,0,95.07s42.57,95.07,95.07,95.07,95.07-42.57,95.07-95.07S147.58,0,95.07,0ZM36.59,36.59c15.62-15.62,36.39-24.23,58.49-24.23s42.86,8.6,58.49,24.23c15.62,15.62,24.23,36.39,24.23,58.49,0,16.69-4.91,32.62-14.05,46.16,2.57-7.43,3.96-15.41,3.96-23.71,0-40.11-32.52-72.63-72.63-72.63S22.45,77.41,22.45,117.52c0,8.3,1.4,16.28,3.96,23.71-9.14-13.53-14.05-29.47-14.05-46.16,0-22.09,8.6-42.86,24.23-58.49Zm24.1,104.7c0-18.96,15.43-34.39,34.39-34.39s34.39,15.43,34.39,34.39-15.43,34.39-34.39,34.39-34.39-15.43-34.39-34.39Zm34.39-46.74c-25.82,0-46.74,20.93-46.74,46.74,0,6.58,1.36,12.85,3.82,18.53-11.18-11.35-17.34-26.35-17.34-42.29s6.27-31.23,17.65-42.61c11.38-11.38,26.52-17.65,42.61-17.65s31.23,6.27,42.61,17.65c11.38,11.38,17.65,26.52,17.65,42.61s-6.16,30.95-17.34,42.29c2.46-5.68,3.82-11.94,3.82-18.53,0-25.82-20.93-46.74-46.74-46.74Z"/><path id="fullLogo-2" class="cls-2" d="M291.72,102.37v14.5l-10.85,10.85h-44.65V62.42h42.73l10.85,10.85v14.69l-6.24,6.24,8.16,8.16Zm-41.1-13.54h21.13l3.65-3.65v-6.82l-3.27-3.27h-21.51v13.73Zm26.7,22.95v-5.95l-4.71-4.7h-21.99v13.92h23.43l3.27-3.27Z"/><path id="fullLogo-3" class="cls-2" d="M328.89,75.29v39.57h11.72v12.87h-37.84v-12.87h11.72v-39.57h-11.72v-12.87h37.84v12.87h-11.72Z"/><path id="fullLogo-4" class="cls-2" d="M405.81,75.29h-20.65v52.43h-14.4v-52.43h-20.65v-12.87h55.7v12.87Z"/><path id="fullLogo-5" class="cls-2" d="M470.82,116.78l-10.94,10.95h-31.02l-12.87-12.87v-39.57l12.87-12.87h30.34l10.95,10.95-9.79,9.79-7.87-7.88h-16.8l-5.28,5.28v29l5.28,5.28h17.48l7.87-7.88,9.79,9.79Z"/><path id="fullLogo-6" class="cls-2" d="M538.33,75.29v39.57l-12.87,12.87h-31.88l-12.87-12.87v-39.57l12.87-12.87h31.88l12.87,12.87Zm-14.4,34.28v-29l-5.28-5.28h-18.25l-5.28,5.28v29l5.28,5.28h18.25l5.28-5.28Z"/><path id="fullLogo-7" class="cls-2" d="M576.65,75.29v39.57h11.72v12.87h-37.84v-12.87h11.72v-39.57h-11.72v-12.87h37.84v12.87h-11.72Z"/><path id="fullLogo-8" class="cls-2" d="M657.99,62.42V127.72h-11.81l-30.15-42.73v42.73h-13.73V62.42h13.35l28.62,40.62V62.42h13.73Z"/><path id="fullLogo-9" class="cls-2" d="M780.15,62.42l-17.38,65.3h-13.73l-11.43-42.83-11.43,42.83h-13.92l-17.38-65.3h14.98l10.66,43.69,11.62-43.69h11.43l11.62,43.69,10.66-43.69h14.31Z"/><path id="fullLogo-10" class="cls-2" d="M806.27,75.29v13.25h33.23v12.87h-33.23v13.44h38.03v12.87h-52.43V62.42h52.43v12.87h-38.03Z"/><path id="fullLogo-11" class="cls-2" d="M907.01,114.86v12.87h-48.78V62.42h14.4v52.43h34.38Z"/><path id="fullLogo-12" class="cls-2" d="M967.9,114.86v12.87h-48.78V62.42h14.4v52.43h34.38Z"/></g></g></svg>