<svg width="72" height="72" viewBox="0 0 72 72" fill="none" xmlns="http://www.w3.org/2000/svg">
<path d="M69.8824 36C69.8824 54.7127 54.7127 69.8824 36 69.8824C17.2873 69.8824 2.11765 54.7127 2.11765 36C2.11765 17.2873 17.2873 2.11765 36 2.11765C54.7127 2.11765 69.8824 17.2873 69.8824 36Z" fill="white"/>
<path fill-rule="evenodd" clip-rule="evenodd" d="M36 4.23529C18.4568 4.23529 4.23529 18.4568 4.23529 36C4.23529 53.5432 18.4568 67.7647 36 67.7647C53.5432 67.7647 67.7647 53.5432 67.7647 36C67.7647 18.4568 53.5432 4.23529 36 4.23529ZM0 36C0 16.1177 16.1177 0 36 0C55.8823 0 72 16.1177 72 36C72 55.8823 55.8823 72 36 72C16.1177 72 0 55.8823 0 36Z" fill="black"/>
<path fill-rule="evenodd" clip-rule="evenodd" d="M36 58.5882C48.4751 58.5882 58.5882 48.4751 58.5882 36C58.5882 23.5248 48.4751 13.4117 36 13.4117C23.5249 13.4117 13.4118 23.5248 13.4118 36C13.4118 48.4751 23.5249 58.5882 36 58.5882ZM36 54C45.9411 54 54 45.9411 54 36C54 26.0589 45.9411 18 36 18C26.0589 18 18 26.0589 18 36C18 45.9411 26.0589 54 36 54Z" fill="black"/>
<path fill-rule="evenodd" clip-rule="evenodd" d="M36.0001 22.8988C36.0001 22.8988 36 22.8988 36 22.8988C28.7644 22.8988 22.8988 28.7644 22.8988 36C22.8988 43.2356 28.7644 49.1012 36 49.1012C36 49.1012 36.0001 49.1012 36.0001 49.1012V22.8988Z" fill="black"/>
</svg>
